<svg width="51" height="71" viewBox="0 0 51 71" fill="none" xmlns="http://www.w3.org/2000/svg">
<path d="M7.40461 7.99048C8.41805 6.89363 11.1206 5.1218 13.4853 4.02495C15.9344 2.84373 19.3126 2 21.5083 2C23.6197 2 26.66 2.33749 28.2646 2.75936C29.8692 3.18122 32.4873 4.95305 33.923 6.55614C35.4432 8.2436 36.71 10.2686 36.71 11.1123C36.7944 11.8716 38.3146 13.8966 40.1726 15.4997C43.2129 18.1996 43.4663 18.7902 43.2974 21.912C43.044 24.8651 43.4663 25.8776 45.4932 27.8181C47.6045 30.0118 47.8578 30.6868 47.4356 34.4836C47.2667 37.0148 47.52 39.7991 48.1957 41.4866C49.0402 43.4271 49.1247 44.9459 48.5335 46.9708C48.1112 48.4051 46.9289 50.4301 45.9999 51.3582C45.0709 52.2863 44.2263 53.4675 44.3108 53.8894C44.3108 54.3113 43.8885 56.1675 43.4663 57.9393C42.9595 59.6268 41.3549 62.4111 39.9192 64.0985C38.1457 65.9547 35.5276 67.5578 32.9096 68.4015C30.2071 69.2453 27.1667 69.5828 24.4642 69.2453C22.184 68.9921 19.3126 68.064 18.1302 67.1359C16.9479 66.2922 15.4277 64.5204 14.7521 63.1704C14.0764 61.9048 11.9651 59.3736 10.1071 57.6018C7.0668 54.7331 6.72898 54.0581 6.72898 50.2613C6.72898 47.1395 6.22226 45.5365 4.95546 44.0177C3.94201 42.9209 2.84412 41.1491 2.5063 39.9678C2.16849 38.7866 2.3374 36.846 2.84412 35.5804C3.6042 33.7242 3.51975 32.7961 2.5063 31.1087C1.83068 29.9275 1.2395 27.565 1.2395 25.8776C1.2395 24.1057 1.74622 21.912 2.5063 20.9839C3.18193 20.0558 3.77311 18.284 3.77311 17.0184C3.77311 15.6684 4.19538 13.6435 4.7021 12.3779C5.20882 11.0279 6.39117 9.08733 7.40461 7.99048Z" fill="#222B52" stroke="#222B52" stroke-width="2.1934"/>
<path d="M18.3834 60.8924C18.9746 59.8799 20.8326 58.6143 22.4372 58.0237C24.0418 57.4331 26.1531 56.9269 27.1666 56.8425C28.5178 56.8425 29.2779 57.4331 29.5313 58.6987C29.7846 59.7956 29.9535 62.0736 29.9535 63.7611C29.9535 66.8829 29.8691 66.9673 26.9977 66.9673C25.3931 66.9673 22.6905 66.3767 21.0859 65.7017C19.4813 65.0267 17.9611 64.0142 17.7078 63.5923C17.4544 63.0861 17.7922 61.9049 18.3834 60.8924Z" fill="#FCFCFC"/>
<path d="M31.6426 55.155L34.3451 53.8895C35.8653 53.2145 37.9766 52.6239 38.9901 52.6239C40.5947 52.6239 40.9325 53.0457 40.9325 55.3238C40.9325 56.8425 40.1724 59.3737 39.2434 60.808C38.3144 62.3267 36.6254 64.2673 35.443 65.0267C34.2607 65.8704 33.1628 66.3767 32.9094 66.1235C32.7405 65.8704 32.4027 63.3392 31.6426 55.155Z" fill="#FCFCFC"/>
<path d="M11.5427 46.1271C13.0628 45.3678 15.4275 44.4397 16.8632 44.1022C18.2145 43.7647 20.6637 43.5116 22.2683 43.5959C25.0552 43.7647 25.3086 44.0178 26.322 47.9833C26.9132 50.2614 27.4199 52.7082 27.4199 53.2145C27.4199 53.8051 26.1531 54.5644 24.633 54.8176C23.1973 55.0707 20.7481 56.0831 19.3969 56.9269C17.9611 57.7706 16.3565 58.53 15.7654 58.53C15.2586 58.53 13.4007 57.18 11.796 55.5769C9.76915 53.552 8.84016 51.8645 8.84016 50.0927C8.84016 48.0677 9.43134 47.3084 11.5427 46.1271Z" fill="#FCFCFC"/>
<path d="M28.5178 42.921C28.6867 42.4147 30.1225 41.4022 31.7271 40.6429C33.3317 39.7992 36.4565 39.1242 38.8212 39.1242C41.6926 39.1242 43.5506 39.6304 44.564 40.6429C45.4085 41.4022 45.9997 43.1741 45.9997 44.6084C45.9997 45.9584 45.4085 47.899 44.6485 48.8271C43.7195 50.0927 42.5371 50.4302 40.088 50.2614C38.23 50.177 35.2741 50.6833 33.5006 51.3583C31.8115 52.1176 30.2914 52.6239 30.1225 52.6239C30.038 52.6239 29.5313 50.5989 29.0246 48.1521C28.5178 45.7896 28.2645 43.3428 28.5178 42.921Z" fill="#FCFCFC"/>
<path d="M8.50235 32.3743C9.34688 31.6994 11.2049 30.8556 12.5561 30.6025C13.9918 30.265 16.1032 30.0119 17.2855 29.9275C18.4679 29.9275 20.2414 30.1806 21.2548 30.5181C22.6061 30.94 23.2817 32.0368 23.6195 34.0618C23.9573 35.6649 24.3796 37.7742 24.5485 38.7023C24.9708 40.221 24.4641 40.4741 20.0725 40.896C17.37 41.2335 13.9074 42.0772 12.3872 42.8366C10.1914 43.9334 9.34688 44.0178 7.99563 43.0897C7.06664 42.5835 5.88429 41.3179 5.37757 40.3898C4.70194 39.1242 4.78639 38.1117 5.71538 36.1711C6.39101 34.7368 7.65781 33.0493 8.50235 32.3743Z" fill="#FCFCFC"/>
<path d="M26.1531 34.0618C25.562 30.265 25.562 30.265 28.7712 28.7463C30.967 27.8182 33.6695 27.3963 36.7943 27.4807C40.1724 27.6495 42.1149 28.2401 43.3817 29.4213C44.7329 30.6025 45.1552 31.8681 44.9863 33.6399C44.7331 36.0853 44.6486 36.0867 39.6744 36.171L39.6657 36.1711C36.6254 36.2555 33.1628 36.9305 31.0514 37.943C28.9401 38.8711 27.3355 39.2085 27.1666 38.7023C26.9132 38.1961 26.4909 36.1711 26.1531 34.0618Z" fill="#FCFCFC"/>
<path d="M4.78639 22.0808C5.37757 21.2371 7.40445 20.2246 9.26243 19.8028C11.1204 19.3809 13.9918 18.959 15.5964 18.959C17.2011 18.8747 19.059 19.2965 19.5658 19.8871C20.1569 20.4777 20.8326 22.334 21.6771 26.8901L16.2721 27.3963C13.4007 27.6495 9.76915 28.4932 8.41789 29.2525C6.47546 30.3494 5.63093 30.4338 4.78639 29.59C4.19522 28.9994 3.77295 27.3963 3.77295 26.0464C3.77295 24.612 4.19522 22.8402 4.78639 22.0808Z" fill="#FCFCFC"/>
<path d="M25.4775 18.284C26.8288 17.4403 29.1935 16.5122 30.7981 16.2591C32.4027 15.9216 34.514 15.9216 35.443 16.0903C36.372 16.3435 37.9766 17.3559 39.0745 18.3684C40.3413 19.4653 40.9325 20.8996 40.7636 22.2496C40.5102 24.1902 40.088 24.3589 35.0208 24.8651C31.9804 25.1183 28.6867 25.7932 27.5888 26.2995C26.5754 26.8901 25.562 27.312 25.3086 27.312C25.0552 27.312 24.5485 25.8776 24.0418 24.1058C23.6195 22.4183 23.1973 20.7309 23.1973 20.309C23.1973 19.9715 24.2107 19.0434 25.4775 18.284Z" fill="#FCFCFC"/>
<path d="M11.3738 8.07492C12.5561 7.23119 14.0763 6.38746 14.7519 6.13434C15.512 5.79684 16.2721 6.30308 16.9477 7.8218C17.5389 9.00302 18.2145 11.4498 18.9746 16.3435H15.7654C14.0763 16.3435 11.2049 16.7653 9.43134 17.1872C6.81328 17.8622 6.30656 17.7778 6.30656 16.7653C6.30656 16.0904 6.98218 14.1498 7.74227 12.4623C8.5868 10.7749 10.1914 8.83427 11.3738 8.07492Z" fill="#FCFCFC"/>
<path d="M20.917 11.703C20.3258 9.34051 19.8191 6.80932 19.8191 5.96559C19.8191 4.95311 20.4947 4.53125 22.0994 4.53125C23.4506 4.53125 25.8998 4.95311 27.5888 5.37498C29.4468 5.88122 31.5582 7.23119 32.4872 8.49678C33.5006 9.84675 34.2607 11.1967 34.2607 11.703C34.1762 12.1248 31.8115 13.306 28.9401 14.1498C25.9842 15.0779 23.2817 15.8372 22.8594 15.8372C22.4372 15.9216 21.5082 13.981 20.917 11.703Z" fill="#FCFCFC"/>
<path d="M18.3834 60.8924C18.9746 59.8799 20.8326 58.6143 22.4372 58.0237C24.0418 57.4331 26.1531 56.9269 27.1666 56.8425C28.5178 56.8425 29.2779 57.4331 29.5313 58.6987C29.7846 59.7956 29.9535 62.0736 29.9535 63.7611C29.9535 66.8829 29.8691 66.9673 26.9977 66.9673C25.3931 66.9673 22.6905 66.3767 21.0859 65.7017C19.4813 65.0267 17.9611 64.0142 17.7078 63.5923C17.4544 63.0861 17.7922 61.9049 18.3834 60.8924Z" stroke="#222B52" stroke-width="2.1934"/>
<path d="M31.6426 55.155L34.3451 53.8895C35.8653 53.2145 37.9766 52.6239 38.9901 52.6239C40.5947 52.6239 40.9325 53.0457 40.9325 55.3238C40.9325 56.8425 40.1724 59.3737 39.2434 60.808C38.3144 62.3267 36.6254 64.2673 35.443 65.0267C34.2607 65.8704 33.1628 66.3767 32.9094 66.1235C32.7405 65.8704 32.4027 63.3392 31.6426 55.155Z" stroke="#222B52" stroke-width="2.1934"/>
<path d="M11.5427 46.1271C13.0628 45.3678 15.4275 44.4397 16.8632 44.1022C18.2145 43.7647 20.6637 43.5116 22.2683 43.5959C25.0552 43.7647 25.3086 44.0178 26.322 47.9833C26.9132 50.2614 27.4199 52.7082 27.4199 53.2145C27.4199 53.8051 26.1531 54.5644 24.633 54.8176C23.1973 55.0707 20.7481 56.0831 19.3969 56.9269C17.9611 57.7706 16.3565 58.53 15.7654 58.53C15.2586 58.53 13.4007 57.18 11.796 55.5769C9.76915 53.552 8.84016 51.8645 8.84016 50.0927C8.84016 48.0677 9.43134 47.3084 11.5427 46.1271Z" stroke="#222B52" stroke-width="2.1934"/>
<path d="M28.5178 42.921C28.6867 42.4147 30.1225 41.4022 31.7271 40.6429C33.3317 39.7992 36.4565 39.1242 38.8212 39.1242C41.6926 39.1242 43.5506 39.6304 44.564 40.6429C45.4085 41.4022 45.9997 43.1741 45.9997 44.6084C45.9997 45.9584 45.4085 47.899 44.6485 48.8271C43.7195 50.0927 42.5371 50.4302 40.088 50.2614C38.23 50.177 35.2741 50.6833 33.5006 51.3583C31.8115 52.1176 30.2914 52.6239 30.1225 52.6239C30.038 52.6239 29.5313 50.5989 29.0246 48.1521C28.5178 45.7896 28.2645 43.3428 28.5178 42.921Z" stroke="#222B52" stroke-width="2.1934"/>
<path d="M8.50235 32.3743C9.34688 31.6994 11.2049 30.8556 12.5561 30.6025C13.9918 30.265 16.1032 30.0119 17.2855 29.9275C18.4679 29.9275 20.2414 30.1806 21.2548 30.5181C22.6061 30.94 23.2817 32.0368 23.6195 34.0618C23.9573 35.6649 24.3796 37.7742 24.5485 38.7023C24.9708 40.221 24.4641 40.4741 20.0725 40.896C17.37 41.2335 13.9074 42.0772 12.3872 42.8366C10.1914 43.9334 9.34688 44.0178 7.99563 43.0897C7.06664 42.5835 5.88429 41.3179 5.37757 40.3898C4.70194 39.1242 4.78639 38.1117 5.71538 36.1711C6.39101 34.7368 7.65781 33.0493 8.50235 32.3743Z" stroke="#222B52" stroke-width="2.1934"/>
<path d="M26.1531 34.0618C25.562 30.265 25.562 30.265 28.7712 28.7463C30.967 27.8182 33.6695 27.3963 36.7943 27.4807C40.1724 27.6495 42.1149 28.2401 43.3817 29.4213C44.7329 30.6025 45.1552 31.8681 44.9863 33.6399C44.7331 36.0853 44.6486 36.0867 39.6744 36.171L39.6657 36.1711C36.6254 36.2555 33.1628 36.9305 31.0514 37.943C28.9401 38.8711 27.3355 39.2085 27.1666 38.7023C26.9132 38.1961 26.4909 36.1711 26.1531 34.0618Z" stroke="#222B52" stroke-width="2.1934"/>
<path d="M4.78639 22.0808C5.37757 21.2371 7.40445 20.2246 9.26243 19.8028C11.1204 19.3809 13.9918 18.959 15.5964 18.959C17.2011 18.8747 19.059 19.2965 19.5658 19.8871C20.1569 20.4777 20.8326 22.334 21.6771 26.8901L16.2721 27.3963C13.4007 27.6495 9.76915 28.4932 8.41789 29.2525C6.47546 30.3494 5.63093 30.4338 4.78639 29.59C4.19522 28.9994 3.77295 27.3963 3.77295 26.0464C3.77295 24.612 4.19522 22.8402 4.78639 22.0808Z" stroke="#222B52" stroke-width="2.1934"/>
<path d="M25.4775 18.284C26.8288 17.4403 29.1935 16.5122 30.7981 16.2591C32.4027 15.9216 34.514 15.9216 35.443 16.0903C36.372 16.3435 37.9766 17.3559 39.0745 18.3684C40.3413 19.4653 40.9325 20.8996 40.7636 22.2496C40.5102 24.1902 40.088 24.3589 35.0208 24.8651C31.9804 25.1183 28.6867 25.7932 27.5888 26.2995C26.5754 26.8901 25.562 27.312 25.3086 27.312C25.0552 27.312 24.5485 25.8776 24.0418 24.1058C23.6195 22.4183 23.1973 20.7309 23.1973 20.309C23.1973 19.9715 24.2107 19.0434 25.4775 18.284Z" stroke="#222B52" stroke-width="2.1934"/>
<path d="M11.3738 8.07492C12.5561 7.23119 14.0763 6.38746 14.7519 6.13434C15.512 5.79684 16.2721 6.30308 16.9477 7.8218C17.5389 9.00302 18.2145 11.4498 18.9746 16.3435H15.7654C14.0763 16.3435 11.2049 16.7653 9.43134 17.1872C6.81328 17.8622 6.30656 17.7778 6.30656 16.7653C6.30656 16.0904 6.98218 14.1498 7.74227 12.4623C8.5868 10.7749 10.1914 8.83427 11.3738 8.07492Z" stroke="#222B52" stroke-width="2.1934"/>
<path d="M20.917 11.703C20.3258 9.34051 19.8191 6.80932 19.8191 5.96559C19.8191 4.95311 20.4947 4.53125 22.0994 4.53125C23.4506 4.53125 25.8998 4.95311 27.5888 5.37498C29.4468 5.88122 31.5582 7.23119 32.4872 8.49678C33.5006 9.84675 34.2607 11.1967 34.2607 11.703C34.1762 12.1248 31.8115 13.306 28.9401 14.1498C25.9842 15.0779 23.2817 15.8372 22.8594 15.8372C22.4372 15.9216 21.5082 13.981 20.917 11.703Z" stroke="#222B52" stroke-width="2.1934"/>
</svg>
