<svg width="71" height="64" viewBox="0 0 71 64" fill="none" xmlns="http://www.w3.org/2000/svg">
<path d="M39.9196 5.47032C41.0175 5.47032 43.0444 4.45784 44.5646 3.27662C46.6759 1.58916 47.8583 1.25167 49.8007 1.58916C51.2364 1.84228 53.9389 2.34852 55.7969 2.60164C57.6549 2.93913 60.7797 4.2891 62.8065 5.55469C64.749 6.90466 67.1137 9.2671 68.0427 10.7014C68.9717 12.2202 69.7317 14.8357 69.7317 16.4388C69.7317 18.0419 68.9717 20.6575 68.0427 22.0918C67.1137 23.6105 66.3536 25.6355 66.3536 26.5636C66.3536 27.4917 65.4246 28.6729 64.2423 29.2635C62.4687 30.1916 62.0465 30.951 62.1309 33.4822C62.1309 36.5196 61.8776 36.7727 58.1616 38.4602C55.8814 39.4726 53.8545 40.7382 53.5167 41.2445C53.1788 41.7507 52.841 42.9319 52.841 43.86C52.9255 44.7881 52.1654 46.56 51.152 47.8256C50.223 49.1755 48.7873 50.188 48.0272 50.188C47.1826 50.188 45.2402 51.7067 43.8045 53.5629C41.4398 56.4316 40.5108 56.9378 37.8928 56.9378C35.5281 57.0222 33.9234 57.6972 31.981 59.469C30.4608 60.9034 28.3495 62.0002 27.3361 62.0002C26.2382 62.0846 24.4646 61.3252 23.2823 60.4815C21.7621 59.3003 19.3974 58.7097 15.0903 58.5409C9.60082 58.2034 8.67183 57.9503 6.39158 55.6722C4.3647 53.6473 3.68907 52.0442 2 41.3288L5.12478 35.4227C6.81385 32.1322 9.0941 28.6729 10.1075 27.576C11.0365 26.5636 12.3033 25.7198 12.7256 25.7198C13.2323 25.7198 14.3302 24.2855 15.2592 22.5137C16.1882 20.8262 18.1306 18.8013 19.5663 18.1263C20.9176 17.4513 23.4512 15.4263 25.0558 13.7389C26.8293 11.7983 28.7718 10.5327 30.0386 10.5327C31.2209 10.5327 33.5012 9.35148 35.1058 8.00151C36.7104 6.56717 38.8217 5.47032 39.9196 5.47032Z" fill="#222B52" stroke="#222B52" stroke-width="2.1934"/>
<path d="M5.547 47.6568C4.95583 44.4507 4.95583 42.1726 5.63145 40.3164V40.232C6.05372 38.7977 6.8138 37.5321 7.32052 37.5321C7.74279 37.5321 8.08061 38.0383 8.08061 38.5445C8.08061 39.1352 9.1785 41.9195 10.4453 44.7038C11.7966 47.4881 14.0768 51.2005 18.215 56.0941H14.4146C11.6277 56.0941 10.023 55.5879 8.50287 54.1535C7.06716 52.888 6.13817 50.7786 5.547 47.6568Z" fill="#FCFCFC"/>
<path d="M9.68522 33.9884C9.60077 32.9759 10.1919 31.2041 11.0365 30.1916C11.7966 29.1791 12.9789 28.3354 13.739 28.3354C14.7524 28.3354 15.2592 29.1791 15.4281 31.0354C15.597 32.6384 17.7928 37.0258 20.6642 41.4132C23.3667 45.5475 27.2516 50.5255 32.9944 55.5879L30.7142 57.6128C29.3629 58.6253 27.8427 59.5534 27.336 59.5534C26.7448 59.6378 24.1268 57.6128 21.5087 55.166C18.8907 52.7192 16.0192 49.513 15.0903 48.1631C14.1613 46.7287 12.5566 43.4382 11.5432 40.7382C10.6142 38.1227 9.76968 35.0853 9.68522 33.9884Z" fill="#FCFCFC"/>
<path d="M17.6239 23.6949C18.0461 22.7668 19.0596 21.5012 19.7352 20.9106C20.4953 20.4044 21.5932 19.8981 22.1843 19.8981C22.7755 19.8981 23.7045 21.5012 24.2112 23.4418C24.718 25.4667 26.407 29.5166 28.0116 32.5541C29.5318 35.5915 32.0654 39.3883 33.5856 40.9914C35.1057 42.6788 37.8083 45.1256 39.5818 46.4756C42.5376 48.8381 42.7066 49.1755 41.9465 51.2849C41.4398 52.6348 40.3419 53.9004 39.5818 54.2379C38.6528 54.5754 36.5414 53.9004 34.3457 52.7192C32.3188 51.6224 29.2784 48.7537 27.5049 46.4756C25.7314 44.1132 22.9444 40.0633 21.2554 37.3633C19.5663 34.7478 17.8772 30.951 17.4549 28.926C17.0327 26.7323 17.0327 24.7074 17.6239 23.6949Z" fill="#FCFCFC"/>
<path d="M26.1537 20.32C25.6469 17.5357 25.9003 16.6076 27.4205 15.0045C28.3495 13.992 29.7852 13.1483 30.4608 13.1483C31.2209 13.1483 32.1499 14.4982 32.6566 16.2701C33.2478 18.0419 34.7679 21.7543 36.2036 24.5386C37.6393 27.4073 41.2708 32.1322 44.5645 35.5071C47.7738 38.7977 50.3074 42.1726 50.3074 43.1007C50.3074 44.0288 49.8851 45.4631 49.2939 46.3912C48.5338 47.4881 47.6049 47.8256 46.0847 47.4881C44.9023 47.235 41.4398 44.6194 38.3994 41.6663C34.3457 37.7852 31.981 34.579 29.7852 30.0229C28.0961 26.5636 26.407 22.1762 26.1537 20.32Z" fill="#FCFCFC"/>
<path d="M34.1767 12.7264L36.5414 10.364C37.7238 9.09837 39.4973 8.0859 40.3419 8.0859C41.3553 8.0859 42.1998 9.09837 42.8755 11.2077C43.3822 12.9795 44.649 15.7638 45.6624 17.3669C46.6759 18.97 50.2229 23.1887 53.6011 26.648C56.8947 30.1072 59.5973 33.4822 59.5973 33.9884C59.5973 34.579 57.9082 35.8446 55.7969 36.7727C52.0809 38.4602 51.912 38.4602 49.7162 36.8571C48.3649 36.0134 46.0847 33.8197 44.4801 32.0478C42.8755 30.1916 40.7641 27.4073 39.7507 25.8042C38.7372 24.2011 37.0482 20.5731 34.1767 12.7264Z" fill="#FCFCFC"/>
<path d="M55.8813 9.77336C55.1212 8.59214 54.5301 7.1578 54.5301 6.56718C54.5301 6.06095 55.1212 5.55471 55.7969 5.55471C56.4725 5.55471 58.0771 6.06095 59.4284 6.73593C60.6952 7.32654 62.9754 9.26712 64.4956 10.9546C66.1846 12.8108 67.1981 14.8357 67.1981 16.2701C67.1981 17.62 66.8603 19.1388 66.5225 19.645C66.1002 20.4044 64.58 19.3075 61.6241 16.2701C59.2594 13.9076 56.6414 10.9546 55.8813 9.77336Z" fill="#FCFCFC"/>
<path d="M45.3246 10.1952C44.4801 7.1578 44.5645 6.65156 46.1692 5.30159C47.1826 4.54223 48.5338 3.86725 49.125 3.86725C49.8007 3.86725 51.3208 6.06095 52.5876 8.67651C53.8544 11.3764 56.8948 15.6795 59.3439 18.2107C61.8775 20.9106 63.7355 23.6105 63.8199 24.7074C63.8199 26.0573 63.1443 26.9011 61.5397 27.4917C59.3439 28.3354 58.8372 28.0823 55.1212 24.3699C52.841 22.1762 49.9696 18.8013 48.6183 16.9451C47.3515 15.0889 45.8313 12.0514 45.3246 10.1952Z" fill="#FCFCFC"/>
<path d="M5.547 47.6568C4.95583 44.4507 4.95583 42.1726 5.63145 40.3164V40.232C6.05372 38.7977 6.8138 37.5321 7.32052 37.5321C7.74279 37.5321 8.08061 38.0383 8.08061 38.5445C8.08061 39.1352 9.1785 41.9195 10.4453 44.7038C11.7966 47.4881 14.0768 51.2005 18.215 56.0941H14.4146C11.6277 56.0941 10.023 55.5879 8.50287 54.1535C7.06716 52.888 6.13817 50.7786 5.547 47.6568Z" stroke="#222B52" stroke-width="2.1934"/>
<path d="M9.68522 33.9884C9.60077 32.9759 10.1919 31.2041 11.0365 30.1916C11.7966 29.1791 12.9789 28.3354 13.739 28.3354C14.7524 28.3354 15.2592 29.1791 15.4281 31.0354C15.597 32.6384 17.7928 37.0258 20.6642 41.4132C23.3667 45.5475 27.2516 50.5255 32.9944 55.5879L30.7142 57.6128C29.3629 58.6253 27.8427 59.5534 27.336 59.5534C26.7448 59.6378 24.1268 57.6128 21.5087 55.166C18.8907 52.7192 16.0192 49.513 15.0903 48.1631C14.1613 46.7287 12.5566 43.4382 11.5432 40.7382C10.6142 38.1227 9.76968 35.0853 9.68522 33.9884Z" stroke="#222B52" stroke-width="2.1934"/>
<path d="M17.6239 23.6949C18.0461 22.7668 19.0596 21.5012 19.7352 20.9106C20.4953 20.4044 21.5932 19.8981 22.1843 19.8981C22.7755 19.8981 23.7045 21.5012 24.2112 23.4418C24.718 25.4667 26.407 29.5166 28.0116 32.5541C29.5318 35.5915 32.0654 39.3883 33.5856 40.9914C35.1057 42.6788 37.8083 45.1256 39.5818 46.4756C42.5376 48.8381 42.7066 49.1755 41.9465 51.2849C41.4398 52.6348 40.3419 53.9004 39.5818 54.2379C38.6528 54.5754 36.5414 53.9004 34.3457 52.7192C32.3188 51.6224 29.2784 48.7537 27.5049 46.4756C25.7314 44.1132 22.9444 40.0633 21.2554 37.3633C19.5663 34.7478 17.8772 30.951 17.4549 28.926C17.0327 26.7323 17.0327 24.7074 17.6239 23.6949Z" stroke="#222B52" stroke-width="2.1934"/>
<path d="M26.1537 20.32C25.6469 17.5357 25.9003 16.6076 27.4205 15.0045C28.3495 13.992 29.7852 13.1483 30.4608 13.1483C31.2209 13.1483 32.1499 14.4982 32.6566 16.2701C33.2478 18.0419 34.7679 21.7543 36.2036 24.5386C37.6393 27.4073 41.2708 32.1322 44.5645 35.5071C47.7738 38.7977 50.3074 42.1726 50.3074 43.1007C50.3074 44.0288 49.8851 45.4631 49.2939 46.3912C48.5338 47.4881 47.6049 47.8256 46.0847 47.4881C44.9023 47.235 41.4398 44.6194 38.3994 41.6663C34.3457 37.7852 31.981 34.579 29.7852 30.0229C28.0961 26.5636 26.407 22.1762 26.1537 20.32Z" stroke="#222B52" stroke-width="2.1934"/>
<path d="M34.1767 12.7264L36.5414 10.364C37.7238 9.09837 39.4973 8.0859 40.3419 8.0859C41.3553 8.0859 42.1998 9.09837 42.8755 11.2077C43.3822 12.9795 44.649 15.7638 45.6624 17.3669C46.6759 18.97 50.2229 23.1887 53.6011 26.648C56.8947 30.1072 59.5973 33.4822 59.5973 33.9884C59.5973 34.579 57.9082 35.8446 55.7969 36.7727C52.0809 38.4602 51.912 38.4602 49.7162 36.8571C48.3649 36.0134 46.0847 33.8197 44.4801 32.0478C42.8755 30.1916 40.7641 27.4073 39.7507 25.8042C38.7372 24.2011 37.0482 20.5731 34.1767 12.7264Z" stroke="#222B52" stroke-width="2.1934"/>
<path d="M55.8813 9.77336C55.1212 8.59214 54.5301 7.1578 54.5301 6.56718C54.5301 6.06095 55.1212 5.55471 55.7969 5.55471C56.4725 5.55471 58.0771 6.06095 59.4284 6.73593C60.6952 7.32654 62.9754 9.26712 64.4956 10.9546C66.1846 12.8108 67.1981 14.8357 67.1981 16.2701C67.1981 17.62 66.8603 19.1388 66.5225 19.645C66.1002 20.4044 64.58 19.3075 61.6241 16.2701C59.2594 13.9076 56.6414 10.9546 55.8813 9.77336Z" stroke="#222B52" stroke-width="2.1934"/>
<path d="M45.3246 10.1952C44.4801 7.1578 44.5645 6.65156 46.1692 5.30159C47.1826 4.54223 48.5338 3.86725 49.125 3.86725C49.8007 3.86725 51.3208 6.06095 52.5876 8.67651C53.8544 11.3764 56.8948 15.6795 59.3439 18.2107C61.8775 20.9106 63.7355 23.6105 63.8199 24.7074C63.8199 26.0573 63.1443 26.9011 61.5397 27.4917C59.3439 28.3354 58.8372 28.0823 55.1212 24.3699C52.841 22.1762 49.9696 18.8013 48.6183 16.9451C47.3515 15.0889 45.8313 12.0514 45.3246 10.1952Z" stroke="#222B52" stroke-width="2.1934"/>
</svg>
