<svg width="62" height="57" viewBox="0 0 62 57" fill="none" xmlns="http://www.w3.org/2000/svg">
<path d="M24.1188 5.42454C25.0478 4.66518 27.0747 3.39959 28.6793 2.7246C30.4528 1.96524 34.2532 1.45901 38.1381 1.37463C42.9519 1.37463 45.57 1.7965 47.8502 2.97772C49.6238 3.82145 52.4952 6.09952 54.1843 8.0401C55.9578 9.89631 57.9847 12.9337 58.6603 14.7056C59.4204 16.393 59.9271 19.8523 59.9271 22.2991C59.9271 25.8428 59.5048 27.1084 57.8158 28.7959C56.7179 29.9771 55.1977 30.9052 54.4376 30.9052C53.762 30.9052 53.1708 31.5802 53.1708 32.4239C53.1708 33.1833 52.6641 34.6176 52.0729 35.5457C51.3973 36.4738 49.5393 37.9081 47.8502 38.7519C46.0767 39.5112 44.3876 41.0299 44.0498 42.1268C43.6276 43.1393 42.1919 44.8267 40.8406 45.9236C39.4893 46.936 37.4625 47.7798 36.2801 47.7798C34.8726 47.7798 33.5213 48.6235 32.2263 50.311C31.2129 51.6609 29.1016 53.4328 27.6658 54.1921C25.3856 55.289 23.5276 55.4577 17.2781 54.8671C11.7886 54.3609 9.00162 53.6859 7.22809 52.5047C5.87684 51.4922 3.9344 49.636 3.00542 48.3704C1.48525 46.2611 1.23189 44.9955 1.48525 38.2456C1.65416 31.5802 1.99197 30.2302 3.59659 28.5427C5.0323 27.024 5.37011 25.7584 5.20121 23.0585C4.94785 20.0211 5.20121 19.1773 7.31255 17.3211C8.57935 16.1399 10.4373 14.9587 11.3663 14.6212C12.2953 14.2837 13.8999 12.765 14.8289 11.2463C15.9268 9.64319 17.8692 8.29322 19.6428 7.70261C21.2474 7.28074 23.2743 6.18389 24.1188 5.42454Z" fill="#222B52" stroke="#222B52" stroke-width="2.1934"/>
<path d="M4.01882 43.5611C3.76546 41.9581 3.76546 40.1019 3.93437 39.5956C4.18773 39.005 4.61 38.4988 4.86336 38.4988C5.20117 38.4144 6.80579 39.8487 8.41041 41.6206C10.015 43.3924 12.1264 46.2611 13.0553 47.9485C13.9843 49.636 14.5755 51.3235 14.3222 51.5766C14.0688 51.8297 12.802 51.7453 11.3663 51.4078C9.93057 51.0703 7.90368 49.8047 6.72133 48.6235C5.53899 47.4423 4.35664 45.1642 4.01882 43.5611Z" fill="#FCFCFC"/>
<path d="M4.18773 33.2676C4.18773 32.4239 4.44109 31.1583 4.7789 30.399C5.20117 29.3865 6.04571 29.2177 8.32595 29.6396C10.015 29.9771 13.2243 31.2427 15.5045 32.4239C17.7847 33.6895 21.1629 36.052 23.0209 37.655C24.8788 39.2581 27.4969 42.0424 28.8482 43.8143C30.3683 45.8392 30.9595 47.3579 30.5372 48.286C30.1994 49.0454 28.8482 50.3954 27.4124 51.2391C25.9767 52.0828 23.612 52.8422 22.0919 52.8422C20.2339 52.8422 18.9671 52.2516 18.1226 50.986C17.3625 49.8891 15.2511 46.6829 13.4776 43.8143C11.6196 40.8612 8.74822 37.655 7.1436 36.6426C5.53899 35.5457 4.18773 34.027 4.18773 33.2676Z" fill="#FCFCFC"/>
<path d="M7.48142 21.6242C7.56587 20.9492 8.49486 19.6836 9.5083 18.8399C10.944 17.5743 12.1264 17.4055 14.7444 17.8274C16.6024 18.0805 20.1494 19.5148 22.6831 21.0336C25.1322 22.5523 30.5372 27.2772 34.6755 31.5802C41.6006 38.6675 42.1074 39.5112 41.1784 41.2831C40.6717 42.2956 39.6582 43.5611 38.8981 44.1518C38.138 44.7424 36.7023 45.2486 35.6044 45.2486C34.3376 45.2486 31.6351 43.0549 27.1591 38.5831C23.5276 34.8707 18.7982 31.0739 16.4335 29.8927C14.0688 28.7115 11.1974 27.5303 9.84612 27.1928C8.2415 26.8553 7.56587 26.0959 7.48142 24.8303C7.39696 23.7335 7.39696 22.2992 7.48142 21.6242Z" fill="#FCFCFC"/>
<path d="M16.0112 14.2837C16.0112 13.6931 16.7713 12.4275 17.7003 11.4994C18.6293 10.5713 19.8961 9.81195 20.4028 9.81195C20.994 9.81195 23.612 10.4869 26.1456 11.3307C28.6793 12.2588 32.9019 14.0306 35.4355 15.2962C37.9691 16.6462 41.7696 19.2617 43.8809 21.2023C45.9922 23.2273 48.4414 26.3491 49.3704 28.2896C50.6372 31.0739 50.8061 32.1708 50.1304 33.2676C49.6237 34.027 47.9347 35.4613 43.6275 38.0769L41.4317 35.1238C40.2494 33.5208 37.0401 29.8927 34.2532 27.1084C31.3818 24.3241 27.2435 20.7804 24.8788 19.2617C22.5141 17.743 19.6427 16.2243 18.2915 15.8868C17.0247 15.5493 16.0112 14.79 16.0112 14.2837Z" fill="#FCFCFC"/>
<path d="M25.9767 8.37761C25.8923 8.12449 26.5679 7.11202 27.4124 6.26829C28.5103 5.17144 30.1994 4.74957 33.2397 4.74957C36.449 4.74957 39.067 5.42456 43.6275 7.70263C48.8636 10.1494 50.3838 11.4994 53.593 15.8868C55.8733 19.0086 57.4779 22.046 57.3935 23.3116C57.3935 24.4929 56.7178 26.0959 55.8733 26.9397C55.1132 27.7834 53.9309 28.4584 53.3397 28.374C52.833 28.374 51.8195 27.3615 51.1439 26.0959C50.5527 24.746 48.188 21.8773 45.9078 19.6836C43.4586 17.3211 38.9826 14.1993 35.0133 12.2588C31.2973 10.4026 27.7503 8.96822 27.1591 8.96822C26.6524 8.96822 26.0612 8.7151 25.9767 8.37761Z" fill="#FCFCFC"/>
<path d="M4.01882 43.5611C3.76546 41.9581 3.76546 40.1019 3.93437 39.5956C4.18773 39.005 4.61 38.4988 4.86336 38.4988C5.20117 38.4144 6.80579 39.8487 8.41041 41.6206C10.015 43.3924 12.1264 46.2611 13.0553 47.9485C13.9843 49.636 14.5755 51.3235 14.3222 51.5766C14.0688 51.8297 12.802 51.7453 11.3663 51.4078C9.93057 51.0703 7.90368 49.8047 6.72133 48.6235C5.53899 47.4423 4.35664 45.1642 4.01882 43.5611Z" stroke="#222B52" stroke-width="2.1934"/>
<path d="M4.18773 33.2676C4.18773 32.4239 4.44109 31.1583 4.7789 30.399C5.20117 29.3865 6.04571 29.2177 8.32595 29.6396C10.015 29.9771 13.2243 31.2427 15.5045 32.4239C17.7847 33.6895 21.1629 36.052 23.0209 37.655C24.8788 39.2581 27.4969 42.0424 28.8482 43.8143C30.3683 45.8392 30.9595 47.3579 30.5372 48.286C30.1994 49.0454 28.8482 50.3954 27.4124 51.2391C25.9767 52.0828 23.612 52.8422 22.0919 52.8422C20.2339 52.8422 18.9671 52.2516 18.1226 50.986C17.3625 49.8891 15.2511 46.6829 13.4776 43.8143C11.6196 40.8612 8.74822 37.655 7.1436 36.6426C5.53899 35.5457 4.18773 34.027 4.18773 33.2676Z" stroke="#222B52" stroke-width="2.1934"/>
<path d="M7.48142 21.6242C7.56587 20.9492 8.49486 19.6836 9.5083 18.8399C10.944 17.5743 12.1264 17.4055 14.7444 17.8274C16.6024 18.0805 20.1494 19.5148 22.6831 21.0336C25.1322 22.5523 30.5372 27.2772 34.6755 31.5802C41.6006 38.6675 42.1074 39.5112 41.1784 41.2831C40.6717 42.2956 39.6582 43.5611 38.8981 44.1518C38.138 44.7424 36.7023 45.2486 35.6044 45.2486C34.3376 45.2486 31.6351 43.0549 27.1591 38.5831C23.5276 34.8707 18.7982 31.0739 16.4335 29.8927C14.0688 28.7115 11.1974 27.5303 9.84612 27.1928C8.2415 26.8553 7.56587 26.0959 7.48142 24.8303C7.39696 23.7335 7.39696 22.2992 7.48142 21.6242Z" stroke="#222B52" stroke-width="2.1934"/>
<path d="M16.0112 14.2837C16.0112 13.6931 16.7713 12.4275 17.7003 11.4994C18.6293 10.5713 19.8961 9.81195 20.4028 9.81195C20.994 9.81195 23.612 10.4869 26.1456 11.3307C28.6793 12.2588 32.9019 14.0306 35.4355 15.2962C37.9691 16.6462 41.7696 19.2617 43.8809 21.2023C45.9922 23.2273 48.4414 26.3491 49.3704 28.2896C50.6372 31.0739 50.8061 32.1708 50.1304 33.2676C49.6237 34.027 47.9347 35.4613 43.6275 38.0769L41.4317 35.1238C40.2494 33.5208 37.0401 29.8927 34.2532 27.1084C31.3818 24.3241 27.2435 20.7804 24.8788 19.2617C22.5141 17.743 19.6427 16.2243 18.2915 15.8868C17.0247 15.5493 16.0112 14.79 16.0112 14.2837Z" stroke="#222B52" stroke-width="2.1934"/>
<path d="M25.9767 8.37761C25.8923 8.12449 26.5679 7.11202 27.4124 6.26829C28.5103 5.17144 30.1994 4.74957 33.2397 4.74957C36.449 4.74957 39.067 5.42456 43.6275 7.70263C48.8636 10.1494 50.3838 11.4994 53.593 15.8868C55.8733 19.0086 57.4779 22.046 57.3935 23.3116C57.3935 24.4929 56.7178 26.0959 55.8733 26.9397C55.1132 27.7834 53.9309 28.4584 53.3397 28.374C52.833 28.374 51.8195 27.3615 51.1439 26.0959C50.5527 24.746 48.188 21.8773 45.9078 19.6836C43.4586 17.3211 38.9826 14.1993 35.0133 12.2588C31.2973 10.4026 27.7503 8.96822 27.1591 8.96822C26.6524 8.96822 26.0612 8.7151 25.9767 8.37761Z" stroke="#222B52" stroke-width="2.1934"/>
</svg>
