<svg width="62" height="43" viewBox="0 0 62 43" fill="none" xmlns="http://www.w3.org/2000/svg">
<path d="M12.6738 4.66128C14.0251 3.39569 16.4742 2.13009 18.1633 1.7926C19.9368 1.53948 23.146 1.37074 25.5107 1.53948C27.791 1.70823 32.1826 2.21447 35.2229 2.63633C38.2632 3.0582 41.6414 3.90193 42.8237 4.49254C44.0061 5.08315 46.6241 6.09562 48.7355 6.68624C51.1002 7.36122 53.5493 8.87993 55.2384 10.7361C57.2653 12.9298 58.0254 14.6173 58.0254 16.7266C58.0254 18.3297 58.701 20.7765 59.4611 22.1265C60.8123 24.2358 60.8123 24.9952 59.8833 28.0326C59.3766 29.9732 57.9409 32.5044 56.843 33.77C55.7451 35.1199 53.3804 36.723 51.6069 37.4824C49.8334 38.2417 46.2019 39.5073 43.6683 40.2667C40.0368 41.3635 37.1653 41.5323 31.0002 41.1104C25.4263 40.6885 22.2171 40.0979 20.4435 39.0011C19.0923 38.1574 17.4032 37.398 16.812 37.398C16.3053 37.398 14.4473 36.723 12.7583 35.8793C10.6469 34.9512 8.45113 32.5887 6.00198 28.9607C4.05955 25.9233 2.20157 22.2952 1.94821 20.9453C1.6104 19.5109 1.7793 17.0641 2.28603 15.461C2.79275 13.8579 4.31291 11.2424 5.83307 9.72366C7.26878 8.28932 8.8734 7.02373 9.38012 7.02373C9.88684 7.02373 11.407 5.92688 12.6738 4.66128Z" fill="#222B52" stroke="#222B52" stroke-width="2.1934"/>
<path d="M53.3804 29.9732C54.985 27.6107 56.3363 24.9108 56.3363 24.1514V24.067C56.3363 22.8858 56.5052 22.8015 57.0964 23.8983C57.5186 24.6577 57.5186 26.1764 57.0964 27.6951C56.6741 29.0451 55.2384 31.3231 53.8027 32.7575C52.4514 34.1074 51.1002 35.1199 50.8468 34.8668C50.5934 34.6137 51.6913 32.42 53.3804 29.9732Z" fill="#FCFCFC"/>
<path d="M4.81963 16.3891C5.32635 14.786 6.3398 12.7611 7.09988 11.9173C7.85996 11.158 8.95786 10.483 9.54903 10.483C10.2247 10.483 10.7314 10.9892 10.7314 11.4955C10.7314 12.0861 9.63348 14.3642 8.19777 16.5578C6.84652 18.8359 5.32635 20.6078 4.81963 20.6078C4.31291 20.6078 3.9751 20.3546 3.9751 19.9328C3.9751 19.5953 4.39737 17.9922 4.81963 16.3891Z" fill="#FCFCFC"/>
<path d="M45.864 14.7016C46.033 11.6642 46.2019 9.13303 46.2019 8.96428C46.2019 8.87991 46.3708 8.79553 46.6241 8.79553C46.8775 8.79553 48.3977 9.38614 50.0023 10.0611C51.6069 10.7361 53.5493 12.1705 54.225 13.1829C55.3228 14.786 55.3228 15.8829 54.5628 19.764C54.056 22.2952 53.1271 25.3326 52.5359 26.5139C51.9447 27.6951 50.4245 29.8888 49.0733 31.4919C47.722 33.095 45.104 35.4574 43.246 36.8074C41.1347 38.3261 38.8544 39.1698 34.3784 39.1698L37.5032 35.1199C39.1922 32.9262 41.7258 28.7076 43.0771 25.6701C44.9351 21.7046 45.6951 18.6672 45.864 14.7016Z" fill="#FCFCFC"/>
<path d="M31.7603 21.8733C32.8582 19.089 33.9561 14.2798 34.125 11.0736C34.4628 6.60184 34.8851 5.42061 35.983 5.42061C36.7431 5.42061 38.601 5.75811 40.0368 6.26434C42.4859 7.0237 42.9082 7.52994 43.3304 10.6517C43.5838 12.6767 43.3304 16.136 42.8237 18.4984C42.317 20.7765 40.6279 24.9108 39.1922 27.6951C37.6721 30.395 35.054 33.9387 33.3649 35.4574C31.0002 37.5667 29.3956 38.3261 27.1998 38.3261C25.5952 38.3261 23.4839 37.9886 22.5549 37.4823C20.9503 36.723 21.1192 36.3011 25.3418 31.745C28.1288 28.7076 30.4935 25.0795 31.7603 21.8733Z" fill="#FCFCFC"/>
<path d="M13.0961 10.7361C13.0116 8.79553 13.6028 7.52994 14.9541 6.26434C16.052 5.33624 17.741 4.57688 18.7545 4.57688C20.2746 4.57688 20.4435 4.99875 20.2746 7.9518C20.1057 9.80801 19.2612 12.9298 18.3322 14.8704C17.4877 16.8953 15.2074 20.2703 13.265 22.464C11.407 24.742 9.38012 26.5139 8.78895 26.5139C8.28223 26.5982 7.18433 26.0076 6.5087 25.2483C5.41081 24.067 5.49526 23.6452 7.43769 21.6202C8.7045 20.3546 10.478 17.9922 11.4915 16.3891C12.4205 14.786 13.1805 12.2548 13.0961 10.7361Z" fill="#FCFCFC"/>
<path d="M22.9771 9.2174C23.315 7.36119 23.6528 5.33624 23.9061 4.74563C24.075 4.23939 25.0885 3.73315 26.1019 3.73315C27.1998 3.73315 28.9733 4.40814 30.0712 5.1675C31.9292 6.60184 32.0981 7.10807 31.5914 11.7486C31.338 14.5329 30.4935 18.3297 29.649 20.1859C28.8889 22.0421 27.1998 25.1639 25.8486 27.1045C24.4973 29.1294 21.9637 31.6606 20.1902 32.8418C17.741 34.5293 16.6431 34.8668 14.9541 34.1918C13.7717 33.7699 12.0826 32.6731 9.46458 29.8888L13.7717 25.5014C16.1364 23.0546 19.0078 19.089 20.1902 16.811C21.3725 14.4485 22.6393 11.0736 22.9771 9.2174Z" fill="#FCFCFC"/>
<path d="M53.3804 29.9732C54.985 27.6107 56.3363 24.9108 56.3363 24.1514V24.067C56.3363 22.8858 56.5052 22.8015 57.0964 23.8983C57.5186 24.6577 57.5186 26.1764 57.0964 27.6951C56.6741 29.0451 55.2384 31.3231 53.8027 32.7575C52.4514 34.1074 51.1002 35.1199 50.8468 34.8668C50.5934 34.6137 51.6913 32.42 53.3804 29.9732Z" stroke="#222B52" stroke-width="2.1934"/>
<path d="M4.81963 16.3891C5.32635 14.786 6.3398 12.7611 7.09988 11.9173C7.85996 11.158 8.95786 10.483 9.54903 10.483C10.2247 10.483 10.7314 10.9892 10.7314 11.4955C10.7314 12.0861 9.63348 14.3642 8.19777 16.5578C6.84652 18.8359 5.32635 20.6078 4.81963 20.6078C4.31291 20.6078 3.9751 20.3546 3.9751 19.9328C3.9751 19.5953 4.39737 17.9922 4.81963 16.3891Z" stroke="#222B52" stroke-width="2.1934"/>
<path d="M45.864 14.7016C46.033 11.6642 46.2019 9.13303 46.2019 8.96428C46.2019 8.87991 46.3708 8.79553 46.6241 8.79553C46.8775 8.79553 48.3977 9.38614 50.0023 10.0611C51.6069 10.7361 53.5493 12.1705 54.225 13.1829C55.3228 14.786 55.3228 15.8829 54.5628 19.764C54.056 22.2952 53.1271 25.3326 52.5359 26.5139C51.9447 27.6951 50.4245 29.8888 49.0733 31.4919C47.722 33.095 45.104 35.4574 43.246 36.8074C41.1347 38.3261 38.8544 39.1698 34.3784 39.1698L37.5032 35.1199C39.1922 32.9262 41.7258 28.7076 43.0771 25.6701C44.9351 21.7046 45.6951 18.6672 45.864 14.7016Z" stroke="#222B52" stroke-width="2.1934"/>
<path d="M31.7603 21.8733C32.8582 19.089 33.9561 14.2798 34.125 11.0736C34.4628 6.60184 34.8851 5.42061 35.983 5.42061C36.7431 5.42061 38.601 5.75811 40.0368 6.26434C42.4859 7.0237 42.9082 7.52994 43.3304 10.6517C43.5838 12.6767 43.3304 16.136 42.8237 18.4984C42.317 20.7765 40.6279 24.9108 39.1922 27.6951C37.6721 30.395 35.054 33.9387 33.3649 35.4574C31.0002 37.5667 29.3956 38.3261 27.1998 38.3261C25.5952 38.3261 23.4839 37.9886 22.5549 37.4823C20.9503 36.723 21.1192 36.3011 25.3418 31.745C28.1288 28.7076 30.4935 25.0795 31.7603 21.8733Z" stroke="#222B52" stroke-width="2.1934"/>
<path d="M13.0961 10.7361C13.0116 8.79553 13.6028 7.52994 14.9541 6.26434C16.052 5.33624 17.741 4.57688 18.7545 4.57688C20.2746 4.57688 20.4435 4.99875 20.2746 7.9518C20.1057 9.80801 19.2612 12.9298 18.3322 14.8704C17.4877 16.8953 15.2074 20.2703 13.265 22.464C11.407 24.742 9.38012 26.5139 8.78895 26.5139C8.28223 26.5982 7.18433 26.0076 6.5087 25.2483C5.41081 24.067 5.49526 23.6452 7.43769 21.6202C8.7045 20.3546 10.478 17.9922 11.4915 16.3891C12.4205 14.786 13.1805 12.2548 13.0961 10.7361Z" stroke="#222B52" stroke-width="2.1934"/>
<path d="M22.9771 9.2174C23.315 7.36119 23.6528 5.33624 23.9061 4.74563C24.075 4.23939 25.0885 3.73315 26.1019 3.73315C27.1998 3.73315 28.9733 4.40814 30.0712 5.1675C31.9292 6.60184 32.0981 7.10807 31.5914 11.7486C31.338 14.5329 30.4935 18.3297 29.649 20.1859C28.8889 22.0421 27.1998 25.1639 25.8486 27.1045C24.4973 29.1294 21.9637 31.6606 20.1902 32.8418C17.741 34.5293 16.6431 34.8668 14.9541 34.1918C13.7717 33.7699 12.0826 32.6731 9.46458 29.8888L13.7717 25.5014C16.1364 23.0546 19.0078 19.089 20.1902 16.811C21.3725 14.4485 22.6393 11.0736 22.9771 9.2174Z" stroke="#222B52" stroke-width="2.1934"/>
</svg>
