<svg width="51" height="71" viewBox="0 0 51 71" fill="none" xmlns="http://www.w3.org/2000/svg">
<path d="M12.7821 5.35102C14.3867 4.1698 17.0047 2.73546 18.6093 2.3136C20.214 1.80736 22.3253 1.38549 23.2543 1.38549C24.1833 1.30112 26.3791 1.72299 28.0681 2.14485C29.8417 2.65109 32.3753 3.91668 33.811 5.0979C35.2467 6.27913 36.5979 8.05096 36.9358 9.06344C37.1891 10.1603 38.6248 11.9321 39.9761 13.1133C41.3273 14.2946 43.0164 16.3195 43.692 17.7539C44.4521 19.3569 44.7899 21.2131 44.4521 22.8162C44.0299 24.6724 44.2832 25.6849 45.2967 26.613C46.0567 27.288 47.2391 28.8911 47.8303 30.1567C48.7593 32.0129 48.8437 33.1097 48.0836 35.2191C47.2391 37.4971 47.3235 38.5096 48.5059 40.7033C49.266 42.222 49.8572 44.4157 49.8572 45.5969C49.8572 46.7782 49.3504 48.9719 48.6748 50.4062C47.9992 51.9249 47.0702 54.7936 46.5635 56.7342C46.0567 58.7591 44.3677 61.7122 42.8475 63.3996C41.4118 65.0027 38.4559 67.0277 36.3446 67.787C34.2332 68.5464 30.4328 69.137 27.8992 69.137C25.3656 69.137 22.3253 68.6308 21.143 67.9558C19.9606 67.3652 18.0182 65.9308 16.6669 64.6652C15.4001 63.484 14.3867 61.6278 14.3867 60.531C14.3867 59.3497 13.3732 57.9998 11.6842 56.7342C10.2484 55.7217 8.55938 53.7811 7.9682 52.3468C7.37703 50.9124 7.12367 48.8031 7.29257 47.4531C7.54593 45.8501 7.20812 44.922 6.19468 44.4157C5.35014 44.0782 4.16779 42.6439 3.49216 41.2939C2.64763 39.4377 2.56317 38.2565 3.32326 36.0628C4.08334 33.8691 3.99888 32.8566 2.90099 30.5785C2.05645 28.8911 1.71864 26.9505 2.05645 25.3474C2.39427 23.9131 3.57662 21.5506 4.67451 20.0319C5.85686 18.5976 6.78585 16.657 6.78585 15.8133C6.78585 15.0539 7.46148 12.8602 8.30601 11.004C9.15055 9.14781 11.1774 6.61662 12.7821 5.35102Z" fill="#222B52" stroke="#222B52" stroke-width="2.1934"/>
<path d="M19.2005 57.831C20.5517 57.831 22.9164 57.156 24.5211 56.2279C26.1257 55.3842 27.8147 54.6248 28.237 54.5405C28.5748 54.5405 29.4194 56.7342 30.095 59.5185C30.7706 62.3028 31.2773 64.9183 31.2773 65.4246C31.2773 65.9308 29.5038 66.2683 27.308 66.2683C24.4366 66.2683 22.3253 65.7621 20.2984 64.3277C18.2715 63.0621 17.258 61.7122 17.0891 60.1091C16.9202 58.1685 17.258 57.831 19.2005 57.831Z" fill="#FCFCFC"/>
<path d="M31.6996 55.9748C31.3618 54.6248 32.0374 54.4561 37.0202 54.203H36.9357C40.145 54.0342 43.1008 53.8655 43.6076 53.7811C44.1143 53.6967 44.3676 54.5405 44.1987 55.9748C43.9454 57.2404 43.2697 59.0966 42.5941 60.1935C41.9185 61.2059 40.145 62.809 38.6248 63.7371C37.1891 64.6652 35.4156 65.4246 34.8244 65.4246C34.3177 65.4246 33.3887 63.6527 32.9664 61.459C32.4597 59.181 31.8685 56.7342 31.6996 55.9748Z" fill="#FCFCFC"/>
<path d="M14.2177 46.7781C16.498 46.7781 19.6227 46.2719 21.2274 45.6813C22.832 45.0063 24.69 44.5001 25.1967 44.4157C25.7879 44.4157 26.4635 45.0063 26.6324 45.85C26.8013 46.6094 27.2236 48.2969 27.4769 49.6468C27.8992 51.6718 27.6458 52.0936 24.3521 53.6124C22.4097 54.5405 19.2849 55.2998 17.427 55.2998C15.0623 55.2998 13.4576 54.7092 12.1064 53.3592C11.0085 52.3468 10.2484 50.4906 10.2484 49.225C10.2484 46.9469 10.5018 46.8625 14.2177 46.7781Z" fill="#FCFCFC"/>
<path d="M33.642 43.8251C36.3445 43.7407 39.8916 43.0657 41.4962 42.3907C43.1008 41.6314 44.7054 41.0408 45.0433 41.0408C45.4655 40.9564 46.0567 41.7158 46.5634 42.6439C47.0701 43.572 47.408 45.0063 47.408 45.85C47.4924 46.6094 46.8168 48.2125 45.9723 49.3093C44.7054 50.9968 43.4386 51.3343 38.1181 51.7561C32.4597 52.178 31.6996 52.0093 30.8551 50.5749C30.2639 49.7312 29.5883 47.875 28.7437 43.9095L33.642 43.8251Z" fill="#FCFCFC"/>
<path d="M10.8396 35.0503C13.8799 35.0503 17.0891 34.3753 19.116 33.4472C20.974 32.5191 22.832 31.7597 23.1698 31.7597C23.5921 31.6754 24.1832 33.7003 24.6055 36.1471C25.1967 39.8596 25.1122 40.7033 23.9299 41.6314C23.1698 42.222 20.974 43.0657 19.116 43.572C17.258 44.0782 14.3866 44.247 12.782 43.9938C11.1774 43.7407 8.9816 42.897 7.96816 42.222C6.53245 41.2939 6.02573 40.1127 6.02573 35.0503H10.8396Z" fill="#FCFCFC"/>
<path d="M30.6862 30.3254C33.1353 30.0723 36.2601 29.3973 37.6958 28.7223C39.1315 28.1317 40.7361 27.5411 41.3273 27.5411C41.834 27.4567 43.1008 28.2161 44.0298 29.1442C44.9588 30.0723 45.7189 31.591 45.7189 32.5191C45.7189 33.4472 45.0433 35.3878 44.2832 36.7378C43.4386 38.1721 41.6651 39.6908 40.2294 40.1127C38.7937 40.6189 35.5845 40.9564 28.4059 40.9564L27.3925 36.7378C26.8013 34.4597 26.2946 32.1816 26.2946 31.6754C26.2946 31.1691 28.3215 30.5785 30.6862 30.3254Z" fill="#FCFCFC"/>
<path d="M12.3597 20.7069C14.8089 20.7069 17.258 20.2007 18.2715 19.5257C19.116 18.8507 20.1295 18.5132 20.4673 18.8507C20.7206 19.1882 21.3963 21.2131 21.9874 23.4912C22.4942 25.6849 22.7475 27.7942 22.4942 28.3005C22.2408 28.8067 20.4673 29.9035 18.5249 30.8316C16.498 31.7598 13.2887 32.5191 11.3463 32.5191C8.39043 32.5191 7.37698 32.0972 5.94127 30.241C4.75892 28.6379 4.42111 27.2036 4.75892 25.7693C5.09674 24.588 5.94127 22.985 6.70135 22.1412C7.7148 21.1288 9.31941 20.6225 12.3597 20.7069Z" fill="#FCFCFC"/>
<path d="M30.0105 15.3914C31.3618 14.8008 32.7975 13.8727 33.3042 13.2821C33.9798 12.4383 34.6555 12.5227 36.6824 13.7039C38.1181 14.5477 39.976 16.4882 40.8206 18.007C41.6651 19.4413 42.1718 21.4662 41.9185 22.3944C41.6651 23.3225 39.8916 24.8412 37.9492 25.7693C35.7534 26.6974 32.4597 27.4567 25.45 27.4567L22.9164 17.332L25.2811 16.8257C26.5479 16.5726 28.6593 15.8976 30.0105 15.3914Z" fill="#FCFCFC"/>
<path d="M10.5018 12.9446C11.0929 11.4259 12.782 9.14779 14.1333 7.8822C15.4845 6.53223 17.0891 5.51975 17.5959 5.51975C18.3559 5.51975 18.7782 7.20721 18.9471 10.4134C19.2005 14.4633 18.9471 15.4758 17.5114 16.7414C16.4135 17.6695 14.4711 18.2601 12.5286 18.1757C10.3329 18.1757 9.40387 17.8382 9.40387 16.9101C9.40387 16.2351 9.91059 14.3789 10.5018 12.9446Z" fill="#FCFCFC"/>
<path d="M21.0585 8.8103C20.974 6.70097 21.3118 4.67602 21.7341 4.33853C22.1564 4.00104 23.8454 4.00104 25.45 4.25416C27.0547 4.59165 29.4194 5.35101 30.6862 6.02599C32.0374 6.70097 33.2198 7.46033 33.4731 7.8822C33.642 8.21969 32.7975 9.48528 31.5307 10.8352C30.2639 12.1008 27.7303 13.4508 25.8723 13.9571C23.4232 14.4633 22.3253 14.3789 21.903 13.7039C21.5652 13.1133 21.1429 10.9196 21.0585 8.8103Z" fill="#FCFCFC"/>
<path d="M19.2005 57.831C20.5517 57.831 22.9164 57.156 24.5211 56.2279C26.1257 55.3842 27.8147 54.6248 28.237 54.5405C28.5748 54.5405 29.4194 56.7342 30.095 59.5185C30.7706 62.3028 31.2773 64.9183 31.2773 65.4246C31.2773 65.9308 29.5038 66.2683 27.308 66.2683C24.4366 66.2683 22.3253 65.7621 20.2984 64.3277C18.2715 63.0621 17.258 61.7122 17.0891 60.1091C16.9202 58.1685 17.258 57.831 19.2005 57.831Z" stroke="#222B52" stroke-width="2.1934"/>
<path d="M31.6996 55.9748C31.3618 54.6248 32.0374 54.4561 37.0202 54.203H36.9357C40.145 54.0342 43.1008 53.8655 43.6076 53.7811C44.1143 53.6967 44.3676 54.5405 44.1987 55.9748C43.9454 57.2404 43.2697 59.0966 42.5941 60.1935C41.9185 61.2059 40.145 62.809 38.6248 63.7371C37.1891 64.6652 35.4156 65.4246 34.8244 65.4246C34.3177 65.4246 33.3887 63.6527 32.9664 61.459C32.4597 59.181 31.8685 56.7342 31.6996 55.9748Z" stroke="#222B52" stroke-width="2.1934"/>
<path d="M14.2177 46.7781C16.498 46.7781 19.6227 46.2719 21.2274 45.6813C22.832 45.0063 24.69 44.5001 25.1967 44.4157C25.7879 44.4157 26.4635 45.0063 26.6324 45.85C26.8013 46.6094 27.2236 48.2969 27.4769 49.6468C27.8992 51.6718 27.6458 52.0936 24.3521 53.6124C22.4097 54.5405 19.2849 55.2998 17.427 55.2998C15.0623 55.2998 13.4576 54.7092 12.1064 53.3592C11.0085 52.3468 10.2484 50.4906 10.2484 49.225C10.2484 46.9469 10.5018 46.8625 14.2177 46.7781Z" stroke="#222B52" stroke-width="2.1934"/>
<path d="M33.642 43.8251C36.3445 43.7407 39.8916 43.0657 41.4962 42.3907C43.1008 41.6314 44.7054 41.0408 45.0433 41.0408C45.4655 40.9564 46.0567 41.7158 46.5634 42.6439C47.0701 43.572 47.408 45.0063 47.408 45.85C47.4924 46.6094 46.8168 48.2125 45.9723 49.3093C44.7054 50.9968 43.4386 51.3343 38.1181 51.7561C32.4597 52.178 31.6996 52.0093 30.8551 50.5749C30.2639 49.7312 29.5883 47.875 28.7437 43.9095L33.642 43.8251Z" stroke="#222B52" stroke-width="2.1934"/>
<path d="M10.8396 35.0503C13.8799 35.0503 17.0891 34.3753 19.116 33.4472C20.974 32.5191 22.832 31.7597 23.1698 31.7597C23.5921 31.6754 24.1832 33.7003 24.6055 36.1471C25.1967 39.8596 25.1122 40.7033 23.9299 41.6314C23.1698 42.222 20.974 43.0657 19.116 43.572C17.258 44.0782 14.3866 44.247 12.782 43.9938C11.1774 43.7407 8.9816 42.897 7.96816 42.222C6.53245 41.2939 6.02573 40.1127 6.02573 35.0503H10.8396Z" stroke="#222B52" stroke-width="2.1934"/>
<path d="M30.6862 30.3254C33.1353 30.0723 36.2601 29.3973 37.6958 28.7223C39.1315 28.1317 40.7361 27.5411 41.3273 27.5411C41.834 27.4567 43.1008 28.2161 44.0298 29.1442C44.9588 30.0723 45.7189 31.591 45.7189 32.5191C45.7189 33.4472 45.0433 35.3878 44.2832 36.7378C43.4386 38.1721 41.6651 39.6908 40.2294 40.1127C38.7937 40.6189 35.5845 40.9564 28.4059 40.9564L27.3925 36.7378C26.8013 34.4597 26.2946 32.1816 26.2946 31.6754C26.2946 31.1691 28.3215 30.5785 30.6862 30.3254Z" stroke="#222B52" stroke-width="2.1934"/>
<path d="M12.3597 20.7069C14.8089 20.7069 17.258 20.2007 18.2715 19.5257C19.116 18.8507 20.1295 18.5132 20.4673 18.8507C20.7206 19.1882 21.3963 21.2131 21.9874 23.4912C22.4942 25.6849 22.7475 27.7942 22.4942 28.3005C22.2408 28.8067 20.4673 29.9035 18.5249 30.8316C16.498 31.7598 13.2887 32.5191 11.3463 32.5191C8.39043 32.5191 7.37698 32.0972 5.94127 30.241C4.75892 28.6379 4.42111 27.2036 4.75892 25.7693C5.09674 24.588 5.94127 22.985 6.70135 22.1412C7.7148 21.1288 9.31941 20.6225 12.3597 20.7069Z" stroke="#222B52" stroke-width="2.1934"/>
<path d="M30.0105 15.3914C31.3618 14.8008 32.7975 13.8727 33.3042 13.2821C33.9798 12.4383 34.6555 12.5227 36.6824 13.7039C38.1181 14.5477 39.976 16.4882 40.8206 18.007C41.6651 19.4413 42.1718 21.4662 41.9185 22.3944C41.6651 23.3225 39.8916 24.8412 37.9492 25.7693C35.7534 26.6974 32.4597 27.4567 25.45 27.4567L22.9164 17.332L25.2811 16.8257C26.5479 16.5726 28.6593 15.8976 30.0105 15.3914Z" stroke="#222B52" stroke-width="2.1934"/>
<path d="M10.5018 12.9446C11.0929 11.4259 12.782 9.14779 14.1333 7.8822C15.4845 6.53223 17.0891 5.51975 17.5959 5.51975C18.3559 5.51975 18.7782 7.20721 18.9471 10.4134C19.2005 14.4633 18.9471 15.4758 17.5114 16.7414C16.4135 17.6695 14.4711 18.2601 12.5286 18.1757C10.3329 18.1757 9.40387 17.8382 9.40387 16.9101C9.40387 16.2351 9.91059 14.3789 10.5018 12.9446Z" stroke="#222B52" stroke-width="2.1934"/>
<path d="M21.0585 8.8103C20.974 6.70097 21.3118 4.67602 21.7341 4.33853C22.1564 4.00104 23.8454 4.00104 25.45 4.25416C27.0547 4.59165 29.4194 5.35101 30.6862 6.02599C32.0374 6.70097 33.2198 7.46033 33.4731 7.8822C33.642 8.21969 32.7975 9.48528 31.5307 10.8352C30.2639 12.1008 27.7303 13.4508 25.8723 13.9571C23.4232 14.4633 22.3253 14.3789 21.903 13.7039C21.5652 13.1133 21.1429 10.9196 21.0585 8.8103Z" stroke="#222B52" stroke-width="2.1934"/>
</svg>
