<svg width="58" height="51" viewBox="0 0 58 51" fill="none" xmlns="http://www.w3.org/2000/svg">
<path d="M26.0755 4.24503C27.2579 4.24503 29.4536 3.48568 30.9738 2.55757C32.6629 1.37635 34.6053 0.954487 36.2099 1.20761C37.6456 1.37635 40.8549 2.05134 43.3885 2.72632C45.9221 3.31693 49.0469 4.49815 50.3981 5.34188C51.6649 6.10124 53.4385 8.37931 54.3674 10.3199C55.2964 12.3448 56.0565 14.6229 56.0565 15.3823C56.0565 16.226 55.5498 18.1666 54.8742 19.6009C54.1985 21.1196 53.5229 23.9039 53.354 25.7601C53.1851 27.6164 52.0872 30.3163 50.9049 31.7506C49.807 33.185 47.5267 35.3787 45.9221 36.6443C44.3175 37.8255 42.2061 38.838 41.2771 38.838C40.3482 38.838 39.0814 39.5973 38.5746 40.5254C37.9835 41.4535 35.9566 42.9722 34.0986 43.9003C32.2406 44.8284 30.0448 45.5878 29.2847 45.5878C28.4402 45.5878 26.6667 46.3472 25.231 47.2753C23.7953 48.2034 21.2617 48.9627 19.5726 48.9627C17.7991 48.9627 15.3499 48.4565 14.0831 47.7815C12.7319 47.1065 10.9583 45.7565 10.0293 44.8284C9.10035 43.816 7.918 43.0566 7.49573 43.0566C7.07346 43.0566 5.5533 41.9598 4.11759 40.5254C1.83734 38.0786 1.58398 37.4036 1.58398 32.1725C1.58398 27.1945 1.9218 26.0133 4.11759 22.8071C5.5533 20.8665 7.32683 17.9135 8.17136 16.3947C8.93144 14.7917 10.7894 12.8511 12.2251 12.0073C13.7453 11.248 16.11 9.56053 17.5457 8.37931C18.9814 7.19809 21.0083 5.76375 22.1062 5.17314C23.1196 4.6669 24.8932 4.24503 26.0755 4.24503Z" fill="#222B52" stroke="#222B52" stroke-width="2.1934"/>
<path d="M4.11757 29.5569C4.45539 27.9538 4.96211 26.2664 5.21547 25.7601C5.55328 25.2539 6.06001 27.6164 6.39782 30.8225C6.65118 34.0287 7.24235 37.6567 7.58017 38.838C8.17134 40.7785 8.08689 40.8629 6.73563 39.6817C5.97555 39.0067 4.87766 37.0661 4.37093 35.463C3.94867 33.86 3.77976 31.16 4.11757 29.5569Z" fill="#FCFCFC"/>
<path d="M9.69151 20.2759C10.2827 18.6728 11.465 16.4791 12.394 15.3823V15.4666C13.323 14.3698 14.3365 13.5261 14.5898 13.5261C14.8432 13.5261 15.0121 14.9604 14.8432 16.7322C14.6743 18.4197 15.181 22.3852 15.8566 25.507C16.6167 28.7132 17.968 32.7631 18.8969 34.6193C19.8259 36.4755 21.6839 39.3442 25.6532 43.9003L23.1196 45.1659C21.6839 45.8409 19.7415 46.4315 18.728 46.4315C17.6301 46.4315 16.2789 46.094 15.6877 45.7565C15.181 45.4191 14.0831 44.2378 13.4075 43.0566C12.7318 41.8754 11.465 39.4286 10.4516 37.5724C9.35369 35.2943 8.76252 32.4256 8.76252 28.7132C8.76252 25.6758 9.18479 21.879 9.69151 20.2759Z" fill="#FCFCFC"/>
<path d="M50.2292 17.9135C49.8914 17.0697 49.3002 14.6229 49.1313 12.4292C48.8779 10.1511 49.0469 8.37931 49.3847 8.37931C49.8069 8.37931 50.7359 9.22304 51.4116 10.3199C52.0872 11.3324 52.6784 13.6104 52.6784 15.3823C52.6784 17.0697 52.3405 18.6728 51.8338 18.9259C51.4116 19.1791 50.6515 18.6728 50.2292 17.9135Z" fill="#FCFCFC"/>
<path d="M18.5591 11.5855C18.728 10.7418 20.1637 9.30742 21.6839 8.37931C23.1196 7.45121 24.9776 6.69185 25.6532 6.69185C26.6667 6.69185 26.92 8.21057 26.92 14.9604C26.92 21.9634 27.2578 23.8196 29.1158 27.7851C30.2982 30.3163 32.494 33.7756 33.9297 35.3787C36.4633 38.163 36.5477 38.4161 35.112 39.7661C34.3519 40.5254 32.6629 41.5379 31.3961 42.0441C29.2847 42.8879 28.778 42.7191 26.0755 40.0192C24.4709 38.4161 22.2751 35.463 21.3461 33.5225C20.3327 31.4975 18.9814 27.1945 18.3058 23.9883C17.6301 20.7821 17.3768 16.9854 17.6301 15.551C17.968 14.1167 18.3058 12.3448 18.5591 11.5855Z" fill="#FCFCFC"/>
<path d="M41.8683 15.1292C41.6149 12.0917 41.6994 8.63243 41.8683 7.45121C42.2061 5.67938 42.7128 5.34188 44.3175 5.595C46.1754 5.9325 46.3443 6.43873 46.5132 11.5855C46.6822 15.9729 47.1889 17.9135 48.8779 20.4447C50.0603 22.1321 50.9893 24.3258 50.9893 25.2539C50.9893 26.182 50.6515 27.7007 50.1447 28.6288C49.7225 29.5569 48.709 30.3163 48.0334 30.3163C47.3578 30.3163 45.7532 28.207 44.4864 25.507C42.9662 22.3009 42.0372 18.7572 41.8683 15.1292Z" fill="#FCFCFC"/>
<path d="M30.0448 7.11372C30.5515 5.9325 31.8183 4.58253 32.7473 4.16066C33.7608 3.7388 35.112 3.40131 35.7876 3.40131C36.4633 3.40131 37.5612 3.65443 38.1524 3.99192C38.828 4.41378 39.2502 7.28246 39.4192 13.1042C39.5881 21.204 39.757 21.9634 45.9221 33.6912L44.0641 34.9568C42.9662 35.7162 41.0238 36.138 39.6725 36.0537C37.8145 35.8849 36.5477 34.7881 34.3519 31.5819C32.7473 29.3038 30.8893 25.507 30.2137 23.1446C29.5381 20.7821 29.0314 16.7322 29.0314 14.1167C29.0314 11.4167 29.4536 8.29494 30.0448 7.11372Z" fill="#FCFCFC"/>
<path d="M4.11757 29.5569C4.45539 27.9538 4.96211 26.2664 5.21547 25.7601C5.55328 25.2539 6.06001 27.6164 6.39782 30.8225C6.65118 34.0287 7.24235 37.6567 7.58017 38.838C8.17134 40.7785 8.08689 40.8629 6.73563 39.6817C5.97555 39.0067 4.87766 37.0661 4.37093 35.463C3.94867 33.86 3.77976 31.16 4.11757 29.5569Z" stroke="#222B52" stroke-width="2.1934"/>
<path d="M9.69151 20.2759C10.2827 18.6728 11.465 16.4791 12.394 15.3823V15.4666C13.323 14.3698 14.3365 13.5261 14.5898 13.5261C14.8432 13.5261 15.0121 14.9604 14.8432 16.7322C14.6743 18.4197 15.181 22.3852 15.8566 25.507C16.6167 28.7132 17.968 32.7631 18.8969 34.6193C19.8259 36.4755 21.6839 39.3442 25.6532 43.9003L23.1196 45.1659C21.6839 45.8409 19.7415 46.4315 18.728 46.4315C17.6301 46.4315 16.2789 46.094 15.6877 45.7565C15.181 45.4191 14.0831 44.2378 13.4075 43.0566C12.7318 41.8754 11.465 39.4286 10.4516 37.5724C9.35369 35.2943 8.76252 32.4256 8.76252 28.7132C8.76252 25.6758 9.18479 21.879 9.69151 20.2759Z" stroke="#222B52" stroke-width="2.1934"/>
<path d="M50.2292 17.9135C49.8914 17.0697 49.3002 14.6229 49.1313 12.4292C48.8779 10.1511 49.0469 8.37931 49.3847 8.37931C49.8069 8.37931 50.7359 9.22304 51.4116 10.3199C52.0872 11.3324 52.6784 13.6104 52.6784 15.3823C52.6784 17.0697 52.3405 18.6728 51.8338 18.9259C51.4116 19.1791 50.6515 18.6728 50.2292 17.9135Z" stroke="#222B52" stroke-width="2.1934"/>
<path d="M18.5591 11.5855C18.728 10.7418 20.1637 9.30742 21.6839 8.37931C23.1196 7.45121 24.9776 6.69185 25.6532 6.69185C26.6667 6.69185 26.92 8.21057 26.92 14.9604C26.92 21.9634 27.2578 23.8196 29.1158 27.7851C30.2982 30.3163 32.494 33.7756 33.9297 35.3787C36.4633 38.163 36.5477 38.4161 35.112 39.7661C34.3519 40.5254 32.6629 41.5379 31.3961 42.0441C29.2847 42.8879 28.778 42.7191 26.0755 40.0192C24.4709 38.4161 22.2751 35.463 21.3461 33.5225C20.3327 31.4975 18.9814 27.1945 18.3058 23.9883C17.6301 20.7821 17.3768 16.9854 17.6301 15.551C17.968 14.1167 18.3058 12.3448 18.5591 11.5855Z" stroke="#222B52" stroke-width="2.1934"/>
<path d="M41.8683 15.1292C41.6149 12.0917 41.6994 8.63243 41.8683 7.45121C42.2061 5.67938 42.7128 5.34188 44.3175 5.595C46.1754 5.9325 46.3443 6.43873 46.5132 11.5855C46.6822 15.9729 47.1889 17.9135 48.8779 20.4447C50.0603 22.1321 50.9893 24.3258 50.9893 25.2539C50.9893 26.182 50.6515 27.7007 50.1447 28.6288C49.7225 29.5569 48.709 30.3163 48.0334 30.3163C47.3578 30.3163 45.7532 28.207 44.4864 25.507C42.9662 22.3009 42.0372 18.7572 41.8683 15.1292Z" stroke="#222B52" stroke-width="2.1934"/>
<path d="M30.0448 7.11372C30.5515 5.9325 31.8183 4.58253 32.7473 4.16066C33.7608 3.7388 35.112 3.40131 35.7876 3.40131C36.4633 3.40131 37.5612 3.65443 38.1524 3.99192C38.828 4.41378 39.2502 7.28246 39.4192 13.1042C39.5881 21.204 39.757 21.9634 45.9221 33.6912L44.0641 34.9568C42.9662 35.7162 41.0238 36.138 39.6725 36.0537C37.8145 35.8849 36.5477 34.7881 34.3519 31.5819C32.7473 29.3038 30.8893 25.507 30.2137 23.1446C29.5381 20.7821 29.0314 16.7322 29.0314 14.1167C29.0314 11.4167 29.4536 8.29494 30.0448 7.11372Z" stroke="#222B52" stroke-width="2.1934"/>
</svg>
