<svg width="52" height="64" viewBox="0 0 52 64" fill="none" xmlns="http://www.w3.org/2000/svg">
<path d="M17.258 6.27911C18.4404 5.01352 20.8895 3.32606 22.7475 2.39796C25.0278 1.30111 27.2236 0.963615 29.5038 1.21673C31.3618 1.46985 34.571 2.73545 36.6823 4.00104C39.5538 5.85725 41.2428 7.79783 43.6075 12.2696C45.3811 15.5601 46.8168 19.4413 46.8168 20.96C46.8168 22.3944 47.6613 24.9255 48.5903 26.4443C50.026 28.4692 50.2794 29.9036 49.9416 32.0972C49.6882 33.7003 49.097 37.1596 48.7592 39.7752C48.4214 42.3908 47.4924 45.2594 46.7323 46.1032C45.9722 47.0313 45.1277 48.7187 44.7899 50.0687C44.5365 51.3343 43.5231 53.0218 42.5096 53.8655C41.5807 54.6248 39.6382 56.3123 38.287 57.6623C36.9357 58.9279 34.4866 60.5309 32.8819 61.2059C31.2773 61.8809 28.0681 62.4715 25.7034 62.4715C23.4231 62.4715 19.4538 61.7122 17.0891 60.7841C14.64 59.856 11.3463 57.9998 9.74167 56.7342C8.13705 55.4686 6.27907 53.1905 5.6879 51.7562C5.09672 50.2374 4.67446 48.2969 4.75891 47.5375C4.84336 46.6938 4.25219 44.7532 3.49211 43.3189C2.73202 41.8001 2.0564 39.6908 2.0564 38.6783C2.0564 37.5815 2.56312 35.8097 3.23875 34.6284C3.91437 33.2785 4.16773 30.8317 3.99883 27.8786C3.66101 24.0818 3.91437 22.8162 5.35008 20.96C6.36353 19.61 7.12361 17.8382 7.12361 16.9101C7.12361 15.982 8.39041 13.7039 9.91058 11.8477C11.5152 9.99152 13.2887 8.47281 13.9643 8.47281C14.64 8.47281 16.0757 7.54471 17.258 6.27911Z" fill="#222B52" stroke="#222B52" stroke-width="2.1934"/>
<path d="M23.8454 60.3622L26.2945 55.1311C27.5613 52.2624 28.8281 49.9 29.0815 49.8156C29.3349 49.8156 31.0239 50.7437 32.8819 51.7562C34.7399 52.7687 36.2601 54.203 36.2601 54.7936C36.2601 55.4686 35.3311 56.6498 34.1487 57.5779C32.9664 58.506 30.1794 59.4341 23.8454 60.3622Z" fill="#FCFCFC"/>
<path d="M8.22148 50.9968C6.78577 48.0438 6.78577 47.9594 8.39038 46.7782C9.31937 46.1032 12.0219 45.597 14.471 45.597C16.9202 45.597 20.2983 46.1876 21.903 46.8625C23.5076 47.5375 25.1122 48.6344 25.3655 49.1406C25.6189 49.7312 24.8588 52.2624 23.6765 54.6249C21.6496 58.6748 21.3118 59.0966 19.2004 58.5904C17.8492 58.3373 15.2311 57.2404 13.2887 56.0592C11.0929 54.878 9.06601 52.853 8.22148 50.9968Z" fill="#FCFCFC"/>
<path d="M29.7571 43.7407C29.926 41.8002 30.2638 39.8596 30.5172 39.4377C30.6861 39.1002 32.0374 39.5221 33.4731 40.2815C34.8243 41.1252 37.2735 43.2345 38.8781 44.922C40.4827 46.6938 41.7495 48.8031 41.7495 49.5625C41.834 50.4062 41.2428 51.6718 40.4827 52.3468C39.3004 53.4436 38.9626 53.4436 37.2735 51.7562C36.2601 50.7437 34.0643 49.3937 32.4596 48.6344C29.6727 47.4532 29.5038 47.2844 29.7571 43.7407Z" fill="#FCFCFC"/>
<path d="M5.85678 35.7253C6.70131 34.291 8.13702 32.8566 9.15047 32.6879C10.0795 32.4348 13.0353 32.4348 15.5689 32.6879C18.1025 32.8566 21.3962 33.3629 22.7475 33.7847C24.0987 34.2066 25.8723 35.2191 26.5479 35.9784C27.3924 36.9347 27.7302 38.7065 27.5613 41.2939C27.3924 43.4033 27.0546 45.4282 26.8857 45.7657C26.7168 46.1876 25.1122 45.6813 23.4231 44.6689C20.8051 43.2345 19.0315 42.9814 6.70131 43.4876L5.51896 40.9564C4.50552 38.7627 4.58997 38.0878 5.85678 35.7253Z" fill="#FCFCFC"/>
<path d="M31.6151 35.2191C31.6151 34.7128 32.0374 32.7723 32.4596 31.0004C33.079 28.9192 33.8672 27.8786 34.8243 27.8786C35.5844 27.963 37.6958 28.8067 39.4693 29.8192C41.1584 30.8317 42.9319 32.4348 43.3541 33.3629C43.7764 34.291 44.6209 36.4003 45.2121 38.0034C45.8033 39.6065 45.9722 41.6314 45.7188 42.3908C45.381 43.2345 44.5365 44.1626 43.8609 44.5001C42.96 44.9501 42.1436 44.6126 41.4117 43.4876C40.8205 42.5595 38.3714 40.5346 36.0067 39.0159C33.5575 37.5815 31.6151 35.8097 31.6151 35.2191Z" fill="#FCFCFC"/>
<path d="M6.19459 25.938C6.11014 24.335 6.78577 22.9006 8.39038 21.5507C10.0795 20.0319 11.7685 19.4413 14.2177 19.4413C16.1601 19.4413 19.0315 19.7788 20.6361 20.2851C22.2408 20.7069 25.0277 22.2256 26.8013 23.66C29.2504 25.6849 29.926 26.7818 29.926 28.8911C29.926 30.4098 29.5882 32.1817 29.2504 32.6879C28.8281 33.4472 27.7302 33.2785 24.8588 31.9285C21.9874 30.5786 19.3693 30.0723 14.3021 30.0723C10.5862 29.988 7.29249 29.5661 6.95467 29.1442C6.61686 28.638 6.27905 27.2036 6.19459 25.938Z" fill="#FCFCFC"/>
<path d="M33.1353 21.7194C33.0508 20.1163 33.3042 18.5976 33.7264 18.3445C34.1487 18.007 34.9088 17.7539 35.5844 17.7539C36.1756 17.7539 37.6958 18.2601 39.047 18.9351C40.3138 19.6101 42.1718 21.5507 43.1008 23.3225C44.1142 25.1787 45.5499 27.1193 46.31 27.7943C47.0701 28.3849 47.6613 30.0723 47.5768 34.2066L45.2121 31.2535C43.9453 29.6505 41.3273 27.7099 39.5537 26.8661C37.7802 26.1068 35.5844 25.2631 34.8243 25.0099C33.8109 24.6725 33.2197 23.5756 33.1353 21.7194Z" fill="#FCFCFC"/>
<path d="M10.5017 15.2227C11.0084 14.2946 12.6131 12.7759 14.1332 11.8478C15.5689 10.9197 17.3425 10.329 17.9336 10.5822C18.4404 10.8353 20.3828 11.004 22.1563 11.004C24.0143 11.004 26.4634 11.679 28.237 12.8602C30.9395 14.6321 31.1084 15.0539 30.855 18.5976C30.7706 20.7069 30.5172 22.5631 30.3483 22.8162C30.0949 23.0694 28.8281 22.2256 27.3924 20.8757C26.0412 19.6101 23.4231 18.2601 21.734 17.7539C19.9605 17.332 16.4979 16.9101 14.1332 16.9101C9.91055 16.9101 9.74164 16.8258 10.5017 15.2227Z" fill="#FCFCFC"/>
<path d="M34.2332 13.704C33.8109 12.9446 33.2197 10.6665 32.8819 8.64159C32.4596 6.27914 32.5441 5.09792 33.2197 5.09792C33.7264 5.09792 35.3311 6.1104 36.8512 7.37599C38.2869 8.72596 40.2294 11.4259 41.2428 13.5352C42.1718 15.6445 43.0163 17.5851 43.1852 17.9226C43.3541 18.3445 42.1718 17.8382 40.7361 16.9101C39.2159 15.982 37.2735 15.2227 36.5134 15.2227C35.6689 15.2227 34.6554 14.5477 34.2332 13.704Z" fill="#FCFCFC"/>
<path d="M19.3693 7.12287L23.1698 5.26667C25.2811 4.25419 27.2235 3.41046 27.6458 3.41046C27.9836 3.41046 28.8281 4.76043 29.5038 6.36352C30.1794 7.9666 30.7706 9.82281 30.7706 10.329C30.855 11.1728 30.6017 11.1728 29.7571 10.4134C29.166 9.90718 26.5479 8.89471 19.3693 7.12287Z" fill="#FCFCFC"/>
<path d="M23.8454 60.3622L26.2945 55.1311C27.5613 52.2624 28.8281 49.9 29.0815 49.8156C29.3349 49.8156 31.0239 50.7437 32.8819 51.7562C34.7399 52.7687 36.2601 54.203 36.2601 54.7936C36.2601 55.4686 35.3311 56.6498 34.1487 57.5779C32.9664 58.506 30.1794 59.4341 23.8454 60.3622Z" stroke="#222B52" stroke-width="2.1934"/>
<path d="M8.22148 50.9968C6.78577 48.0438 6.78577 47.9594 8.39038 46.7782C9.31937 46.1032 12.0219 45.597 14.471 45.597C16.9202 45.597 20.2983 46.1876 21.903 46.8625C23.5076 47.5375 25.1122 48.6344 25.3655 49.1406C25.6189 49.7312 24.8588 52.2624 23.6765 54.6249C21.6496 58.6748 21.3118 59.0966 19.2004 58.5904C17.8492 58.3373 15.2311 57.2404 13.2887 56.0592C11.0929 54.878 9.06601 52.853 8.22148 50.9968Z" stroke="#222B52" stroke-width="2.1934"/>
<path d="M29.7571 43.7407C29.926 41.8002 30.2638 39.8596 30.5172 39.4377C30.6861 39.1002 32.0374 39.5221 33.4731 40.2815C34.8243 41.1252 37.2735 43.2345 38.8781 44.922C40.4827 46.6938 41.7495 48.8031 41.7495 49.5625C41.834 50.4062 41.2428 51.6718 40.4827 52.3468C39.3004 53.4436 38.9626 53.4436 37.2735 51.7562C36.2601 50.7437 34.0643 49.3937 32.4596 48.6344C29.6727 47.4532 29.5038 47.2844 29.7571 43.7407Z" stroke="#222B52" stroke-width="2.1934"/>
<path d="M5.85678 35.7253C6.70131 34.291 8.13702 32.8566 9.15047 32.6879C10.0795 32.4348 13.0353 32.4348 15.5689 32.6879C18.1025 32.8566 21.3962 33.3629 22.7475 33.7847C24.0987 34.2066 25.8723 35.2191 26.5479 35.9784C27.3924 36.9347 27.7302 38.7065 27.5613 41.2939C27.3924 43.4033 27.0546 45.4282 26.8857 45.7657C26.7168 46.1876 25.1122 45.6813 23.4231 44.6689C20.8051 43.2345 19.0315 42.9814 6.70131 43.4876L5.51896 40.9564C4.50552 38.7627 4.58997 38.0878 5.85678 35.7253Z" stroke="#222B52" stroke-width="2.1934"/>
<path d="M31.6151 35.2191C31.6151 34.7128 32.0374 32.7723 32.4596 31.0004C33.079 28.9192 33.8672 27.8786 34.8243 27.8786C35.5844 27.963 37.6958 28.8067 39.4693 29.8192C41.1584 30.8317 42.9319 32.4348 43.3541 33.3629C43.7764 34.291 44.6209 36.4003 45.2121 38.0034C45.8033 39.6065 45.9722 41.6314 45.7188 42.3908C45.381 43.2345 44.5365 44.1626 43.8609 44.5001C42.96 44.9501 42.1436 44.6126 41.4117 43.4876C40.8205 42.5595 38.3714 40.5346 36.0067 39.0159C33.5575 37.5815 31.6151 35.8097 31.6151 35.2191Z" stroke="#222B52" stroke-width="2.1934"/>
<path d="M6.19459 25.938C6.11014 24.335 6.78577 22.9006 8.39038 21.5507C10.0795 20.0319 11.7685 19.4413 14.2177 19.4413C16.1601 19.4413 19.0315 19.7788 20.6361 20.2851C22.2408 20.7069 25.0277 22.2256 26.8013 23.66C29.2504 25.6849 29.926 26.7818 29.926 28.8911C29.926 30.4098 29.5882 32.1817 29.2504 32.6879C28.8281 33.4472 27.7302 33.2785 24.8588 31.9285C21.9874 30.5786 19.3693 30.0723 14.3021 30.0723C10.5862 29.988 7.29249 29.5661 6.95467 29.1442C6.61686 28.638 6.27905 27.2036 6.19459 25.938Z" stroke="#222B52" stroke-width="2.1934"/>
<path d="M33.1353 21.7194C33.0508 20.1163 33.3042 18.5976 33.7264 18.3445C34.1487 18.007 34.9088 17.7539 35.5844 17.7539C36.1756 17.7539 37.6958 18.2601 39.047 18.9351C40.3138 19.6101 42.1718 21.5507 43.1008 23.3225C44.1142 25.1787 45.5499 27.1193 46.31 27.7943C47.0701 28.3849 47.6613 30.0723 47.5768 34.2066L45.2121 31.2535C43.9453 29.6505 41.3273 27.7099 39.5537 26.8661C37.7802 26.1068 35.5844 25.2631 34.8243 25.0099C33.8109 24.6725 33.2197 23.5756 33.1353 21.7194Z" stroke="#222B52" stroke-width="2.1934"/>
<path d="M10.5017 15.2227C11.0084 14.2946 12.6131 12.7759 14.1332 11.8478C15.5689 10.9197 17.3425 10.329 17.9336 10.5822C18.4404 10.8353 20.3828 11.004 22.1563 11.004C24.0143 11.004 26.4634 11.679 28.237 12.8602C30.9395 14.6321 31.1084 15.0539 30.855 18.5976C30.7706 20.7069 30.5172 22.5631 30.3483 22.8162C30.0949 23.0694 28.8281 22.2256 27.3924 20.8757C26.0412 19.6101 23.4231 18.2601 21.734 17.7539C19.9605 17.332 16.4979 16.9101 14.1332 16.9101C9.91055 16.9101 9.74164 16.8258 10.5017 15.2227Z" stroke="#222B52" stroke-width="2.1934"/>
<path d="M34.2332 13.704C33.8109 12.9446 33.2197 10.6665 32.8819 8.64159C32.4596 6.27914 32.5441 5.09792 33.2197 5.09792C33.7264 5.09792 35.3311 6.1104 36.8512 7.37599C38.2869 8.72596 40.2294 11.4259 41.2428 13.5352C42.1718 15.6445 43.0163 17.5851 43.1852 17.9226C43.3541 18.3445 42.1718 17.8382 40.7361 16.9101C39.2159 15.982 37.2735 15.2227 36.5134 15.2227C35.6689 15.2227 34.6554 14.5477 34.2332 13.704Z" stroke="#222B52" stroke-width="2.1934"/>
<path d="M19.3693 7.12287L23.1698 5.26667C25.2811 4.25419 27.2235 3.41046 27.6458 3.41046C27.9836 3.41046 28.8281 4.76043 29.5038 6.36352C30.1794 7.9666 30.7706 9.82281 30.7706 10.329C30.855 11.1728 30.6017 11.1728 29.7571 10.4134C29.166 9.90718 26.5479 8.89471 19.3693 7.12287Z" stroke="#222B52" stroke-width="2.1934"/>
</svg>
