<svg width="39" height="61" viewBox="0 0 39 61" fill="none" xmlns="http://www.w3.org/2000/svg">
<path d="M8.90105 5.786C9.83004 5.02664 11.8569 3.76105 13.4615 3.00169C15.3195 2.24233 17.8531 1.82047 20.2178 2.07359C22.3292 2.24233 25.4539 3.00169 27.2275 3.76105C28.9165 4.5204 30.3522 5.61725 30.3522 6.12349C30.3522 6.7141 31.3657 7.9797 32.548 8.9078C34.0682 10.089 34.9972 11.9452 35.5884 14.8139C36.0951 17.092 36.6863 22.07 36.8552 25.7824C37.1085 29.4948 37.2774 33.6291 37.2774 35.0634C37.193 36.4978 37.193 39.6196 37.193 41.982C37.1085 45.4413 36.6018 47.0444 34.9972 48.985C33.8148 50.4193 32.8859 51.7693 32.8859 52.1068C32.8859 52.5286 31.8724 53.7942 30.6056 54.9755C29.2544 56.241 27.4808 57.591 26.5518 58.0973C25.6229 58.5191 23.3426 59.0254 21.4846 59.1941C19.6266 59.2785 16.6708 59.3628 14.9817 59.2785C13.0393 59.1941 10.8435 58.3504 9.49223 57.1691C8.14097 56.0723 6.36744 53.288 5.52291 51.0099C4.67837 48.7318 3.74939 45.0194 3.58048 42.657C3.41157 40.3789 3.15821 37.0884 2.9893 35.4853C2.90485 33.8822 2.48258 31.6041 2.14477 30.4229C1.7225 29.1573 1.89141 27.4699 2.56704 26.2043C3.15821 25.023 3.58048 22.07 3.49602 19.6232C3.41157 16.417 3.83384 14.1389 5.354 11.2702C6.4519 8.99217 8.05652 6.54536 8.90105 5.786Z" fill="#222B52" stroke="#222B52" stroke-width="2.1934"/>
<path d="M9.83014 53.8786C8.98561 52.7817 8.39443 51.6005 8.47889 51.1787C8.56334 50.8412 9.57678 50.8412 10.8436 51.1787C12.0259 51.6005 16.7553 51.938 21.2314 51.938C25.7919 51.938 29.5078 52.1911 29.5078 52.613C29.5078 52.9505 28.4944 53.8786 27.1431 54.638C25.8763 55.4817 23.3427 56.4098 21.4847 56.7473C19.6268 57.0848 16.5864 57.0004 14.7284 56.5785C12.8705 56.1567 10.6747 54.9754 9.83014 53.8786Z" fill="#FCFCFC"/>
<path d="M12.1948 42.2351C16.2486 43.0788 18.6978 42.9945 24.4406 41.982C28.4099 41.307 32.1259 40.7164 32.6326 40.632C33.2238 40.632 33.9839 41.3914 34.2372 42.4882C34.4906 43.5007 34.3217 45.1038 33.8149 46.0319C33.1956 47.1569 31.2532 48.0569 27.9877 48.7318C25.3696 49.3225 21.4847 49.8287 19.3734 49.8287C17.2621 49.8287 14.1373 49.4068 12.3637 48.985C10.6747 48.4787 8.47889 47.3819 7.5499 46.4538C6.62091 45.5257 5.86083 44.5132 5.86083 44.1757C5.86083 43.7538 6.19864 42.9945 6.53645 42.4039C7.04318 41.5601 8.14107 41.4758 12.1948 42.2351Z" fill="#FCFCFC"/>
<path d="M24.9473 33.0385C28.1566 32.026 31.1969 30.8448 31.5347 30.3385C31.957 29.9167 32.7171 29.6635 33.2238 29.8323C33.7305 30.001 34.4061 31.1823 34.7439 32.3635C35.2507 34.0509 34.9973 35.1478 33.8994 36.329C32.886 37.5102 30.1834 38.354 24.4406 39.2821C20.049 40.0414 15.2352 40.3789 13.8839 40.1258C12.5327 39.7883 10.0835 39.1977 8.56334 38.7758C6.452 38.1852 5.86083 37.5946 5.86083 33.7978L12.3637 34.3041C17.7688 34.8103 19.9646 34.5572 24.9473 33.0385Z" fill="#FCFCFC"/>
<path d="M22.9204 22.8293C25.3696 21.9012 28.5788 20.3825 29.9301 19.4544C32.2948 17.8513 32.5481 17.8513 33.5616 19.2857C34.1528 20.045 34.575 21.7325 34.575 23.0824C34.575 24.6855 33.8149 25.8668 31.7881 27.2167C30.3524 28.2292 26.8898 29.7479 24.1872 30.5916C21.5692 31.4354 17.5999 32.1104 15.3196 32.1104C13.1238 32.1104 9.9146 31.6885 8.14107 31.2666C6.452 30.7604 4.84738 29.8323 4.59402 29.1573C4.34066 28.4823 4.59402 27.3855 5.10074 26.7105C5.69192 26.1199 8.64779 25.3605 12.2793 25.023C15.7419 24.7699 20.5557 23.7574 22.9204 22.8293Z" fill="#FCFCFC"/>
<path d="M17.2621 16.8388C19.5423 15.9951 23.1738 14.0545 25.1162 12.4515C28.241 10.089 29.0855 9.75152 30.4368 10.5109C31.2813 11.0171 32.2103 12.0296 32.5481 12.7046C32.8015 13.4639 32.1259 14.6451 31.028 15.5733C29.9301 16.417 27.1431 18.0201 24.8629 19.1169C22.4982 20.2138 18.191 21.5637 15.1507 22.07C11.1814 22.745 9.15451 22.745 7.7188 22.07C6.70536 21.5637 5.86083 20.8044 5.86083 20.2981C5.86083 19.8763 7.46544 19.2013 9.40788 18.9482C11.4348 18.6107 14.8974 17.6826 17.2621 16.8388Z" fill="#FCFCFC"/>
<path d="M9.66124 8.82341C10.5902 7.64219 12.8705 6.20785 14.7284 5.53287C16.7553 4.77351 19.4578 4.52039 21.4847 4.77351C23.3427 5.02663 25.454 5.78598 26.1297 6.46097C27.2276 7.55782 27.1431 7.89531 25.2851 9.41402C24.1028 10.3421 21.2314 12.0296 18.9511 13.2952C16.5864 14.4764 12.7016 15.6576 5.86083 16.5014L6.87427 13.717C7.46544 12.1983 8.73225 10.0046 9.66124 8.82341Z" fill="#FCFCFC"/>
<path d="M9.83014 53.8786C8.98561 52.7817 8.39443 51.6005 8.47889 51.1787C8.56334 50.8412 9.57678 50.8412 10.8436 51.1787C12.0259 51.6005 16.7553 51.938 21.2314 51.938C25.7919 51.938 29.5078 52.1911 29.5078 52.613C29.5078 52.9505 28.4944 53.8786 27.1431 54.638C25.8763 55.4817 23.3427 56.4098 21.4847 56.7473C19.6268 57.0848 16.5864 57.0004 14.7284 56.5785C12.8705 56.1567 10.6747 54.9754 9.83014 53.8786Z" stroke="#222B52" stroke-width="2.1934"/>
<path d="M12.1948 42.2351C16.2486 43.0788 18.6978 42.9945 24.4406 41.982C28.4099 41.307 32.1259 40.7164 32.6326 40.632C33.2238 40.632 33.9839 41.3914 34.2372 42.4882C34.4906 43.5007 34.3217 45.1038 33.8149 46.0319C33.1956 47.1569 31.2532 48.0569 27.9877 48.7318C25.3696 49.3225 21.4847 49.8287 19.3734 49.8287C17.2621 49.8287 14.1373 49.4068 12.3637 48.985C10.6747 48.4787 8.47889 47.3819 7.5499 46.4538C6.62091 45.5257 5.86083 44.5132 5.86083 44.1757C5.86083 43.7538 6.19864 42.9945 6.53645 42.4039C7.04318 41.5601 8.14107 41.4758 12.1948 42.2351Z" stroke="#222B52" stroke-width="2.1934"/>
<path d="M24.9473 33.0385C28.1566 32.026 31.1969 30.8448 31.5347 30.3385C31.957 29.9167 32.7171 29.6635 33.2238 29.8323C33.7305 30.001 34.4061 31.1823 34.7439 32.3635C35.2507 34.0509 34.9973 35.1478 33.8994 36.329C32.886 37.5102 30.1834 38.354 24.4406 39.2821C20.049 40.0414 15.2352 40.3789 13.8839 40.1258C12.5327 39.7883 10.0835 39.1977 8.56334 38.7758C6.452 38.1852 5.86083 37.5946 5.86083 33.7978L12.3637 34.3041C17.7688 34.8103 19.9646 34.5572 24.9473 33.0385Z" stroke="#222B52" stroke-width="2.1934"/>
<path d="M22.9204 22.8293C25.3696 21.9012 28.5788 20.3825 29.9301 19.4544C32.2948 17.8513 32.5481 17.8513 33.5616 19.2857C34.1528 20.045 34.575 21.7325 34.575 23.0824C34.575 24.6855 33.8149 25.8668 31.7881 27.2167C30.3524 28.2292 26.8898 29.7479 24.1872 30.5916C21.5692 31.4354 17.5999 32.1104 15.3196 32.1104C13.1238 32.1104 9.9146 31.6885 8.14107 31.2666C6.452 30.7604 4.84738 29.8323 4.59402 29.1573C4.34066 28.4823 4.59402 27.3855 5.10074 26.7105C5.69192 26.1199 8.64779 25.3605 12.2793 25.023C15.7419 24.7699 20.5557 23.7574 22.9204 22.8293Z" stroke="#222B52" stroke-width="2.1934"/>
<path d="M17.2621 16.8388C19.5423 15.9951 23.1738 14.0545 25.1162 12.4515C28.241 10.089 29.0855 9.75152 30.4368 10.5109C31.2813 11.0171 32.2103 12.0296 32.5481 12.7046C32.8015 13.4639 32.1259 14.6451 31.028 15.5733C29.9301 16.417 27.1431 18.0201 24.8629 19.1169C22.4982 20.2138 18.191 21.5637 15.1507 22.07C11.1814 22.745 9.15451 22.745 7.7188 22.07C6.70536 21.5637 5.86083 20.8044 5.86083 20.2981C5.86083 19.8763 7.46544 19.2013 9.40788 18.9482C11.4348 18.6107 14.8974 17.6826 17.2621 16.8388Z" stroke="#222B52" stroke-width="2.1934"/>
<path d="M9.66124 8.82341C10.5902 7.64219 12.8705 6.20785 14.7284 5.53287C16.7553 4.77351 19.4578 4.52039 21.4847 4.77351C23.3427 5.02663 25.454 5.78598 26.1297 6.46097C27.2276 7.55782 27.1431 7.89531 25.2851 9.41402C24.1028 10.3421 21.2314 12.0296 18.9511 13.2952C16.5864 14.4764 12.7016 15.6576 5.86083 16.5014L6.87427 13.717C7.46544 12.1983 8.73225 10.0046 9.66124 8.82341Z" stroke="#222B52" stroke-width="2.1934"/>
</svg>
