<svg width="61" height="46" viewBox="0 0 61 46" fill="none" xmlns="http://www.w3.org/2000/svg">
<path d="M32.135 2.9059C33.3173 3.15902 34.5841 2.9059 34.9219 2.39966C35.2597 1.89342 36.611 1.47156 37.8778 1.47156C39.1446 1.47156 42.2694 2.23091 44.803 3.15902C47.3366 4.17149 50.9681 6.19644 52.8261 7.71516C54.6841 9.23387 56.8798 11.9338 57.8088 13.79C58.6534 15.5618 59.5824 18.1774 59.7513 19.6117C60.0046 21.0461 59.5824 23.5773 58.8223 25.2647C58.0622 27.0366 56.6265 28.8928 55.5286 29.3146C54.5151 29.8209 52.7416 30.749 51.5593 31.424C50.3769 32.099 48.5189 32.6896 47.3366 32.6896C46.1542 32.6052 44.4652 33.4489 43.5362 34.377C42.6072 35.3051 40.4959 36.4863 38.8912 36.9926C37.2866 37.4988 35.4286 37.6676 34.8375 37.4144C34.3308 37.1613 33.3173 37.4988 32.7261 38.2582C32.2194 39.0175 30.5303 40.1988 29.1791 40.8737C27.8278 41.5487 25.8854 41.8862 24.9564 41.6331C23.943 41.38 22.5917 41.8018 21.6627 42.6456C20.8182 43.4049 18.369 44.1643 16.1732 44.333C13.5552 44.5018 11.3594 44.0799 9.33251 42.9831C7.30562 41.9706 5.61655 39.9456 4.01193 36.8238C2.32286 33.5333 1.73169 31.0021 1.73169 27.7959C1.73169 25.4335 2.0695 22.5648 2.49177 21.468C2.91404 20.4555 5.19428 17.6712 7.47453 15.3931C9.75478 13.0307 12.7951 10.162 14.0619 8.98075C15.4132 7.71516 17.44 6.28082 18.5379 5.69021C19.7203 5.18397 21.4938 4.84648 22.5917 4.93085C23.6896 5.0996 25.8009 4.50899 27.3211 3.834C28.7568 3.07464 30.9526 2.65278 32.135 2.9059Z" fill="#222B52" stroke="#222B52" stroke-width="2.1934"/>
<path d="M4.26526 27.4584C4.26526 25.1804 4.68753 22.6492 5.2787 21.7211C5.95433 20.5399 6.46105 20.3711 6.96777 21.1305C7.30559 21.7211 7.6434 22.8179 7.55895 23.5773C7.55895 24.421 8.23457 26.8678 8.99466 29.0615C9.75474 31.2552 11.4438 34.8833 12.7951 37.1613C14.1463 39.355 15.2442 41.2956 15.2442 41.5487C15.2442 41.8018 14.2308 41.7175 12.964 41.4644C11.6127 41.1269 9.83919 40.2831 8.99466 39.5238C8.15012 38.7644 6.71441 36.6551 5.86988 34.7989C5.02534 32.9427 4.26526 29.6521 4.26526 27.4584Z" fill="#FCFCFC"/>
<path d="M10.177 22.9867C9.41692 19.1899 9.33247 17.5024 10.0926 16.0681C10.5993 14.9712 11.6127 14.1275 12.3728 14.1275C13.3018 14.1275 14.0619 16.2368 15.2442 21.9742C16.1732 26.1928 18.0312 31.9302 19.4669 34.6301C21.7471 39.0175 21.8316 39.5238 20.6492 40.5362C19.4669 41.38 18.9602 41.1269 17.2711 39.0175C16.0888 37.5832 14.3152 34.6301 13.2173 32.2677C12.1194 29.9896 10.6837 25.771 10.177 22.9867Z" fill="#FCFCFC"/>
<path d="M52.3193 16.9961C51.3059 13.79 50.2924 10.5838 50.1235 9.90886C49.8702 9.23387 51.2214 10.162 52.9949 12.0182C55.0218 14.0431 56.542 16.5743 56.9643 18.3462C57.2176 19.9492 57.1332 22.3117 56.6264 23.6617C56.2042 24.9272 55.4441 25.9397 54.9374 25.9397C54.5151 25.9397 54.0928 25.1804 54.0928 24.3366C54.0928 23.4929 53.2483 20.118 52.3193 16.9962L52.3193 16.9961Z" fill="#FCFCFC"/>
<path d="M16.2577 10.4995C16.8488 9.65574 18.0312 8.64326 19.0446 8.2214C19.9736 7.79953 21.2404 7.46204 21.8316 7.46204C22.3383 7.37767 23.0139 7.63079 23.1828 8.05265C23.4362 8.39014 24.1963 11.8494 24.9564 15.815C25.8009 19.7805 27.4055 25.9397 28.5879 29.5678C30.6148 35.3895 30.6992 36.2332 29.6013 37.4144C28.8412 38.2582 27.49 38.5957 26.2232 38.2582C24.8719 38.0051 23.4362 36.6551 22.3383 34.6301C21.3249 32.8583 19.7203 28.9771 18.7068 25.9397C17.7778 22.9023 16.5955 18.5993 16.0888 16.2368C15.4131 13.115 15.4976 11.6807 16.2577 10.4995Z" fill="#FCFCFC"/>
<path d="M27.49 14.1275C26.3921 8.30577 26.3921 6.87143 27.2366 6.28082C27.8278 5.94333 29.5169 5.77458 30.8681 5.85895C33.0639 6.11207 33.7395 6.78706 36.1042 11.5963C37.6244 14.6337 39.5668 20.4555 40.4958 24.6741C42.016 31.7615 42.016 32.3521 40.7492 33.2802C39.9891 33.8708 37.8778 34.377 32.9795 34.377L30.8681 27.8803C29.6858 24.2523 28.1656 18.093 27.49 14.1275Z" fill="#FCFCFC"/>
<path d="M38.2156 10.162C36.6954 7.20892 35.7664 4.67773 36.1042 4.42461C36.3576 4.17149 37.6244 4.00275 38.8068 4.00275C40.2425 4.08712 42.1849 5.26834 44.4651 7.63079C46.9143 10.162 48.35 12.6088 49.4479 16.2368C50.2924 19.0211 51.137 22.8179 51.3903 24.6741C51.7281 27.5428 51.5592 28.2178 50.0391 29.1459C49.0256 29.6521 47.421 30.074 46.4076 29.9896C44.8874 29.7365 44.2962 28.5553 42.7761 22.5648C41.7626 18.5993 39.7357 13.0307 38.2156 10.162Z" fill="#FCFCFC"/>
<path d="M4.26526 27.4584C4.26526 25.1804 4.68753 22.6492 5.2787 21.7211C5.95433 20.5399 6.46105 20.3711 6.96777 21.1305C7.30559 21.7211 7.6434 22.8179 7.55895 23.5773C7.55895 24.421 8.23457 26.8678 8.99466 29.0615C9.75474 31.2552 11.4438 34.8833 12.7951 37.1613C14.1463 39.355 15.2442 41.2956 15.2442 41.5487C15.2442 41.8018 14.2308 41.7175 12.964 41.4644C11.6127 41.1269 9.83919 40.2831 8.99466 39.5238C8.15012 38.7644 6.71441 36.6551 5.86988 34.7989C5.02534 32.9427 4.26526 29.6521 4.26526 27.4584Z" stroke="#222B52" stroke-width="2.1934"/>
<path d="M10.177 22.9867C9.41692 19.1899 9.33247 17.5024 10.0926 16.0681C10.5993 14.9712 11.6127 14.1275 12.3728 14.1275C13.3018 14.1275 14.0619 16.2368 15.2442 21.9742C16.1732 26.1928 18.0312 31.9302 19.4669 34.6301C21.7471 39.0175 21.8316 39.5238 20.6492 40.5362C19.4669 41.38 18.9602 41.1269 17.2711 39.0175C16.0888 37.5832 14.3152 34.6301 13.2173 32.2677C12.1194 29.9896 10.6837 25.771 10.177 22.9867Z" stroke="#222B52" stroke-width="2.1934"/>
<path d="M52.3193 16.9961C51.3059 13.79 50.2924 10.5838 50.1235 9.90886C49.8702 9.23387 51.2214 10.162 52.9949 12.0182C55.0218 14.0431 56.542 16.5743 56.9643 18.3462C57.2176 19.9492 57.1332 22.3117 56.6264 23.6617C56.2042 24.9272 55.4441 25.9397 54.9374 25.9397C54.5151 25.9397 54.0928 25.1804 54.0928 24.3366C54.0928 23.4929 53.2483 20.118 52.3193 16.9962L52.3193 16.9961Z" stroke="#222B52" stroke-width="2.1934"/>
<path d="M16.2577 10.4995C16.8488 9.65574 18.0312 8.64326 19.0446 8.2214C19.9736 7.79953 21.2404 7.46204 21.8316 7.46204C22.3383 7.37767 23.0139 7.63079 23.1828 8.05265C23.4362 8.39014 24.1963 11.8494 24.9564 15.815C25.8009 19.7805 27.4055 25.9397 28.5879 29.5678C30.6148 35.3895 30.6992 36.2332 29.6013 37.4144C28.8412 38.2582 27.49 38.5957 26.2232 38.2582C24.8719 38.0051 23.4362 36.6551 22.3383 34.6301C21.3249 32.8583 19.7203 28.9771 18.7068 25.9397C17.7778 22.9023 16.5955 18.5993 16.0888 16.2368C15.4131 13.115 15.4976 11.6807 16.2577 10.4995Z" stroke="#222B52" stroke-width="2.1934"/>
<path d="M27.49 14.1275C26.3921 8.30577 26.3921 6.87143 27.2366 6.28082C27.8278 5.94333 29.5169 5.77458 30.8681 5.85895C33.0639 6.11207 33.7395 6.78706 36.1042 11.5963C37.6244 14.6337 39.5668 20.4555 40.4958 24.6741C42.016 31.7615 42.016 32.3521 40.7492 33.2802C39.9891 33.8708 37.8778 34.377 32.9795 34.377L30.8681 27.8803C29.6858 24.2523 28.1656 18.093 27.49 14.1275Z" stroke="#222B52" stroke-width="2.1934"/>
<path d="M38.2156 10.162C36.6954 7.20892 35.7664 4.67773 36.1042 4.42461C36.3576 4.17149 37.6244 4.00275 38.8068 4.00275C40.2425 4.08712 42.1849 5.26834 44.4651 7.63079C46.9143 10.162 48.35 12.6088 49.4479 16.2368C50.2924 19.0211 51.137 22.8179 51.3903 24.6741C51.7281 27.5428 51.5592 28.2178 50.0391 29.1459C49.0256 29.6521 47.421 30.074 46.4076 29.9896C44.8874 29.7365 44.2962 28.5553 42.7761 22.5648C41.7626 18.5993 39.7357 13.0307 38.2156 10.162Z" stroke="#222B52" stroke-width="2.1934"/>
</svg>
