<svg width="60" height="44" viewBox="0 0 60 44" fill="none" xmlns="http://www.w3.org/2000/svg">
<path d="M33.9234 2.95098C34.5146 2.276 35.8659 1.51664 36.8793 1.26352C37.8928 1.09478 40.7642 1.09478 43.1289 1.26352C45.578 1.43227 48.6184 2.10725 49.8852 2.78224C51.2364 3.45722 53.0944 4.89156 54.1078 5.98841C55.1213 7.00089 56.557 9.36333 57.2326 11.1352C57.9927 12.8226 58.5839 15.4382 58.5839 16.7882C58.5839 18.2225 57.8238 21.0912 56.8103 23.3692C55.7969 25.5629 54.1923 28.1785 53.1788 29.2754C52.2499 30.2878 50.9831 31.1316 50.5608 31.1316C50.0541 31.1316 48.9562 31.8909 48.0272 32.819C47.0982 33.8315 44.649 35.1815 42.5377 35.8564C40.4264 36.6158 37.386 37.8814 35.7814 38.8095C34.1768 39.6532 31.8121 40.3282 30.4608 40.4126C29.194 40.4126 27.1672 41.0876 25.8159 41.8469C24.0424 42.9438 22.6067 43.1125 19.313 42.6063C16.9483 42.2688 13.739 41.4251 12.1344 40.7501C10.5298 39.9907 8.41847 38.8095 7.57393 38.0501C6.7294 37.2908 5.12478 34.7596 4.02689 32.3972C2.84454 29.866 2 26.6598 2 24.3817C2.08445 20.9224 2.42227 20.2474 6.64494 16.1975C9.17855 13.7507 12.3033 11.4727 13.5701 11.1352C14.9214 10.882 16.8638 9.86957 18.0462 9.02584C19.2285 8.18211 20.6642 7.42275 21.171 7.50712C21.7621 7.50712 23.0289 6.74777 23.9579 5.81966C25.1403 4.63844 26.7449 4.1322 29.194 4.1322C31.3898 4.21658 33.2478 3.71034 33.9234 2.95098Z" fill="#222B52" stroke="#222B52" stroke-width="2.1934"/>
<path d="M4.44916 24.9723C4.36471 23.4536 5.04033 21.2599 5.88487 20.1631L7.40503 18.0537L8.75629 23.9599C9.51637 27.166 10.8676 31.2159 11.6277 32.819C12.4722 34.4221 13.8235 36.4471 14.5836 37.2908C15.8504 38.6408 15.8504 38.8095 14.4991 38.7251C13.6546 38.7251 11.9655 38.0501 10.7832 37.2908C9.51637 36.4471 7.65839 34.0002 6.5605 31.8065C5.4626 29.5285 4.53361 26.491 4.44916 24.9723Z" fill="#FCFCFC"/>
<path d="M11.2054 20.4162C11.0365 16.0288 11.2899 15.1007 12.6412 14.3413C13.5701 13.8351 14.7525 13.4976 15.3437 13.4976C15.9348 13.4132 16.3571 14.257 16.3571 15.3538C16.3571 16.3663 16.9483 19.1506 17.6239 21.4287C18.2995 23.7911 20.5798 28.516 22.7756 31.9753C26.4071 37.9658 26.4915 38.3876 25.0558 39.4001C24.2113 39.9907 22.7756 40.497 21.8466 40.4126C20.9176 40.4126 19.0596 39.0626 17.7084 37.2908C16.3571 35.519 14.3302 32.2284 13.2323 29.866C11.9655 27.166 11.2899 23.8755 11.2054 20.4162Z" fill="#FCFCFC"/>
<path d="M19.5663 17.9694C18.6374 13.6664 18.6374 12.5695 19.6508 11.3883C20.242 10.7133 21.4243 10.0383 22.0999 10.0383C23.0289 10.0383 23.5357 11.0508 23.789 13.2445C23.9579 14.9319 24.9714 18.3912 26.1537 20.8381C27.2516 23.2849 30.123 27.2504 32.4033 29.6972C34.6835 32.144 36.626 34.4221 36.626 34.7596C36.626 35.0971 35.5281 35.9408 34.0923 36.6158C31.981 37.7127 31.3054 37.7127 29.7008 36.7845C28.6029 36.1096 26.1537 32.819 24.2113 29.3597C22.1844 25.8161 20.1575 20.9224 19.5663 17.9694Z" fill="#FCFCFC"/>
<path d="M25.9848 12.1476C25.647 10.2914 25.7315 8.26648 26.0693 7.67587C26.4071 7.08526 27.6739 6.74776 28.7718 6.83214C30.4608 7.08526 31.2209 8.01336 32.4877 11.3039C33.4167 13.6664 35.5281 17.4631 37.3016 19.7412C38.9907 22.0193 42.031 25.0567 43.9734 26.491C45.8314 27.9254 47.1826 29.4441 46.9293 29.9503C46.5915 30.4566 45.4091 31.4691 44.2268 32.2284C43.0444 33.0721 41.6932 33.6627 41.102 33.6627C40.5108 33.6627 38.0617 31.8909 35.697 29.6972C33.1634 27.3348 30.3764 23.538 28.9407 20.5849C27.5894 17.8006 26.2382 14.0038 25.9848 12.1476Z" fill="#FCFCFC"/>
<path d="M34.0079 7.254C33.9234 6.66339 34.1768 5.90403 34.5146 5.56654C34.9369 5.22905 35.6125 4.97593 36.1192 4.97593C36.626 4.97593 37.7239 6.49465 38.4839 8.35085C39.3285 10.2071 41.102 12.9914 42.4533 14.5101C43.7201 16.0288 46.7604 18.4756 49.2095 19.9943C51.6587 21.513 53.5167 23.3692 53.6011 24.213C53.6011 24.9723 53.0099 26.1536 52.3343 26.7442C51.2364 27.5879 50.5608 27.5879 48.7028 26.6598C47.436 25.9848 44.5646 23.6224 42.2843 21.3443C40.0886 19.0662 37.3016 15.2694 36.2037 12.8226C35.0213 10.3758 34.0079 7.84461 34.0079 7.254Z" fill="#FCFCFC"/>
<path d="M41.6087 8.77272C40.2575 6.91651 39.1596 5.14468 39.1596 4.80719C39.1596 4.46969 41.0175 4.1322 43.2133 4.1322C45.7469 4.1322 48.1961 4.80719 49.9696 5.81966C51.4898 6.74776 53.4322 9.11021 54.3612 11.1352C55.2902 13.0757 56.0503 15.9444 56.0503 17.4631C56.0503 19.0662 55.628 20.1631 55.0368 20.1631C54.4457 20.1631 53.0099 19.5725 51.8276 18.8131C50.6452 18.0537 48.4495 16.1975 46.8448 14.7632C45.3247 13.3289 42.96 10.6289 41.6087 8.77272Z" fill="#FCFCFC"/>
<path d="M4.44916 24.9723C4.36471 23.4536 5.04033 21.2599 5.88487 20.1631L7.40503 18.0537L8.75629 23.9599C9.51637 27.166 10.8676 31.2159 11.6277 32.819C12.4722 34.4221 13.8235 36.4471 14.5836 37.2908C15.8504 38.6408 15.8504 38.8095 14.4991 38.7251C13.6546 38.7251 11.9655 38.0501 10.7832 37.2908C9.51637 36.4471 7.65839 34.0002 6.5605 31.8065C5.4626 29.5285 4.53361 26.491 4.44916 24.9723Z" stroke="#222B52" stroke-width="2.1934"/>
<path d="M11.2054 20.4162C11.0365 16.0288 11.2899 15.1007 12.6412 14.3413C13.5701 13.8351 14.7525 13.4976 15.3437 13.4976C15.9348 13.4132 16.3571 14.257 16.3571 15.3538C16.3571 16.3663 16.9483 19.1506 17.6239 21.4287C18.2995 23.7911 20.5798 28.516 22.7756 31.9753C26.4071 37.9658 26.4915 38.3876 25.0558 39.4001C24.2113 39.9907 22.7756 40.497 21.8466 40.4126C20.9176 40.4126 19.0596 39.0626 17.7084 37.2908C16.3571 35.519 14.3302 32.2284 13.2323 29.866C11.9655 27.166 11.2899 23.8755 11.2054 20.4162Z" stroke="#222B52" stroke-width="2.1934"/>
<path d="M19.5663 17.9694C18.6374 13.6664 18.6374 12.5695 19.6508 11.3883C20.242 10.7133 21.4243 10.0383 22.0999 10.0383C23.0289 10.0383 23.5357 11.0508 23.789 13.2445C23.9579 14.9319 24.9714 18.3912 26.1537 20.8381C27.2516 23.2849 30.123 27.2504 32.4033 29.6972C34.6835 32.144 36.626 34.4221 36.626 34.7596C36.626 35.0971 35.5281 35.9408 34.0923 36.6158C31.981 37.7127 31.3054 37.7127 29.7008 36.7845C28.6029 36.1096 26.1537 32.819 24.2113 29.3597C22.1844 25.8161 20.1575 20.9224 19.5663 17.9694Z" stroke="#222B52" stroke-width="2.1934"/>
<path d="M25.9848 12.1476C25.647 10.2914 25.7315 8.26648 26.0693 7.67587C26.4071 7.08526 27.6739 6.74776 28.7718 6.83214C30.4608 7.08526 31.2209 8.01336 32.4877 11.3039C33.4167 13.6664 35.5281 17.4631 37.3016 19.7412C38.9907 22.0193 42.031 25.0567 43.9734 26.491C45.8314 27.9254 47.1826 29.4441 46.9293 29.9503C46.5915 30.4566 45.4091 31.4691 44.2268 32.2284C43.0444 33.0721 41.6932 33.6627 41.102 33.6627C40.5108 33.6627 38.0617 31.8909 35.697 29.6972C33.1634 27.3348 30.3764 23.538 28.9407 20.5849C27.5894 17.8006 26.2382 14.0038 25.9848 12.1476Z" stroke="#222B52" stroke-width="2.1934"/>
<path d="M34.0079 7.254C33.9234 6.66339 34.1768 5.90403 34.5146 5.56654C34.9369 5.22905 35.6125 4.97593 36.1192 4.97593C36.626 4.97593 37.7239 6.49465 38.4839 8.35085C39.3285 10.2071 41.102 12.9914 42.4533 14.5101C43.7201 16.0288 46.7604 18.4756 49.2095 19.9943C51.6587 21.513 53.5167 23.3692 53.6011 24.213C53.6011 24.9723 53.0099 26.1536 52.3343 26.7442C51.2364 27.5879 50.5608 27.5879 48.7028 26.6598C47.436 25.9848 44.5646 23.6224 42.2843 21.3443C40.0886 19.0662 37.3016 15.2694 36.2037 12.8226C35.0213 10.3758 34.0079 7.84461 34.0079 7.254Z" stroke="#222B52" stroke-width="2.1934"/>
<path d="M41.6087 8.77272C40.2575 6.91651 39.1596 5.14468 39.1596 4.80719C39.1596 4.46969 41.0175 4.1322 43.2133 4.1322C45.7469 4.1322 48.1961 4.80719 49.9696 5.81966C51.4898 6.74776 53.4322 9.11021 54.3612 11.1352C55.2902 13.0757 56.0503 15.9444 56.0503 17.4631C56.0503 19.0662 55.628 20.1631 55.0368 20.1631C54.4457 20.1631 53.0099 19.5725 51.8276 18.8131C50.6452 18.0537 48.4495 16.1975 46.8448 14.7632C45.3247 13.3289 42.96 10.6289 41.6087 8.77272Z" stroke="#222B52" stroke-width="2.1934"/>
</svg>
