<svg width="73" height="51" viewBox="0 0 73 51" fill="none" xmlns="http://www.w3.org/2000/svg">
<path d="M27.9272 3.44736C29.7008 3.44736 31.7276 3.10986 32.4033 2.688C33.0789 2.26613 36.9638 1.92864 40.9331 2.01302C46.5915 2.18176 48.6184 2.51925 49.8007 3.6161C50.8141 4.54421 52.7566 5.05044 54.7835 5.05044C57.2326 5.05044 59.175 5.8098 61.7931 7.66601C63.7355 9.01597 66.5225 11.8003 67.8738 13.7409C69.3095 15.7658 70.9141 18.8876 71.3363 20.7438C71.8431 22.6 72.012 25.4687 71.7586 27.0718C71.4208 28.6749 70.4918 31.2904 69.5628 32.7248C68.6338 34.2435 66.6914 36.0153 65.3402 36.5216C63.9044 37.1122 62.8065 37.8715 62.8065 38.209C62.8065 38.6309 61.7931 39.8121 60.5263 40.9933C58.6683 42.6808 57.3171 43.187 53.9389 43.187C50.4763 43.187 49.2095 43.6089 47.0137 45.6339C45.4936 47.0682 43.5511 48.165 42.7911 48.0807C41.9465 48.0807 40.5108 47.7432 39.5818 47.4057C38.4839 47.0682 36.7949 47.3213 34.9369 48.3338C32.5722 49.515 30.2919 49.7681 23.789 49.5994C15.8504 49.4306 15.5126 49.3463 12.8101 46.7307C11.2899 45.212 9.60082 43.9464 9.17855 43.9464C8.75628 43.9464 7.32057 42.9339 6.05377 41.6683C4.78697 40.3184 3.35126 38.2934 2.92899 36.9434C2.42227 35.6778 2 32.7248 2 30.4467C2 28.0843 2.59117 24.8781 3.2668 23.275C3.94243 21.6719 5.71596 19.4782 7.06721 18.3814C8.50292 17.3689 9.60082 16.1033 9.60082 15.6814C9.60082 15.2596 10.2764 13.8252 11.2899 12.4753C12.2189 11.2097 14.4991 9.77533 16.526 9.10035C18.4684 8.59411 21.0865 7.07539 22.3533 5.72543C24.0424 4.03797 25.4781 3.44736 27.9272 3.44736Z" fill="#222B52" stroke="#222B52" stroke-width="2.1934"/>
<path d="M5.80037 37.1965C5.12474 35.8466 4.61802 34.2435 4.70248 33.7372C4.70248 33.231 5.29365 33.0623 5.96928 33.3154C6.56045 33.5685 7.91171 33.8216 8.92515 33.8216C10.6142 33.8216 10.8676 34.2435 10.8676 37.6184C10.8676 39.7277 10.7831 41.4152 10.6142 41.4152C10.5298 41.4152 9.68523 40.9933 8.75625 40.5715C7.82726 40.1496 6.476 38.6309 5.80037 37.1965Z" fill="#FCFCFC"/>
<path d="M13.9924 35.1716C14.4991 34.3279 15.8503 33.1466 17.1171 32.556C18.2995 31.881 19.8197 31.3748 20.4108 31.3748C21.0865 31.2904 21.7621 33.6529 22.2688 38.7152C22.9444 44.537 22.9444 46.2244 22.0999 46.6463C21.5087 46.9838 20.2419 47.3213 19.3129 47.3213C18.3839 47.4057 16.7793 46.7307 15.8503 45.887C14.668 44.8745 13.8235 43.0183 13.5701 40.5715C13.3167 38.4621 13.5701 36.0997 13.9924 35.1716Z" fill="#FCFCFC"/>
<path d="M24.3801 32.8091C24.6335 31.9654 25.8159 31.1217 27.0827 30.9529C28.4339 30.8686 30.2919 30.6154 31.3053 30.5311C33.0789 30.4467 33.2478 30.8686 33.2478 34.4966C33.3322 36.6903 33.7545 39.8965 34.3457 41.6683C35.0213 43.7495 35.0776 45.0713 34.5146 45.6338C34.0923 46.0557 32.3188 46.7307 30.7142 46.9838C28.3495 47.49 27.5894 47.2369 26.7448 45.9713C26.2381 45.1276 25.3936 42.0902 24.8869 39.3059C24.2957 36.5216 24.1268 33.5685 24.3801 32.8091Z" fill="#FCFCFC"/>
<path d="M36.1192 31.1217C36.5415 29.0967 37.0482 28.7592 40.173 28.5061C42.1998 28.3374 43.9734 28.1686 44.2267 28.0843C44.4801 27.9999 44.7334 29.5186 44.7334 31.5435C44.7334 33.4841 45.4091 36.3528 46.1692 37.8715C47.436 40.3183 47.436 40.8246 46.3381 42.6808C45.4091 44.2839 44.3956 44.7901 42.1154 44.7901C39.9196 44.7901 38.8217 44.2839 37.9772 42.9339C37.386 41.837 36.5415 39.3059 36.2036 37.1965C35.8658 35.0872 35.7814 32.3873 36.1192 31.1217Z" fill="#FCFCFC"/>
<path d="M47.6049 31.2904C47.6049 27.4936 47.6049 27.4936 51.6586 26.1437C53.8544 25.3843 56.1347 24.7093 56.6414 24.625C57.2326 24.625 57.7393 25.3843 57.7393 26.4812C57.7393 27.4936 58.5838 30.0248 59.5128 32.1342C61.2863 35.9309 61.2863 35.9309 59.6817 38.0403C58.4149 39.559 57.0637 40.234 54.5301 40.4027C51.3208 40.5715 50.8141 40.3183 49.2939 37.8715C48.2805 36.1841 47.6049 33.5685 47.6049 31.2904Z" fill="#FCFCFC"/>
<path d="M4.53357 28.3374C4.53357 27.6624 5.12474 25.7218 5.88483 24.1187C6.64491 22.5156 7.5739 21.1657 7.99616 21.1657C8.41843 21.1657 8.75625 22.0094 8.75625 23.1062C8.75625 24.1187 9.51633 26.228 10.4453 27.7468C11.3743 29.1811 12.1344 30.6154 12.1344 30.8686C12.1344 31.1217 11.2054 31.2904 10.023 31.2904C8.8407 31.2904 7.15163 30.8686 6.22264 30.4467C5.29365 30.0248 4.53357 29.0124 4.53357 28.3374Z" fill="#FCFCFC"/>
<path d="M60.2729 25.3843C60.2729 24.4562 61.5397 22.0094 62.9754 19.9844C64.4956 17.8751 66.0157 16.1877 66.3535 16.1877C66.7758 16.1033 67.6204 18.1282 68.296 20.4907C69.225 23.7812 69.3094 25.8062 68.7183 27.9155C68.296 29.5186 67.1981 31.5435 66.2691 32.3873C65.2557 33.1466 64.0733 33.6529 63.651 33.3998C63.2288 33.1466 62.2153 31.6279 61.5397 30.0248C60.8641 28.4217 60.2729 26.3124 60.2729 25.3843Z" fill="#FCFCFC"/>
<path d="M11.6277 18.8876C11.9655 16.1877 12.81 14.6689 14.7524 13.1502C16.1882 11.969 17.6239 11.0409 17.9617 11.0409C18.2995 11.0409 18.5529 13.994 18.4684 17.5376C18.4684 21.1657 18.8062 25.0468 19.144 26.228C19.7352 27.9999 19.4818 28.5061 17.7083 29.4342C15.6814 30.3623 15.3436 30.278 13.8235 28.1686C12.81 26.8187 11.881 25.0468 11.5432 24.1187C11.2899 23.1906 11.3743 20.8282 11.6277 18.8876Z" fill="#FCFCFC"/>
<path d="M52.1654 13.4034C51.8275 11.8846 51.8275 9.94406 52.0809 9.1847C52.4187 8.2566 53.5166 7.66599 54.9523 7.66599C56.3036 7.66599 58.6683 8.59409 60.2729 9.77532C61.8775 10.9565 63.4821 12.5596 63.8199 13.1502C64.3267 13.994 63.3977 15.5971 57.7393 21.5875L55.2057 18.8876C53.8544 17.3689 52.4187 14.8377 52.1654 13.4034Z" fill="#FCFCFC"/>
<path d="M21.8465 12.7284C22.5222 10.1972 23.7045 7.58162 24.5491 7.07538C25.3936 6.48477 26.6604 5.97853 27.5049 5.97853C28.6028 5.97853 28.9406 6.48477 28.6873 7.91911C28.4339 8.93159 28.0117 11.294 27.7583 13.1502C27.336 15.2596 27.5894 17.9595 28.265 20.2376C28.9406 22.2625 30.123 24.5406 30.9675 25.2999C31.8121 26.0593 32.4877 26.903 32.4032 27.3249C32.4032 27.6624 30.2919 27.9155 27.7583 27.9155C23.2823 27.9155 23.1133 27.8311 21.8465 24.9625C21.1709 23.3594 20.5797 20.9969 20.5797 19.7313C20.5797 18.3814 21.1709 15.2596 21.8465 12.7284Z" fill="#FCFCFC"/>
<path d="M40.0041 12.9815C40.0041 8.76284 40.3419 7.3285 41.6931 5.97853C42.6221 5.05043 44.0578 4.29107 44.8179 4.29107C45.6624 4.2067 46.9292 4.88168 47.6893 5.72541C48.4494 6.56914 49.2095 9.10033 49.4628 11.4628C49.6318 14.1627 50.5607 16.947 52.0809 19.2251C54.1078 22.5156 54.1922 22.8531 52.841 23.1906C52.0809 23.4437 49.8007 23.7812 47.7738 24.0343C44.3956 24.5406 44.1423 24.3718 42.1154 21.3344C40.4263 18.8032 40.0041 17.2001 40.0041 12.9815Z" fill="#FCFCFC"/>
<path d="M31.6432 7.91911C32.2343 6.65351 33.0789 5.30355 33.5856 4.96606C34.0923 4.54419 35.2747 4.37544 36.2036 4.45982C37.8083 4.71294 37.8927 5.21917 37.6394 11.8846C37.386 18.4657 37.4704 19.3095 39.4973 22.1781C40.6797 23.95 41.6931 25.5531 41.6931 25.8062C41.6931 26.0593 40.173 26.228 38.315 26.228C35.6125 26.228 34.5146 25.7218 32.8255 23.6969C31.052 21.5875 30.7142 20.3219 30.7142 15.6814C30.7142 12.644 31.1364 9.1847 31.6432 7.91911Z" fill="#FCFCFC"/>
<path d="M5.80037 37.1965C5.12474 35.8466 4.61802 34.2435 4.70248 33.7372C4.70248 33.231 5.29365 33.0623 5.96928 33.3154C6.56045 33.5685 7.91171 33.8216 8.92515 33.8216C10.6142 33.8216 10.8676 34.2435 10.8676 37.6184C10.8676 39.7277 10.7831 41.4152 10.6142 41.4152C10.5298 41.4152 9.68523 40.9933 8.75625 40.5715C7.82726 40.1496 6.476 38.6309 5.80037 37.1965Z" stroke="#222B52" stroke-width="2.1934"/>
<path d="M13.9924 35.1716C14.4991 34.3279 15.8503 33.1466 17.1171 32.556C18.2995 31.881 19.8197 31.3748 20.4108 31.3748C21.0865 31.2904 21.7621 33.6529 22.2688 38.7152C22.9444 44.537 22.9444 46.2244 22.0999 46.6463C21.5087 46.9838 20.2419 47.3213 19.3129 47.3213C18.3839 47.4057 16.7793 46.7307 15.8503 45.887C14.668 44.8745 13.8235 43.0183 13.5701 40.5715C13.3167 38.4621 13.5701 36.0997 13.9924 35.1716Z" stroke="#222B52" stroke-width="2.1934"/>
<path d="M24.3801 32.8091C24.6335 31.9654 25.8159 31.1217 27.0827 30.9529C28.4339 30.8686 30.2919 30.6154 31.3053 30.5311C33.0789 30.4467 33.2478 30.8686 33.2478 34.4966C33.3322 36.6903 33.7545 39.8965 34.3457 41.6683C35.0213 43.7495 35.0776 45.0713 34.5146 45.6338C34.0923 46.0557 32.3188 46.7307 30.7142 46.9838C28.3495 47.49 27.5894 47.2369 26.7448 45.9713C26.2381 45.1276 25.3936 42.0902 24.8869 39.3059C24.2957 36.5216 24.1268 33.5685 24.3801 32.8091Z" stroke="#222B52" stroke-width="2.1934"/>
<path d="M36.1192 31.1217C36.5415 29.0967 37.0482 28.7592 40.173 28.5061C42.1998 28.3374 43.9734 28.1686 44.2267 28.0843C44.4801 27.9999 44.7334 29.5186 44.7334 31.5435C44.7334 33.4841 45.4091 36.3528 46.1692 37.8715C47.436 40.3183 47.436 40.8246 46.3381 42.6808C45.4091 44.2839 44.3956 44.7901 42.1154 44.7901C39.9196 44.7901 38.8217 44.2839 37.9772 42.9339C37.386 41.837 36.5415 39.3059 36.2036 37.1965C35.8658 35.0872 35.7814 32.3873 36.1192 31.1217Z" stroke="#222B52" stroke-width="2.1934"/>
<path d="M47.6049 31.2904C47.6049 27.4936 47.6049 27.4936 51.6586 26.1437C53.8544 25.3843 56.1347 24.7093 56.6414 24.625C57.2326 24.625 57.7393 25.3843 57.7393 26.4812C57.7393 27.4936 58.5838 30.0248 59.5128 32.1342C61.2863 35.9309 61.2863 35.9309 59.6817 38.0403C58.4149 39.559 57.0637 40.234 54.5301 40.4027C51.3208 40.5715 50.8141 40.3183 49.2939 37.8715C48.2805 36.1841 47.6049 33.5685 47.6049 31.2904Z" stroke="#222B52" stroke-width="2.1934"/>
<path d="M4.53357 28.3374C4.53357 27.6624 5.12474 25.7218 5.88483 24.1187C6.64491 22.5156 7.5739 21.1657 7.99616 21.1657C8.41843 21.1657 8.75625 22.0094 8.75625 23.1062C8.75625 24.1187 9.51633 26.228 10.4453 27.7468C11.3743 29.1811 12.1344 30.6154 12.1344 30.8686C12.1344 31.1217 11.2054 31.2904 10.023 31.2904C8.8407 31.2904 7.15163 30.8686 6.22264 30.4467C5.29365 30.0248 4.53357 29.0124 4.53357 28.3374Z" stroke="#222B52" stroke-width="2.1934"/>
<path d="M60.2729 25.3843C60.2729 24.4562 61.5397 22.0094 62.9754 19.9844C64.4956 17.8751 66.0157 16.1877 66.3535 16.1877C66.7758 16.1033 67.6204 18.1282 68.296 20.4907C69.225 23.7812 69.3094 25.8062 68.7183 27.9155C68.296 29.5186 67.1981 31.5435 66.2691 32.3873C65.2557 33.1466 64.0733 33.6529 63.651 33.3998C63.2288 33.1466 62.2153 31.6279 61.5397 30.0248C60.8641 28.4217 60.2729 26.3124 60.2729 25.3843Z" stroke="#222B52" stroke-width="2.1934"/>
<path d="M11.6277 18.8876C11.9655 16.1877 12.81 14.6689 14.7524 13.1502C16.1882 11.969 17.6239 11.0409 17.9617 11.0409C18.2995 11.0409 18.5529 13.994 18.4684 17.5376C18.4684 21.1657 18.8062 25.0468 19.144 26.228C19.7352 27.9999 19.4818 28.5061 17.7083 29.4342C15.6814 30.3623 15.3436 30.278 13.8235 28.1686C12.81 26.8187 11.881 25.0468 11.5432 24.1187C11.2899 23.1906 11.3743 20.8282 11.6277 18.8876Z" stroke="#222B52" stroke-width="2.1934"/>
<path d="M52.1654 13.4034C51.8275 11.8846 51.8275 9.94406 52.0809 9.1847C52.4187 8.2566 53.5166 7.66599 54.9523 7.66599C56.3036 7.66599 58.6683 8.59409 60.2729 9.77532C61.8775 10.9565 63.4821 12.5596 63.8199 13.1502C64.3267 13.994 63.3977 15.5971 57.7393 21.5875L55.2057 18.8876C53.8544 17.3689 52.4187 14.8377 52.1654 13.4034Z" stroke="#222B52" stroke-width="2.1934"/>
<path d="M21.8465 12.7284C22.5222 10.1972 23.7045 7.58162 24.5491 7.07538C25.3936 6.48477 26.6604 5.97853 27.5049 5.97853C28.6028 5.97853 28.9406 6.48477 28.6873 7.91911C28.4339 8.93159 28.0117 11.294 27.7583 13.1502C27.336 15.2596 27.5894 17.9595 28.265 20.2376C28.9406 22.2625 30.123 24.5406 30.9675 25.2999C31.8121 26.0593 32.4877 26.903 32.4032 27.3249C32.4032 27.6624 30.2919 27.9155 27.7583 27.9155C23.2823 27.9155 23.1133 27.8311 21.8465 24.9625C21.1709 23.3594 20.5797 20.9969 20.5797 19.7313C20.5797 18.3814 21.1709 15.2596 21.8465 12.7284Z" stroke="#222B52" stroke-width="2.1934"/>
<path d="M40.0041 12.9815C40.0041 8.76284 40.3419 7.3285 41.6931 5.97853C42.6221 5.05043 44.0578 4.29107 44.8179 4.29107C45.6624 4.2067 46.9292 4.88168 47.6893 5.72541C48.4494 6.56914 49.2095 9.10033 49.4628 11.4628C49.6318 14.1627 50.5607 16.947 52.0809 19.2251C54.1078 22.5156 54.1922 22.8531 52.841 23.1906C52.0809 23.4437 49.8007 23.7812 47.7738 24.0343C44.3956 24.5406 44.1423 24.3718 42.1154 21.3344C40.4263 18.8032 40.0041 17.2001 40.0041 12.9815Z" stroke="#222B52" stroke-width="2.1934"/>
<path d="M31.6432 7.91911C32.2343 6.65351 33.0789 5.30355 33.5856 4.96606C34.0923 4.54419 35.2747 4.37544 36.2036 4.45982C37.8083 4.71294 37.8927 5.21917 37.6394 11.8846C37.386 18.4657 37.4704 19.3095 39.4973 22.1781C40.6797 23.95 41.6931 25.5531 41.6931 25.8062C41.6931 26.0593 40.173 26.228 38.315 26.228C35.6125 26.228 34.5146 25.7218 32.8255 23.6969C31.052 21.5875 30.7142 20.3219 30.7142 15.6814C30.7142 12.644 31.1364 9.1847 31.6432 7.91911Z" stroke="#222B52" stroke-width="2.1934"/>
</svg>
