<svg width="52" height="63" viewBox="0 0 52 63" fill="none" xmlns="http://www.w3.org/2000/svg">
<path d="M10.3204 5.55166C11.3338 4.53918 13.1918 3.35796 14.3741 2.85172C15.5565 2.42986 18.3434 2.00799 20.7081 2.00799C23.2417 1.92362 26.0287 2.51423 27.5489 3.44234C29.069 4.20169 31.6871 5.88915 33.4606 7.07037C35.3186 8.2516 37.5988 10.3609 38.6123 11.7109C39.7102 13.0609 40.8081 14.4108 41.1459 14.7483C41.5682 15.0858 43.0883 16.3514 44.6085 17.5326C46.5509 19.0513 47.4799 20.5701 47.7333 22.8481C47.9866 24.5356 48.7467 27.1511 49.4223 28.5011C50.0135 29.9355 50.5202 33.6479 50.5202 36.9384C50.6047 40.229 50.098 44.0257 49.5068 45.3757C48.9156 46.8101 47.6488 49.4256 46.8043 51.2818C45.9597 53.0537 43.6795 55.7536 41.8215 57.1879C39.7102 58.8754 36.5009 60.2254 33.3762 60.9003C30.5892 61.491 26.7043 61.7441 24.7619 61.491C22.735 61.2378 20.0325 60.3941 18.5968 59.7191C17.1611 59.0441 15.3876 57.3567 14.543 55.9223C13.7829 54.5724 12.1783 52.9693 11.0804 52.3787C9.98254 51.7881 8.54683 50.2693 7.95565 49.0038C7.28003 47.6538 6.77331 45.2913 6.77331 43.6883C6.77331 41.7477 6.26658 40.4821 5.42205 40.1446C4.66197 39.7227 3.56407 38.5415 2.9729 37.3603C2.38172 36.1791 1.95945 32.0448 1.875 28.0793C1.875 21.4982 2.12836 20.4013 5.08423 14.1577C6.85776 10.4453 9.22246 6.56414 10.3204 5.55166Z" fill="#222B52" stroke="#222B52" stroke-width="2.1934"/>
<path d="M17.0766 52.0412C17.6678 51.3662 20.0325 49.7631 22.3972 48.6663C25.2686 47.2319 27.7178 46.6413 33.3762 47.0632L33.7984 58.4535L30.1669 58.9598C28.2245 59.2129 24.8464 59.0441 22.6506 58.5379C19.8636 57.8629 18.1745 56.9348 17.33 55.5005C16.3166 53.813 16.2321 53.138 17.0766 52.0412Z" fill="#FCFCFC"/>
<path d="M37.3455 56.7661C36.6699 56.7661 36.3321 55.0786 36.3321 51.2818V45.7976H39.9636C41.906 45.7976 43.9329 46.1351 44.4396 46.5569C45.1152 47.1475 45.1152 48.0757 44.4396 50.1006C43.9329 51.6193 42.4127 53.7286 40.977 54.7411C39.5413 55.838 37.9367 56.7661 37.3455 56.7661Z" fill="#FCFCFC"/>
<path d="M34.3052 40.3133C33.5451 38.4571 32.9539 36.6853 32.9539 36.2634C32.9539 35.9259 34.3896 35.6728 36.0787 35.6728C37.8522 35.7572 41.1459 36.4322 43.5106 37.2759C47.311 38.5415 47.7333 38.9634 47.7333 43.6883H35.572L34.3052 40.3133Z" fill="#FCFCFC"/>
<path d="M14.7964 37.9509C17.1611 36.854 19.6103 35.6728 20.2859 35.4197C20.9615 35.1666 23.3262 34.9135 25.6065 34.9135C29.4913 34.8291 29.5758 34.9135 30.927 38.3728C31.6871 40.3977 32.4472 42.3383 32.6161 42.8445C32.8695 43.3508 31.0115 43.857 28.5623 44.1101C25.8598 44.4476 22.5661 45.5445 20.2859 46.8944C18.1745 48.16 15.8098 49.6787 15.0498 50.2694C13.8674 51.1131 13.2762 50.9443 11.4183 49.1725C10.067 47.8225 9.30692 46.1351 9.30692 44.532C9.30692 43.0976 9.64473 41.5789 9.98255 40.9883C10.3204 40.4821 12.5162 39.1321 14.7964 37.9509Z" fill="#FCFCFC"/>
<path d="M5.50651 29.7667C6.26659 28.248 8.20902 26.5605 10.3204 25.5481H10.4048C13.1073 24.1981 15.3031 23.8606 19.6947 24.0293C24.7619 24.2825 25.6909 24.5356 27.1266 26.3918C28.0556 27.573 28.8157 29.3448 28.7312 30.3573C28.7312 32.0448 28.309 32.2979 25.1842 32.2979C23.1573 32.2979 19.8636 32.8885 17.7523 33.5635C15.6409 34.3229 12.5162 35.8416 7.61785 39.0477L5.92878 36.6853C4.91534 35.4197 4.15525 33.901 4.23971 33.3104C4.23971 32.8041 4.83088 31.1167 5.50651 29.7667Z" fill="#FCFCFC"/>
<path d="M29.4913 24.2825C29.4913 24.0293 30.5048 23.6919 31.7716 23.5231H31.856C33.1228 23.4387 34.4741 23.1856 34.9808 23.1012C35.4875 23.1012 37.1766 23.4387 38.7812 23.8606C40.3858 24.3668 43.1728 26.1387 44.9463 27.9105C46.6354 29.598 48.0711 31.6229 48.0711 32.2979C48.0711 32.9729 47.7333 33.9854 47.3955 34.576C46.9732 35.3353 46.0442 35.3353 43.4261 34.4072C41.5682 33.7322 38.2745 33.226 36.0787 33.1416C32.3627 33.1416 32.0249 32.9729 31.5182 30.7792C31.2648 29.5136 30.6737 27.6574 30.2514 26.5605C29.8291 25.5481 29.4913 24.5356 29.4913 24.2825Z" fill="#FCFCFC"/>
<path d="M26.7888 18.967C25.9443 16.267 26.0287 15.6764 27.38 14.7483C28.2245 14.2421 29.5758 13.7358 30.4203 13.7358C31.2648 13.7358 34.643 15.0858 37.8522 16.6889C41.0615 18.292 44.0173 20.2326 44.4396 20.9075C44.7774 21.5825 44.8619 22.3419 44.6085 22.595C44.3551 22.8481 42.6661 22.4263 40.8081 21.6669C38.6968 20.8232 36.1631 20.4857 34.0518 20.7388C32.1938 20.9919 29.998 21.4138 29.238 21.6669C28.0556 22.0888 27.4644 21.4138 26.7888 18.967Z" fill="#FCFCFC"/>
<path d="M5.3376 19.0513C6.09769 17.9545 8.29348 16.3514 10.2359 15.4233C12.1783 14.5796 15.5565 13.8202 17.8367 13.7358C21.5527 13.7358 21.8905 13.9046 23.0728 16.6889C23.7485 18.292 24.3396 19.8951 24.3396 20.2326C24.3396 20.6544 21.9749 20.9075 19.1035 20.9075C15.1342 20.9075 12.6006 21.4982 4.0708 25.5481V23.1856C4.0708 21.92 4.66198 20.0638 5.3376 19.0513Z" fill="#FCFCFC"/>
<path d="M9.05356 11.2047C9.72919 10.0234 10.7426 8.42034 11.5027 7.57661C12.1783 6.81726 13.3607 6.14227 14.1208 6.14227C14.8809 6.14227 16.3166 6.986 17.4145 8.08285C18.4279 9.09533 19.2724 10.1922 19.2724 10.5297C19.2724 10.9515 18.9346 11.0359 18.4279 10.7828C17.9212 10.5297 16.1477 10.6984 14.4586 11.1203C12.6851 11.5421 10.4893 12.2171 9.64473 12.5546C8.04012 13.2296 8.04012 13.1452 9.05356 11.2047Z" fill="#FCFCFC"/>
<path d="M21.806 9.26407C19.9481 7.32349 18.5124 5.38292 18.5968 4.96105C18.5968 4.53919 20.4548 4.45481 22.5661 4.70793C25.0997 5.04542 27.5489 6.0579 29.6602 7.82973C31.3493 9.1797 33.1228 10.3609 33.6295 10.3609C34.1363 10.3609 34.643 10.6984 34.8963 11.2047C35.1497 11.7109 34.1363 11.8796 32.1938 11.5421C30.3358 11.2047 28.1401 11.3734 27.1266 11.964C25.3531 12.8077 24.8464 12.4702 21.806 9.26407Z" fill="#FCFCFC"/>
<path d="M17.0766 52.0412C17.6678 51.3662 20.0325 49.7631 22.3972 48.6663C25.2686 47.2319 27.7178 46.6413 33.3762 47.0632L33.7984 58.4535L30.1669 58.9598C28.2245 59.2129 24.8464 59.0441 22.6506 58.5379C19.8636 57.8629 18.1745 56.9348 17.33 55.5005C16.3166 53.813 16.2321 53.138 17.0766 52.0412Z" stroke="#222B52" stroke-width="2.1934"/>
<path d="M37.3455 56.7661C36.6699 56.7661 36.3321 55.0786 36.3321 51.2818V45.7976H39.9636C41.906 45.7976 43.9329 46.1351 44.4396 46.5569C45.1152 47.1475 45.1152 48.0757 44.4396 50.1006C43.9329 51.6193 42.4127 53.7286 40.977 54.7411C39.5413 55.838 37.9367 56.7661 37.3455 56.7661Z" stroke="#222B52" stroke-width="2.1934"/>
<path d="M34.3052 40.3133C33.5451 38.4571 32.9539 36.6853 32.9539 36.2634C32.9539 35.9259 34.3896 35.6728 36.0787 35.6728C37.8522 35.7572 41.1459 36.4322 43.5106 37.2759C47.311 38.5415 47.7333 38.9634 47.7333 43.6883H35.572L34.3052 40.3133Z" stroke="#222B52" stroke-width="2.1934"/>
<path d="M14.7964 37.9509C17.1611 36.854 19.6103 35.6728 20.2859 35.4197C20.9615 35.1666 23.3262 34.9135 25.6065 34.9135C29.4913 34.8291 29.5758 34.9135 30.927 38.3728C31.6871 40.3977 32.4472 42.3383 32.6161 42.8445C32.8695 43.3508 31.0115 43.857 28.5623 44.1101C25.8598 44.4476 22.5661 45.5445 20.2859 46.8944C18.1745 48.16 15.8098 49.6787 15.0498 50.2694C13.8674 51.1131 13.2762 50.9443 11.4183 49.1725C10.067 47.8225 9.30692 46.1351 9.30692 44.532C9.30692 43.0976 9.64473 41.5789 9.98255 40.9883C10.3204 40.4821 12.5162 39.1321 14.7964 37.9509Z" stroke="#222B52" stroke-width="2.1934"/>
<path d="M5.50651 29.7667C6.26659 28.248 8.20902 26.5605 10.3204 25.5481H10.4048C13.1073 24.1981 15.3031 23.8606 19.6947 24.0293C24.7619 24.2825 25.6909 24.5356 27.1266 26.3918C28.0556 27.573 28.8157 29.3448 28.7312 30.3573C28.7312 32.0448 28.309 32.2979 25.1842 32.2979C23.1573 32.2979 19.8636 32.8885 17.7523 33.5635C15.6409 34.3229 12.5162 35.8416 7.61785 39.0477L5.92878 36.6853C4.91534 35.4197 4.15525 33.901 4.23971 33.3104C4.23971 32.8041 4.83088 31.1167 5.50651 29.7667Z" stroke="#222B52" stroke-width="2.1934"/>
<path d="M29.4913 24.2825C29.4913 24.0293 30.5048 23.6919 31.7716 23.5231H31.856C33.1228 23.4387 34.4741 23.1856 34.9808 23.1012C35.4875 23.1012 37.1766 23.4387 38.7812 23.8606C40.3858 24.3668 43.1728 26.1387 44.9463 27.9105C46.6354 29.598 48.0711 31.6229 48.0711 32.2979C48.0711 32.9729 47.7333 33.9854 47.3955 34.576C46.9732 35.3353 46.0442 35.3353 43.4261 34.4072C41.5682 33.7322 38.2745 33.226 36.0787 33.1416C32.3627 33.1416 32.0249 32.9729 31.5182 30.7792C31.2648 29.5136 30.6737 27.6574 30.2514 26.5605C29.8291 25.5481 29.4913 24.5356 29.4913 24.2825Z" stroke="#222B52" stroke-width="2.1934"/>
<path d="M26.7888 18.967C25.9443 16.267 26.0287 15.6764 27.38 14.7483C28.2245 14.2421 29.5758 13.7358 30.4203 13.7358C31.2648 13.7358 34.643 15.0858 37.8522 16.6889C41.0615 18.292 44.0173 20.2326 44.4396 20.9075C44.7774 21.5825 44.8619 22.3419 44.6085 22.595C44.3551 22.8481 42.6661 22.4263 40.8081 21.6669C38.6968 20.8232 36.1631 20.4857 34.0518 20.7388C32.1938 20.9919 29.998 21.4138 29.238 21.6669C28.0556 22.0888 27.4644 21.4138 26.7888 18.967Z" stroke="#222B52" stroke-width="2.1934"/>
<path d="M5.3376 19.0513C6.09769 17.9545 8.29348 16.3514 10.2359 15.4233C12.1783 14.5796 15.5565 13.8202 17.8367 13.7358C21.5527 13.7358 21.8905 13.9046 23.0728 16.6889C23.7485 18.292 24.3396 19.8951 24.3396 20.2326C24.3396 20.6544 21.9749 20.9075 19.1035 20.9075C15.1342 20.9075 12.6006 21.4982 4.0708 25.5481V23.1856C4.0708 21.92 4.66198 20.0638 5.3376 19.0513Z" stroke="#222B52" stroke-width="2.1934"/>
<path d="M9.05356 11.2047C9.72919 10.0234 10.7426 8.42034 11.5027 7.57661C12.1783 6.81726 13.3607 6.14227 14.1208 6.14227C14.8809 6.14227 16.3166 6.986 17.4145 8.08285C18.4279 9.09533 19.2724 10.1922 19.2724 10.5297C19.2724 10.9515 18.9346 11.0359 18.4279 10.7828C17.9212 10.5297 16.1477 10.6984 14.4586 11.1203C12.6851 11.5421 10.4893 12.2171 9.64473 12.5546C8.04012 13.2296 8.04012 13.1452 9.05356 11.2047Z" stroke="#222B52" stroke-width="2.1934"/>
<path d="M21.806 9.26407C19.9481 7.32349 18.5124 5.38292 18.5968 4.96105C18.5968 4.53919 20.4548 4.45481 22.5661 4.70793C25.0997 5.04542 27.5489 6.0579 29.6602 7.82973C31.3493 9.1797 33.1228 10.3609 33.6295 10.3609C34.1363 10.3609 34.643 10.6984 34.8963 11.2047C35.1497 11.7109 34.1363 11.8796 32.1938 11.5421C30.3358 11.2047 28.1401 11.3734 27.1266 11.964C25.3531 12.8077 24.8464 12.4702 21.806 9.26407Z" stroke="#222B52" stroke-width="2.1934"/>
</svg>
