<svg width="69" height="48" viewBox="0 0 69 48" fill="none" xmlns="http://www.w3.org/2000/svg">
<path d="M18.1137 4.79666C18.8738 3.61544 20.3095 2.34984 21.2385 1.92798C22.2519 1.50611 24.4477 1.33737 26.0523 1.59048C27.6569 1.8436 30.0216 2.01235 31.2884 2.01235C32.6397 1.92798 35.4267 1.92798 37.6225 1.92798H45.8989C48.1791 1.92798 51.2195 2.43421 52.5707 3.02483C53.922 3.53106 55.4422 4.88103 55.9489 5.80913C56.4556 6.82161 58.5669 8.93094 60.5938 10.4496C62.6207 12.0527 65.1543 14.837 66.0833 16.6933C67.1812 18.8026 67.7724 21.6713 67.7724 24.2868C67.7724 26.9868 67.0123 29.8554 65.8299 32.3023C64.732 34.4116 63.043 37.0271 62.0295 38.0396C61.1005 39.1365 58.8203 40.8239 57.0468 41.6677C55.3577 42.5114 52.9085 43.2707 51.5573 43.2707C50.2905 43.1864 48.6859 43.777 48.0102 44.5363C47.3346 45.2957 45.3922 46.0551 43.7876 46.3082C41.7607 46.6457 40.1561 46.3082 38.7204 45.2113C37.3691 44.2832 34.8355 43.6926 31.5418 43.6082C28.7548 43.4395 24.7855 43.3551 22.6742 43.3551C19.3805 43.3551 18.4515 42.9333 15.4956 39.9802C13.6376 38.124 10.344 35.0022 8.23262 32.9772C5.10784 30.1086 4.00995 28.3367 2.8276 24.2868C2.06752 21.5025 1.64525 18.2963 1.89861 17.1151C2.15197 15.9339 4.34776 13.234 6.71246 11.0403C10.0906 7.83409 11.6108 6.99036 13.891 6.99036C16.0868 6.99036 17.1002 6.48412 18.1137 4.79666Z" fill="#222B52" stroke="#222B52" stroke-width="2.1934"/>
<path d="M52.6551 36.9428C53.3307 35.0866 53.9219 32.8929 54.0064 31.9648C54.1753 30.8679 54.5975 30.6148 55.5265 31.0367C56.2866 31.3742 58.1446 31.8804 59.6648 32.1335C61.1849 32.471 62.3673 32.8929 62.4517 33.146C62.4517 33.3991 61.4383 34.5803 60.2559 35.9303C59.0736 37.1959 56.7089 38.799 54.9354 39.474C53.2463 40.2333 51.7261 40.7396 51.6417 40.5708C51.5572 40.4021 51.9795 38.799 52.6551 36.9428Z" fill="#FCFCFC"/>
<path d="M38.8892 29.8555L43.1963 29.518C45.6455 29.3492 48.2635 29.1805 49.0236 29.0961C50.0371 29.0117 50.7127 29.6023 50.8816 30.8679C51.0505 31.8804 50.8816 33.821 50.4593 35.2553C50.0371 36.6897 48.9392 38.8834 48.0946 40.3177C47.2501 41.752 45.4766 43.102 44.2942 43.5239C43.1119 43.8614 41.4228 43.777 40.5783 43.3551C39.3959 42.6801 39.1426 41.2458 38.8892 29.8555Z" fill="#FCFCFC"/>
<path d="M28.1636 41.1614V35.0022C28.1636 29.9398 28.3325 29.0117 29.4304 29.4336C30.106 29.7711 31.964 30.2773 33.4842 30.5304C34.9199 30.7836 36.3556 31.6273 36.6089 32.3023C36.8623 32.9773 36.8623 34.6647 36.6089 36.0991C36.3556 37.5334 35.511 39.3052 34.6665 40.149C33.822 41.0771 32.3018 41.5833 28.1636 41.1614Z" fill="#FCFCFC"/>
<path d="M18.6203 39.3052C17.3535 38.0396 17.0157 36.6053 17.1002 31.2898L17.1846 24.7087L19.296 26.3962C20.4783 27.4086 21.9985 28.0836 22.6741 28.0836C23.3497 28.0836 24.4476 29.0117 24.9544 30.1929C25.5455 31.3742 26.0523 33.4835 26.0523 34.8335C26.0523 36.2678 25.2922 38.124 24.3632 39.0521C23.4342 39.9802 22.0829 40.7396 21.4073 40.7396C20.7317 40.7396 19.4649 40.0646 18.6203 39.3052Z" fill="#FCFCFC"/>
<path d="M6.8813 27.2399C5.7834 25.2149 5.02332 23.0212 5.02332 22.3463C5.10778 21.7556 5.36114 21.4182 5.69895 21.5869C5.95231 21.7556 7.72584 22.5994 9.58381 23.4431C11.4418 24.2868 13.2153 25.3837 13.5531 25.8899C13.8909 26.4805 14.2288 28.5055 14.2288 30.4461C14.2288 32.471 13.9754 34.0741 13.5531 34.0741C13.2153 34.0741 12.033 33.3991 10.8506 32.5554C9.66827 31.6273 7.89474 29.2648 6.8813 27.2399Z" fill="#FCFCFC"/>
<path d="M56.54 22.2619C56.9622 20.5744 57.3001 17.8745 57.3001 16.1027C57.3001 14.1621 57.7223 12.9809 58.3135 12.8965C58.9047 12.8965 60.5093 14.0777 61.945 15.512C64.0563 17.7901 64.4786 18.887 64.6475 23.1056C64.9009 27.9149 64.8164 28.168 62.5362 29.0117C60.9316 29.6023 59.4114 29.6023 57.469 29.0117C55.4421 28.3367 54.8509 27.7461 55.2732 26.6493C55.5265 25.8899 56.1177 23.865 56.54 22.2619Z" fill="#FCFCFC"/>
<path d="M4.5166 16.1027L8.23256 12.8965C10.7099 10.7028 12.7367 9.60594 14.3132 9.60594C15.6645 9.60594 16.9313 9.94343 17.1846 10.4497C17.438 10.8715 17.2691 13.234 16.7624 15.6808C16.3401 18.1276 15.4111 20.5744 14.651 21.165C13.6376 22.0088 12.793 22.0088 10.5973 21.0807C9.16155 20.4901 7.13466 19.0557 4.5166 16.1027Z" fill="#FCFCFC"/>
<path d="M43.5341 12.6434C43.7875 6.82163 44.0409 5.9779 45.7299 5.30292C46.7434 4.88105 48.5169 4.79668 49.6992 5.0498C50.8816 5.30292 52.4862 6.14665 53.3307 6.906C54.5131 8.00285 54.7665 9.52156 54.682 13.8246C54.682 16.7776 54.1753 20.8275 52.5707 26.0587L46.7434 26.7337C43.4497 27.0711 40.7472 27.3243 40.6627 27.1555C40.5783 26.9868 41.085 25.1306 41.8451 23.1056C42.5207 20.9963 43.2808 16.2714 43.5341 12.6434Z" fill="#FCFCFC"/>
<path d="M32.6396 9.85906C32.5552 6.31539 32.8085 5.30292 34.1598 4.54356C35.0043 4.12169 36.44 3.69983 37.2001 3.69983C38.0447 3.69983 39.3115 3.86858 39.9871 4.12169C40.9161 4.37481 41.2539 5.89353 41.2539 9.77468C41.2539 12.7277 40.4938 17.6214 39.5648 20.7432C38.3825 24.7931 37.2846 26.7337 35.9333 27.4086C34.4976 28.0836 33.3153 28.0836 30.8661 27.1555C29.0926 26.5649 27.8258 25.6368 28.0791 25.2149C28.3325 24.7087 29.4304 22.0931 30.6127 19.3088C32.1329 15.7652 32.7241 12.8121 32.6396 9.85906Z" fill="#FCFCFC"/>
<path d="M19.7182 10.1965C19.3804 7.74973 19.6338 6.65288 20.985 5.38729C21.914 4.45919 23.5186 3.69983 24.5321 3.69983C25.63 3.69983 27.4035 4.29044 28.5014 5.13417C30.2749 6.48414 30.4438 7.15912 30.106 10.8715C29.9371 13.1496 28.5859 17.4526 27.2346 20.4057C25.8833 23.2744 24.2787 25.6368 23.6876 25.6368C23.1808 25.6368 21.6607 24.8774 20.3094 23.9493C18.0292 22.3463 18.0292 22.3463 19.1271 17.8745C19.7182 15.4277 19.9716 11.9684 19.7182 10.1965Z" fill="#FCFCFC"/>
<path d="M52.6551 36.9428C53.3307 35.0866 53.9219 32.8929 54.0064 31.9648C54.1753 30.8679 54.5975 30.6148 55.5265 31.0367C56.2866 31.3742 58.1446 31.8804 59.6648 32.1335C61.1849 32.471 62.3673 32.8929 62.4517 33.146C62.4517 33.3991 61.4383 34.5803 60.2559 35.9303C59.0736 37.1959 56.7089 38.799 54.9354 39.474C53.2463 40.2333 51.7261 40.7396 51.6417 40.5708C51.5572 40.4021 51.9795 38.799 52.6551 36.9428Z" stroke="#222B52" stroke-width="2.1934"/>
<path d="M38.8892 29.8555L43.1963 29.518C45.6455 29.3492 48.2635 29.1805 49.0236 29.0961C50.0371 29.0117 50.7127 29.6023 50.8816 30.8679C51.0505 31.8804 50.8816 33.821 50.4593 35.2553C50.0371 36.6897 48.9392 38.8834 48.0946 40.3177C47.2501 41.752 45.4766 43.102 44.2942 43.5239C43.1119 43.8614 41.4228 43.777 40.5783 43.3551C39.3959 42.6801 39.1426 41.2458 38.8892 29.8555Z" stroke="#222B52" stroke-width="2.1934"/>
<path d="M28.1636 41.1614V35.0022C28.1636 29.9398 28.3325 29.0117 29.4304 29.4336C30.106 29.7711 31.964 30.2773 33.4842 30.5304C34.9199 30.7836 36.3556 31.6273 36.6089 32.3023C36.8623 32.9773 36.8623 34.6647 36.6089 36.0991C36.3556 37.5334 35.511 39.3052 34.6665 40.149C33.822 41.0771 32.3018 41.5833 28.1636 41.1614Z" stroke="#222B52" stroke-width="2.1934"/>
<path d="M18.6203 39.3052C17.3535 38.0396 17.0157 36.6053 17.1002 31.2898L17.1846 24.7087L19.296 26.3962C20.4783 27.4086 21.9985 28.0836 22.6741 28.0836C23.3497 28.0836 24.4476 29.0117 24.9544 30.1929C25.5455 31.3742 26.0523 33.4835 26.0523 34.8335C26.0523 36.2678 25.2922 38.124 24.3632 39.0521C23.4342 39.9802 22.0829 40.7396 21.4073 40.7396C20.7317 40.7396 19.4649 40.0646 18.6203 39.3052Z" stroke="#222B52" stroke-width="2.1934"/>
<path d="M6.8813 27.2399C5.7834 25.2149 5.02332 23.0212 5.02332 22.3463C5.10778 21.7556 5.36114 21.4182 5.69895 21.5869C5.95231 21.7556 7.72584 22.5994 9.58381 23.4431C11.4418 24.2868 13.2153 25.3837 13.5531 25.8899C13.8909 26.4805 14.2288 28.5055 14.2288 30.4461C14.2288 32.471 13.9754 34.0741 13.5531 34.0741C13.2153 34.0741 12.033 33.3991 10.8506 32.5554C9.66827 31.6273 7.89474 29.2648 6.8813 27.2399Z" stroke="#222B52" stroke-width="2.1934"/>
<path d="M56.54 22.2619C56.9622 20.5744 57.3001 17.8745 57.3001 16.1027C57.3001 14.1621 57.7223 12.9809 58.3135 12.8965C58.9047 12.8965 60.5093 14.0777 61.945 15.512C64.0563 17.7901 64.4786 18.887 64.6475 23.1056C64.9009 27.9149 64.8164 28.168 62.5362 29.0117C60.9316 29.6023 59.4114 29.6023 57.469 29.0117C55.4421 28.3367 54.8509 27.7461 55.2732 26.6493C55.5265 25.8899 56.1177 23.865 56.54 22.2619Z" stroke="#222B52" stroke-width="2.1934"/>
<path d="M4.5166 16.1027L8.23256 12.8965C10.7099 10.7028 12.7367 9.60594 14.3132 9.60594C15.6645 9.60594 16.9313 9.94343 17.1846 10.4497C17.438 10.8715 17.2691 13.234 16.7624 15.6808C16.3401 18.1276 15.4111 20.5744 14.651 21.165C13.6376 22.0088 12.793 22.0088 10.5973 21.0807C9.16155 20.4901 7.13466 19.0557 4.5166 16.1027Z" stroke="#222B52" stroke-width="2.1934"/>
<path d="M43.5341 12.6434C43.7875 6.82163 44.0409 5.9779 45.7299 5.30292C46.7434 4.88105 48.5169 4.79668 49.6992 5.0498C50.8816 5.30292 52.4862 6.14665 53.3307 6.906C54.5131 8.00285 54.7665 9.52156 54.682 13.8246C54.682 16.7776 54.1753 20.8275 52.5707 26.0587L46.7434 26.7337C43.4497 27.0711 40.7472 27.3243 40.6627 27.1555C40.5783 26.9868 41.085 25.1306 41.8451 23.1056C42.5207 20.9963 43.2808 16.2714 43.5341 12.6434Z" stroke="#222B52" stroke-width="2.1934"/>
<path d="M32.6396 9.85906C32.5552 6.31539 32.8085 5.30292 34.1598 4.54356C35.0043 4.12169 36.44 3.69983 37.2001 3.69983C38.0447 3.69983 39.3115 3.86858 39.9871 4.12169C40.9161 4.37481 41.2539 5.89353 41.2539 9.77468C41.2539 12.7277 40.4938 17.6214 39.5648 20.7432C38.3825 24.7931 37.2846 26.7337 35.9333 27.4086C34.4976 28.0836 33.3153 28.0836 30.8661 27.1555C29.0926 26.5649 27.8258 25.6368 28.0791 25.2149C28.3325 24.7087 29.4304 22.0931 30.6127 19.3088C32.1329 15.7652 32.7241 12.8121 32.6396 9.85906Z" stroke="#222B52" stroke-width="2.1934"/>
<path d="M19.7182 10.1965C19.3804 7.74973 19.6338 6.65288 20.985 5.38729C21.914 4.45919 23.5186 3.69983 24.5321 3.69983C25.63 3.69983 27.4035 4.29044 28.5014 5.13417C30.2749 6.48414 30.4438 7.15912 30.106 10.8715C29.9371 13.1496 28.5859 17.4526 27.2346 20.4057C25.8833 23.2744 24.2787 25.6368 23.6876 25.6368C23.1808 25.6368 21.6607 24.8774 20.3094 23.9493C18.0292 22.3463 18.0292 22.3463 19.1271 17.8745C19.7182 15.4277 19.9716 11.9684 19.7182 10.1965Z" stroke="#222B52" stroke-width="2.1934"/>
</svg>
