<svg width="52" height="67" viewBox="0 0 52 67" fill="none" xmlns="http://www.w3.org/2000/svg">
<path d="M23.459 4.08252C24.8102 3.32316 26.9216 2.47943 28.1884 2.05757C29.4552 1.72008 32.1577 1.38259 34.269 1.38259C36.7182 1.29821 39.0829 1.88882 40.8564 2.98567C42.6299 4.08252 44.319 6.36059 45.8392 9.48239C47.3593 12.8573 47.8661 15.1354 47.6127 16.9072C47.2749 18.679 47.6127 20.1134 48.7106 21.5477C49.6396 22.729 50.3997 24.9227 50.3997 26.6101C50.3152 28.2132 49.6396 30.4913 48.8795 31.6725C47.9505 32.9381 47.3593 35.3005 47.3593 37.7473C47.3593 40.4473 46.7682 42.4722 45.5014 44.2441C44.4035 45.7628 43.5589 48.0409 43.5589 49.5596C43.6434 51.0783 42.8833 53.272 42.0388 54.4532C41.1942 55.6344 39.1673 57.1531 37.5627 57.7437C35.9581 58.4187 33.34 60.0218 31.7354 61.2874C30.1308 62.553 27.2594 63.9874 25.4014 64.4936C23.5434 64.9998 20.672 65.1686 19.0674 64.9155C17.4628 64.578 15.1825 63.903 14.0002 63.3124C12.8178 62.7218 10.622 61.203 9.01742 59.8531C7.49726 58.5031 5.38592 55.8875 4.45693 54.0313C3.44349 51.922 2.59895 48.3783 2.43005 44.7503C2.17669 41.5441 2.00778 37.4942 2.00778 35.8911C1.92333 33.6131 2.5145 32.4319 4.37248 30.9131C6.31491 29.31 6.73718 28.2976 6.56827 26.2726C6.39936 24.5008 6.90608 22.8133 8.25734 21.1259C9.35524 19.6915 10.1153 17.7509 9.94641 16.4854C9.7775 15.3041 10.3687 13.5323 11.1288 12.5198C11.8888 11.5917 13.8313 10.2417 15.5203 9.65114C17.2939 9.1449 19.1518 7.96368 19.743 7.03558C20.4186 6.19185 22.0233 4.84188 23.459 4.08252Z" fill="#222B52" stroke="#222B52" stroke-width="2.1934"/>
<path d="M13.9157 57.575C13.8312 56.0563 14.4224 54.0313 15.1825 52.9345L16.6182 51.0783L21.0098 53.4407C23.4589 54.7907 26.7526 56.3094 31.3131 57.9125L29.0329 60.0218C27.6816 61.1187 25.6547 62.1311 24.3879 62.2155C23.0367 62.2155 20.8409 62.2155 19.4896 62.1311C18.1384 61.9624 16.2804 61.5405 15.5203 61.1187C14.5913 60.6124 14.0001 59.3468 13.9157 57.575Z" fill="#FCFCFC"/>
<path d="M7.58166 54.2001C6.48376 52.2595 5.55477 49.3908 5.47032 47.8721C5.47032 46.4378 5.80813 45.1722 6.14595 45.0878C6.48376 45.0878 7.3283 45.6784 8.00393 46.4378C8.76401 47.1971 9.60854 47.7877 9.94636 47.7033C10.2842 47.7033 11.551 48.0408 14.7602 49.3908L13.0711 51.6689C12.1421 53.0188 11.3821 54.8751 11.3821 55.8875C11.3821 56.9844 11.0443 57.8281 10.5375 57.8281C10.1153 57.8281 8.76401 56.225 7.58166 54.2001Z" fill="#FCFCFC"/>
<path d="M19.5741 47.1971C19.6585 45.8471 19.9963 43.1472 20.2497 41.1223C20.5875 39.1817 20.9253 37.5786 21.1787 37.5786C21.3476 37.5786 23.3745 38.6754 25.5703 40.0254C27.7661 41.4597 32.0732 43.4847 35.0291 44.4972C39.5896 46.1846 40.603 46.8596 40.7719 48.5471C40.9408 49.8127 40.2652 51.6689 39.0828 53.1032C37.3093 55.3813 36.887 55.4657 32.9177 54.9594C30.6375 54.7063 26.6682 53.3563 24.0501 52.0907C19.9119 49.9814 19.4052 49.4752 19.5741 47.1971Z" fill="#FCFCFC"/>
<path d="M3.78125 36.7349C3.78125 35.8068 4.54133 34.288 5.47032 33.3599C6.39931 32.4318 7.24384 31.6725 7.41275 31.6725C7.49721 31.5881 9.35518 32.3475 11.3821 33.2756C13.4934 34.2037 16.027 35.0474 17.1249 35.0474C18.5606 35.0474 18.8984 35.3849 18.5606 36.4817C18.2228 37.3255 17.8005 39.8567 17.4627 42.1347C17.1249 44.3284 16.7026 46.3534 16.4493 46.5221C16.2804 46.6065 14.7602 46.4378 13.0711 46.0159C11.3821 45.594 8.84846 43.8222 6.99048 41.8816C5.21696 39.941 3.78125 37.663 3.78125 36.7349Z" fill="#FCFCFC"/>
<path d="M21.432 32.1787C21.432 31.0819 22.1921 29.2257 23.2056 27.9601C24.219 26.7788 25.2324 25.7664 25.4014 25.7664C25.5703 25.7664 27.7661 27.2851 30.2152 29.0569C32.6644 30.9131 36.0425 33.0224 37.816 33.6974C39.5051 34.4568 41.7009 35.0474 42.6299 35.0474C44.0656 35.0474 44.3189 35.638 44.4034 38.1692C44.4034 39.941 43.8967 41.7972 43.3055 42.3879C42.5736 43.0066 41.0816 43.091 38.8295 42.641C36.9715 42.3035 34.4379 41.5441 33.1711 41.0379C31.9043 40.5316 28.7795 38.7598 26.1614 37.1567C22.7833 34.963 21.5165 33.6974 21.432 32.1787Z" fill="#FCFCFC"/>
<path d="M9.18628 27.2007C8.93292 26.1882 9.10182 24.5008 9.693 23.4039C10.1997 22.3915 11.0443 21.5477 11.6354 21.5477C12.2266 21.5477 13.409 22.1383 14.3379 22.8133C15.2669 23.5727 17.4627 24.0789 19.2362 24.0789C20.9253 24.0789 22.361 24.2477 22.361 24.5008C22.361 24.7539 21.6009 25.9351 20.672 27.2007C19.743 28.5507 18.9829 30.2381 18.9829 30.9975C18.9829 32.2631 18.4762 32.4318 16.2804 32.01C14.7602 31.7569 12.6489 30.9975 11.6354 30.3225C10.5375 29.6475 9.52409 28.2976 9.18628 27.2007Z" fill="#FCFCFC"/>
<path d="M26.4148 21.9696C26.3303 21.5477 27.3438 20.1134 28.695 18.8478C30.0463 17.5822 31.2286 16.4853 31.3131 16.4853C31.482 16.4853 33.7623 17.6666 36.4648 19.0165C39.1673 20.4509 42.1232 21.5477 43.0521 21.5477C43.9811 21.5477 45.4168 22.2227 46.2614 23.0664C47.1059 23.8258 47.7815 25.4289 47.7815 26.6101C47.7815 27.7913 47.0215 29.5632 46.008 30.5756C45.079 31.6725 43.8122 32.5162 43.0521 32.5162C42.3765 32.5162 40.3496 31.9256 38.6606 31.1662C36.887 30.4913 33.4244 28.2976 30.9753 26.357C28.5261 24.4164 26.4993 22.4758 26.4148 21.9696Z" fill="#FCFCFC"/>
<path d="M12.0577 16.3166C11.9732 15.8104 12.6489 14.6291 13.4934 13.7854C14.3379 12.9417 15.8581 12.2667 16.7871 12.2667C17.8005 12.2667 19.9119 12.6042 21.5165 13.1104C23.2056 13.5323 25.5702 14.0385 29.1173 14.7979L29.1173 14.7979L25.5703 18.1728C22.9522 20.704 21.3476 21.5477 19.2362 21.5477C17.3783 21.5477 15.7455 20.8446 14.3379 19.4384C13.24 18.2572 12.1421 16.9072 12.0577 16.3166Z" fill="#FCFCFC"/>
<path d="M32.7488 13.5323C32.3265 12.6042 33.0866 11.1698 35.4513 8.89177C37.3093 7.03557 39.0828 5.51685 39.4206 5.51685C39.8429 5.51685 40.8563 6.52933 41.8698 7.79492C42.7988 9.14489 43.8967 11.423 44.4034 12.8573C44.9101 14.7135 44.9101 16.2322 44.3189 17.3291C43.7278 18.5947 42.9677 18.8478 41.6164 18.5103C40.5185 18.1728 38.2383 17.2447 36.5492 16.401C34.7757 15.4729 33.0866 14.2073 32.7488 13.5323Z" fill="#FCFCFC"/>
<path d="M25.3169 6.10746C26.2459 5.60123 28.1883 4.92624 29.5396 4.58875C30.9753 4.25126 32.9177 3.99814 33.9312 3.91377C35.7047 3.82939 35.7047 3.91377 33.34 6.78245C31.9887 8.38553 30.8064 10.073 30.8064 10.5792C30.8064 11.0011 29.2018 11.423 27.2593 11.423C25.2324 11.423 23.1211 11.0855 22.361 10.6636C21.2631 9.98862 21.2631 9.7355 22.361 8.46991C23.1211 7.62618 24.3879 6.6137 25.3169 6.10746Z" fill="#FCFCFC"/>
<path d="M13.9157 57.575C13.8312 56.0563 14.4224 54.0313 15.1825 52.9345L16.6182 51.0783L21.0098 53.4407C23.4589 54.7907 26.7526 56.3094 31.3131 57.9125L29.0329 60.0218C27.6816 61.1187 25.6547 62.1311 24.3879 62.2155C23.0367 62.2155 20.8409 62.2155 19.4896 62.1311C18.1384 61.9624 16.2804 61.5405 15.5203 61.1187C14.5913 60.6124 14.0001 59.3468 13.9157 57.575Z" stroke="#222B52" stroke-width="2.1934"/>
<path d="M7.58166 54.2001C6.48376 52.2595 5.55477 49.3908 5.47032 47.8721C5.47032 46.4378 5.80813 45.1722 6.14595 45.0878C6.48376 45.0878 7.3283 45.6784 8.00393 46.4378C8.76401 47.1971 9.60854 47.7877 9.94636 47.7033C10.2842 47.7033 11.551 48.0408 14.7602 49.3908L13.0711 51.6689C12.1421 53.0188 11.3821 54.8751 11.3821 55.8875C11.3821 56.9844 11.0443 57.8281 10.5375 57.8281C10.1153 57.8281 8.76401 56.225 7.58166 54.2001Z" stroke="#222B52" stroke-width="2.1934"/>
<path d="M19.5741 47.1971C19.6585 45.8471 19.9963 43.1472 20.2497 41.1223C20.5875 39.1817 20.9253 37.5786 21.1787 37.5786C21.3476 37.5786 23.3745 38.6754 25.5703 40.0254C27.7661 41.4597 32.0732 43.4847 35.0291 44.4972C39.5896 46.1846 40.603 46.8596 40.7719 48.5471C40.9408 49.8127 40.2652 51.6689 39.0828 53.1032C37.3093 55.3813 36.887 55.4657 32.9177 54.9594C30.6375 54.7063 26.6682 53.3563 24.0501 52.0907C19.9119 49.9814 19.4052 49.4752 19.5741 47.1971Z" stroke="#222B52" stroke-width="2.1934"/>
<path d="M3.78125 36.7349C3.78125 35.8068 4.54133 34.288 5.47032 33.3599C6.39931 32.4318 7.24384 31.6725 7.41275 31.6725C7.49721 31.5881 9.35518 32.3475 11.3821 33.2756C13.4934 34.2037 16.027 35.0474 17.1249 35.0474C18.5606 35.0474 18.8984 35.3849 18.5606 36.4817C18.2228 37.3255 17.8005 39.8567 17.4627 42.1347C17.1249 44.3284 16.7026 46.3534 16.4493 46.5221C16.2804 46.6065 14.7602 46.4378 13.0711 46.0159C11.3821 45.594 8.84846 43.8222 6.99048 41.8816C5.21696 39.941 3.78125 37.663 3.78125 36.7349Z" stroke="#222B52" stroke-width="2.1934"/>
<path d="M21.432 32.1787C21.432 31.0819 22.1921 29.2257 23.2056 27.9601C24.219 26.7788 25.2324 25.7664 25.4014 25.7664C25.5703 25.7664 27.7661 27.2851 30.2152 29.0569C32.6644 30.9131 36.0425 33.0224 37.816 33.6974C39.5051 34.4568 41.7009 35.0474 42.6299 35.0474C44.0656 35.0474 44.3189 35.638 44.4034 38.1692C44.4034 39.941 43.8967 41.7972 43.3055 42.3879C42.5736 43.0066 41.0816 43.091 38.8295 42.641C36.9715 42.3035 34.4379 41.5441 33.1711 41.0379C31.9043 40.5316 28.7795 38.7598 26.1614 37.1567C22.7833 34.963 21.5165 33.6974 21.432 32.1787Z" stroke="#222B52" stroke-width="2.1934"/>
<path d="M9.18628 27.2007C8.93292 26.1882 9.10182 24.5008 9.693 23.4039C10.1997 22.3915 11.0443 21.5477 11.6354 21.5477C12.2266 21.5477 13.409 22.1383 14.3379 22.8133C15.2669 23.5727 17.4627 24.0789 19.2362 24.0789C20.9253 24.0789 22.361 24.2477 22.361 24.5008C22.361 24.7539 21.6009 25.9351 20.672 27.2007C19.743 28.5507 18.9829 30.2381 18.9829 30.9975C18.9829 32.2631 18.4762 32.4318 16.2804 32.01C14.7602 31.7569 12.6489 30.9975 11.6354 30.3225C10.5375 29.6475 9.52409 28.2976 9.18628 27.2007Z" stroke="#222B52" stroke-width="2.1934"/>
<path d="M26.4148 21.9696C26.3303 21.5477 27.3438 20.1134 28.695 18.8478C30.0463 17.5822 31.2286 16.4853 31.3131 16.4853C31.482 16.4853 33.7623 17.6666 36.4648 19.0165C39.1673 20.4509 42.1232 21.5477 43.0521 21.5477C43.9811 21.5477 45.4168 22.2227 46.2614 23.0664C47.1059 23.8258 47.7815 25.4289 47.7815 26.6101C47.7815 27.7913 47.0215 29.5632 46.008 30.5756C45.079 31.6725 43.8122 32.5162 43.0521 32.5162C42.3765 32.5162 40.3496 31.9256 38.6606 31.1662C36.887 30.4913 33.4244 28.2976 30.9753 26.357C28.5261 24.4164 26.4993 22.4758 26.4148 21.9696Z" stroke="#222B52" stroke-width="2.1934"/>
<path d="M12.0577 16.3166C11.9732 15.8104 12.6489 14.6291 13.4934 13.7854C14.3379 12.9417 15.8581 12.2667 16.7871 12.2667C17.8005 12.2667 19.9119 12.6042 21.5165 13.1104C23.2056 13.5323 25.5702 14.0385 29.1173 14.7979L29.1173 14.7979L25.5703 18.1728C22.9522 20.704 21.3476 21.5477 19.2362 21.5477C17.3783 21.5477 15.7455 20.8446 14.3379 19.4384C13.24 18.2572 12.1421 16.9072 12.0577 16.3166Z" stroke="#222B52" stroke-width="2.1934"/>
<path d="M32.7488 13.5323C32.3265 12.6042 33.0866 11.1698 35.4513 8.89177C37.3093 7.03557 39.0828 5.51685 39.4206 5.51685C39.8429 5.51685 40.8563 6.52933 41.8698 7.79492C42.7988 9.14489 43.8967 11.423 44.4034 12.8573C44.9101 14.7135 44.9101 16.2322 44.3189 17.3291C43.7278 18.5947 42.9677 18.8478 41.6164 18.5103C40.5185 18.1728 38.2383 17.2447 36.5492 16.401C34.7757 15.4729 33.0866 14.2073 32.7488 13.5323Z" stroke="#222B52" stroke-width="2.1934"/>
<path d="M25.3169 6.10746C26.2459 5.60123 28.1883 4.92624 29.5396 4.58875C30.9753 4.25126 32.9177 3.99814 33.9312 3.91377C35.7047 3.82939 35.7047 3.91377 33.34 6.78245C31.9887 8.38553 30.8064 10.073 30.8064 10.5792C30.8064 11.0011 29.2018 11.423 27.2593 11.423C25.2324 11.423 23.1211 11.0855 22.361 10.6636C21.2631 9.98862 21.2631 9.7355 22.361 8.46991C23.1211 7.62618 24.3879 6.6137 25.3169 6.10746Z" stroke="#222B52" stroke-width="2.1934"/>
</svg>
