<svg width="68" height="47" viewBox="0 0 68 47" fill="none" xmlns="http://www.w3.org/2000/svg">
<path d="M29.1856 4.53119C30.7902 4.53119 33.6616 3.94058 35.5196 3.26559C37.3776 2.59061 38.9822 2.08437 39.0667 2C39.2356 2 40.9246 2.50624 42.8671 3.18122C44.894 3.85621 48.6099 4.61556 51.1435 4.86868C53.6771 5.1218 57.3086 6.30302 59.1666 7.39987C61.0246 8.49672 63.2204 10.4373 64.1494 11.7873C64.9939 13.1372 65.9229 15.3309 66.1762 16.7653C66.3451 18.1152 66.1762 20.6464 65.6695 22.2495C65.0783 24.1901 62.7981 26.9744 59.1666 30.2649C56.1263 33.0493 53.0015 35.5804 52.157 35.9179C51.3969 36.2554 49.4544 36.5086 48.0187 36.5086C46.4986 36.5929 43.965 37.4367 42.5293 38.4491C41.0091 39.4616 37.0398 41.2334 33.8305 42.3303C30.6213 43.4271 25.4696 44.6927 22.4293 45.0302C19.389 45.4521 14.8285 45.7896 12.2949 45.7896C7.98776 45.7896 7.39658 45.5365 4.52516 42.499C1.48484 39.2929 1.31593 38.871 1.65374 34.6523C1.82265 32.2899 2.49828 27.9025 3.08945 25.0338C4.1029 20.4777 4.86298 19.2121 9.33901 14.6559C12.8861 11.1123 15.2508 9.42482 17.3621 9.00296C18.9667 8.66547 21.6692 7.56862 23.2738 6.47177C24.9629 5.29055 27.4965 4.44682 29.1856 4.53119Z" fill="#222B52" stroke="#222B52" stroke-width="2.1934"/>
<path d="M3.68067 35.0742C3.59622 33.3023 3.84958 31.6149 4.1874 31.2774C4.52521 31.0243 6.21428 31.3618 7.90335 32.0367C9.67688 32.7117 12.126 34.3148 13.3928 35.5804C14.7441 36.846 16.3487 38.871 17.0243 40.1365C17.7 41.4865 18.2067 42.6677 18.2067 42.9209C18.2067 43.174 16.0953 43.3427 13.5617 43.3427C9.50797 43.3427 8.57898 43.0052 6.38319 40.8115C4.52521 38.9553 3.84958 37.4366 3.68067 35.0742Z" fill="#FCFCFC"/>
<path d="M6.29873 24.865C6.21428 22.7557 6.80546 20.8995 7.98781 19.4652C9.50797 17.5246 10.0147 17.4402 12.4638 18.1152C13.984 18.5371 16.8554 19.887 18.7979 20.9839C20.8247 22.1651 23.3583 24.3588 24.4562 25.7931C25.5541 27.3119 27.2432 30.0962 28.0877 31.9524C29.0167 33.8086 30.0302 36.3398 30.368 37.6054C30.7903 39.5459 30.4524 40.2209 28.7634 41.2334C27.581 41.9084 25.5541 42.499 24.1184 42.499C22.0071 42.499 21.1626 41.824 18.629 37.8585C16.4332 34.3992 14.4907 32.543 11.0281 30.6868C6.63655 28.3243 6.38319 27.9868 6.29873 24.865Z" fill="#FCFCFC"/>
<path d="M12.9706 14.4872C12.9706 14.1497 13.8151 13.3059 14.913 12.5466C16.0109 11.8716 17.5311 11.281 18.2067 11.281C18.8823 11.281 21.1626 12.1247 23.2739 13.0528C25.3852 13.9809 29.2701 16.3434 31.9726 18.2839C34.6751 20.2245 38.0533 23.5151 39.4045 25.6244C40.7558 27.7337 41.9381 30.6868 42.107 32.2899C42.2759 34.821 41.8537 35.496 39.3201 37.1835C37.7155 38.2803 35.6886 39.1241 34.844 39.1241C33.915 39.1241 33.0705 38.0272 32.4793 35.9179C31.8882 34.2304 30.6214 31.1086 29.6079 28.9993C28.5945 26.89 26.1453 23.7682 24.2029 21.9964C22.3449 20.3089 19.0512 18.0308 16.9399 16.934C14.8285 15.9215 13.055 14.8247 12.9706 14.4872Z" fill="#FCFCFC"/>
<path d="M57.7309 12.5466C56.4641 11.1122 55.4507 9.76227 55.3662 9.34041C55.3662 9.00292 55.873 8.7498 56.3797 8.7498C56.9709 8.83417 58.9133 10.2685 60.6024 11.956C63.0515 14.4028 63.7271 15.7528 63.8116 18.1996C63.8116 19.9714 63.5582 21.4057 63.136 21.4057C62.7981 21.4057 62.0381 19.9714 61.3624 18.2839C60.6868 16.5121 59.0822 13.8965 57.7309 12.5466Z" fill="#FCFCFC"/>
<path d="M22.8516 9.84665L24.963 8.41231C26.1453 7.65295 28.0033 7.06234 29.1856 7.06234C30.368 6.97796 34.0839 8.32793 37.3776 10.0154C40.7558 11.6185 44.3873 13.8965 45.4007 14.9934C46.4986 16.1746 48.5255 19.4652 49.9612 22.4182C51.3969 25.3713 52.8326 28.7462 53.1704 30.0118C53.5927 32.0367 53.3394 32.543 51.3125 33.3023C50.0457 33.8086 48.3566 34.0617 47.4276 33.8929C46.4142 33.7242 45.3163 32.1211 44.3028 29.4212C43.4583 27.0587 41.178 23.3463 39.1512 21.0683C37.0398 18.7058 32.8171 15.4153 22.8516 9.84665Z" fill="#FCFCFC"/>
<path d="M41.6848 9.17166C39.0667 7.73732 36.6176 6.30298 36.1953 5.96549C35.8575 5.628 36.9554 5.37488 38.6444 5.37488C40.418 5.37488 43.8806 6.30298 46.2453 7.39983C48.6944 8.58105 52.2415 10.9435 54.1839 12.7153C56.2108 14.6559 58.3221 17.7777 61.1935 25.2025L58.9133 27.0587C57.6465 28.1556 56.4641 28.9993 56.2108 28.9993C55.9574 28.9993 55.1129 27.2275 54.3528 25.0338C53.5927 22.7557 51.4814 18.8746 49.7079 16.3434C47.3432 12.9684 45.1474 11.0279 41.6848 9.17166Z" fill="#FCFCFC"/>
<path d="M3.68067 35.0742C3.59622 33.3023 3.84958 31.6149 4.1874 31.2774C4.52521 31.0243 6.21428 31.3618 7.90335 32.0367C9.67688 32.7117 12.126 34.3148 13.3928 35.5804C14.7441 36.846 16.3487 38.871 17.0243 40.1365C17.7 41.4865 18.2067 42.6677 18.2067 42.9209C18.2067 43.174 16.0953 43.3427 13.5617 43.3427C9.50797 43.3427 8.57898 43.0052 6.38319 40.8115C4.52521 38.9553 3.84958 37.4366 3.68067 35.0742Z" stroke="#222B52" stroke-width="2.1934"/>
<path d="M6.29873 24.865C6.21428 22.7557 6.80546 20.8995 7.98781 19.4652C9.50797 17.5246 10.0147 17.4402 12.4638 18.1152C13.984 18.5371 16.8554 19.887 18.7979 20.9839C20.8247 22.1651 23.3583 24.3588 24.4562 25.7931C25.5541 27.3119 27.2432 30.0962 28.0877 31.9524C29.0167 33.8086 30.0302 36.3398 30.368 37.6054C30.7903 39.5459 30.4524 40.2209 28.7634 41.2334C27.581 41.9084 25.5541 42.499 24.1184 42.499C22.0071 42.499 21.1626 41.824 18.629 37.8585C16.4332 34.3992 14.4907 32.543 11.0281 30.6868C6.63655 28.3243 6.38319 27.9868 6.29873 24.865Z" stroke="#222B52" stroke-width="2.1934"/>
<path d="M12.9706 14.4872C12.9706 14.1497 13.8151 13.3059 14.913 12.5466C16.0109 11.8716 17.5311 11.281 18.2067 11.281C18.8823 11.281 21.1626 12.1247 23.2739 13.0528C25.3852 13.9809 29.2701 16.3434 31.9726 18.2839C34.6751 20.2245 38.0533 23.5151 39.4045 25.6244C40.7558 27.7337 41.9381 30.6868 42.107 32.2899C42.2759 34.821 41.8537 35.496 39.3201 37.1835C37.7155 38.2803 35.6886 39.1241 34.844 39.1241C33.915 39.1241 33.0705 38.0272 32.4793 35.9179C31.8882 34.2304 30.6214 31.1086 29.6079 28.9993C28.5945 26.89 26.1453 23.7682 24.2029 21.9964C22.3449 20.3089 19.0512 18.0308 16.9399 16.934C14.8285 15.9215 13.055 14.8247 12.9706 14.4872Z" stroke="#222B52" stroke-width="2.1934"/>
<path d="M57.7309 12.5466C56.4641 11.1122 55.4507 9.76227 55.3662 9.34041C55.3662 9.00292 55.873 8.7498 56.3797 8.7498C56.9709 8.83417 58.9133 10.2685 60.6024 11.956C63.0515 14.4028 63.7271 15.7528 63.8116 18.1996C63.8116 19.9714 63.5582 21.4057 63.136 21.4057C62.7981 21.4057 62.0381 19.9714 61.3624 18.2839C60.6868 16.5121 59.0822 13.8965 57.7309 12.5466Z" stroke="#222B52" stroke-width="2.1934"/>
<path d="M22.8516 9.84665L24.963 8.41231C26.1453 7.65295 28.0033 7.06234 29.1856 7.06234C30.368 6.97796 34.0839 8.32793 37.3776 10.0154C40.7558 11.6185 44.3873 13.8965 45.4007 14.9934C46.4986 16.1746 48.5255 19.4652 49.9612 22.4182C51.3969 25.3713 52.8326 28.7462 53.1704 30.0118C53.5927 32.0367 53.3394 32.543 51.3125 33.3023C50.0457 33.8086 48.3566 34.0617 47.4276 33.8929C46.4142 33.7242 45.3163 32.1211 44.3028 29.4212C43.4583 27.0587 41.178 23.3463 39.1512 21.0683C37.0398 18.7058 32.8171 15.4153 22.8516 9.84665Z" stroke="#222B52" stroke-width="2.1934"/>
<path d="M41.6848 9.17166C39.0667 7.73732 36.6176 6.30298 36.1953 5.96549C35.8575 5.628 36.9554 5.37488 38.6444 5.37488C40.418 5.37488 43.8806 6.30298 46.2453 7.39983C48.6944 8.58105 52.2415 10.9435 54.1839 12.7153C56.2108 14.6559 58.3221 17.7777 61.1935 25.2025L58.9133 27.0587C57.6465 28.1556 56.4641 28.9993 56.2108 28.9993C55.9574 28.9993 55.1129 27.2275 54.3528 25.0338C53.5927 22.7557 51.4814 18.8746 49.7079 16.3434C47.3432 12.9684 45.1474 11.0279 41.6848 9.17166Z" stroke="#222B52" stroke-width="2.1934"/>
</svg>
